%TF.GenerationSoftware,KiCad,Pcbnew,10.0.0*%
%TF.CreationDate,2026-04-03T17:57:46+01:00*%
%TF.ProjectId,AD8232_Board,41443832-3332-45f4-926f-6172642e6b69,rev?*%
%TF.SameCoordinates,Original*%
%TF.FileFunction,Copper,L1,Top*%
%TF.FilePolarity,Positive*%
%FSLAX46Y46*%
G04 Gerber Fmt 4.6, Leading zero omitted, Abs format (unit mm)*
G04 Created by KiCad (PCBNEW 10.0.0) date 2026-04-03 17:57:46*
%MOMM*%
%LPD*%
G01*
G04 APERTURE LIST*
G04 Aperture macros list*
%AMRoundRect*
0 Rectangle with rounded corners*
0 $1 Rounding radius*
0 $2 $3 $4 $5 $6 $7 $8 $9 X,Y pos of 4 corners*
0 Add a 4 corners polygon primitive as box body*
4,1,4,$2,$3,$4,$5,$6,$7,$8,$9,$2,$3,0*
0 Add four circle primitives for the rounded corners*
1,1,$1+$1,$2,$3*
1,1,$1+$1,$4,$5*
1,1,$1+$1,$6,$7*
1,1,$1+$1,$8,$9*
0 Add four rect primitives between the rounded corners*
20,1,$1+$1,$2,$3,$4,$5,0*
20,1,$1+$1,$4,$5,$6,$7,0*
20,1,$1+$1,$6,$7,$8,$9,0*
20,1,$1+$1,$8,$9,$2,$3,0*%
G04 Aperture macros list end*
%TA.AperFunction,SMDPad,CuDef*%
%ADD10RoundRect,0.200000X-0.200000X-0.275000X0.200000X-0.275000X0.200000X0.275000X-0.200000X0.275000X0*%
%TD*%
%TA.AperFunction,SMDPad,CuDef*%
%ADD11RoundRect,0.250000X-0.262500X-0.450000X0.262500X-0.450000X0.262500X0.450000X-0.262500X0.450000X0*%
%TD*%
%TA.AperFunction,SMDPad,CuDef*%
%ADD12RoundRect,0.225000X-0.225000X-0.250000X0.225000X-0.250000X0.225000X0.250000X-0.225000X0.250000X0*%
%TD*%
%TA.AperFunction,ComponentPad*%
%ADD13R,1.700000X1.700000*%
%TD*%
%TA.AperFunction,ComponentPad*%
%ADD14C,1.700000*%
%TD*%
%TA.AperFunction,SMDPad,CuDef*%
%ADD15RoundRect,0.225000X0.225000X0.250000X-0.225000X0.250000X-0.225000X-0.250000X0.225000X-0.250000X0*%
%TD*%
%TA.AperFunction,SMDPad,CuDef*%
%ADD16RoundRect,0.225000X0.250000X-0.225000X0.250000X0.225000X-0.250000X0.225000X-0.250000X-0.225000X0*%
%TD*%
%TA.AperFunction,SMDPad,CuDef*%
%ADD17RoundRect,0.250000X-0.312500X-0.625000X0.312500X-0.625000X0.312500X0.625000X-0.312500X0.625000X0*%
%TD*%
%TA.AperFunction,SMDPad,CuDef*%
%ADD18RoundRect,0.200000X0.275000X-0.200000X0.275000X0.200000X-0.275000X0.200000X-0.275000X-0.200000X0*%
%TD*%
%TA.AperFunction,SMDPad,CuDef*%
%ADD19RoundRect,0.250000X0.262500X0.450000X-0.262500X0.450000X-0.262500X-0.450000X0.262500X-0.450000X0*%
%TD*%
%TA.AperFunction,SMDPad,CuDef*%
%ADD20RoundRect,0.250000X-0.450000X0.262500X-0.450000X-0.262500X0.450000X-0.262500X0.450000X0.262500X0*%
%TD*%
%TA.AperFunction,SMDPad,CuDef*%
%ADD21RoundRect,0.250000X0.450000X-0.262500X0.450000X0.262500X-0.450000X0.262500X-0.450000X-0.262500X0*%
%TD*%
%TA.AperFunction,SMDPad,CuDef*%
%ADD22RoundRect,0.200000X0.200000X0.275000X-0.200000X0.275000X-0.200000X-0.275000X0.200000X-0.275000X0*%
%TD*%
%TA.AperFunction,SMDPad,CuDef*%
%ADD23RoundRect,0.218750X-0.218750X-0.256250X0.218750X-0.256250X0.218750X0.256250X-0.218750X0.256250X0*%
%TD*%
%TA.AperFunction,HeatsinkPad*%
%ADD24R,2.600000X2.600000*%
%TD*%
%TA.AperFunction,SMDPad,CuDef*%
%ADD25RoundRect,0.062500X-0.062500X-0.362500X0.062500X-0.362500X0.062500X0.362500X-0.062500X0.362500X0*%
%TD*%
%TA.AperFunction,SMDPad,CuDef*%
%ADD26RoundRect,0.062500X-0.362500X-0.062500X0.362500X-0.062500X0.362500X0.062500X-0.362500X0.062500X0*%
%TD*%
%TA.AperFunction,ViaPad*%
%ADD27C,0.600000*%
%TD*%
%TA.AperFunction,Conductor*%
%ADD28C,0.500000*%
%TD*%
%TA.AperFunction,Conductor*%
%ADD29C,0.200000*%
%TD*%
%TA.AperFunction,Conductor*%
%ADD30C,0.400000*%
%TD*%
G04 APERTURE END LIST*
D10*
%TO.P,R12,1*%
%TO.N,Net-(U1-HPSENSE)*%
X159900000Y-102500000D03*
%TO.P,R12,2*%
%TO.N,Net-(R12-Pad2)*%
X161550000Y-102500000D03*
%TD*%
%TO.P,R13,1*%
%TO.N,IAOUT*%
X159900000Y-104000000D03*
%TO.P,R13,2*%
%TO.N,Net-(R12-Pad2)*%
X161550000Y-104000000D03*
%TD*%
D11*
%TO.P,R2,2*%
%TO.N,Net-(U1--IN)*%
X167525000Y-104900000D03*
%TO.P,R2,1*%
%TO.N,RA*%
X165700000Y-104900000D03*
%TD*%
D12*
%TO.P,C1,1*%
%TO.N,Net-(U1-RLDFB)*%
X164050000Y-106600000D03*
%TO.P,C1,2*%
%TO.N,Net-(U1-RLD)*%
X165600000Y-106600000D03*
%TD*%
D11*
%TO.P,R1,1*%
%TO.N,LA*%
X165675000Y-103000000D03*
%TO.P,R1,2*%
%TO.N,Net-(U1-+IN)*%
X167500000Y-103000000D03*
%TD*%
D12*
%TO.P,C6,2*%
%TO.N,Net-(U1-HPSENSE)*%
X166700000Y-101300000D03*
%TO.P,C6,1*%
%TO.N,Net-(U1-HPDRIVE)*%
X165150000Y-101300000D03*
%TD*%
D13*
%TO.P,J1,1,Pin_1_1*%
%TO.N,LA*%
X157400000Y-101660000D03*
D14*
%TO.P,J1,2,Pin_2_2*%
%TO.N,RA*%
X157400000Y-104200000D03*
%TO.P,J1,3,Pin_3_3*%
%TO.N,RL*%
X157400000Y-106740000D03*
%TO.P,J1,4,Pin_4_4*%
%TO.N,SIGNAL OUTPUT*%
X157400000Y-109280000D03*
%TO.P,J1,5,Pin_5_5*%
%TO.N,unconnected-(J1-Pin_5-Pad5)*%
X157400000Y-111820000D03*
%TD*%
D12*
%TO.P,C7,2*%
%TO.N,REFOUT*%
X168600000Y-108100000D03*
%TO.P,C7,1*%
%TO.N,SW*%
X167050000Y-108100000D03*
%TD*%
D15*
%TO.P,C2,2*%
%TO.N,REFOUT*%
X166750000Y-109900000D03*
%TO.P,C2,1*%
%TO.N,Net-(C2-Pad1)*%
X168300000Y-109900000D03*
%TD*%
D12*
%TO.P,C3,2*%
%TO.N,SIGNAL OUTPUT*%
X169800000Y-113400000D03*
%TO.P,C3,1*%
%TO.N,IAOUT*%
X168250000Y-113400000D03*
%TD*%
D16*
%TO.P,C4,2*%
%TO.N,GND*%
X176300000Y-99500000D03*
%TO.P,C4,1*%
%TO.N,+3.3V*%
X176300000Y-101050000D03*
%TD*%
D15*
%TO.P,C5,2*%
%TO.N,GND*%
X167500000Y-98600000D03*
%TO.P,C5,1*%
%TO.N,Net-(U1-REFIN)*%
X169050000Y-98600000D03*
%TD*%
D17*
%TO.P,R5,2*%
%TO.N,Net-(U1-RLD)*%
X166600000Y-113000000D03*
%TO.P,R5,1*%
%TO.N,RL*%
X163675000Y-113000000D03*
%TD*%
D18*
%TO.P,R4,2*%
%TO.N,+3.3V*%
X162700000Y-98250000D03*
%TO.P,R4,1*%
%TO.N,RA*%
X162700000Y-99900000D03*
%TD*%
D19*
%TO.P,R9,2*%
%TO.N,Net-(C2-Pad1)*%
X169875000Y-109900000D03*
%TO.P,R9,1*%
%TO.N,Net-(U1-OPAMP+)*%
X171700000Y-109900000D03*
%TD*%
D14*
%TO.P,J2,5,Pin_5_5*%
%TO.N,LO-*%
X178800000Y-112360000D03*
%TO.P,J2,4,Pin_4_4*%
%TO.N,LO+*%
X178800000Y-109820000D03*
%TO.P,J2,3,Pin_3_3*%
%TO.N,SDN*%
X178800000Y-107280000D03*
%TO.P,J2,2,Pin_2_2*%
%TO.N,GND*%
X178800000Y-104740000D03*
D13*
%TO.P,J2,1,Pin_1_1*%
%TO.N,+3.3V*%
X178800000Y-102200000D03*
%TD*%
D20*
%TO.P,R15,2*%
%TO.N,Net-(D1-A)*%
X174800000Y-113425000D03*
%TO.P,R15,1*%
%TO.N,SIGNAL OUTPUT*%
X174800000Y-111600000D03*
%TD*%
D21*
%TO.P,R8,2*%
%TO.N,IAOUT*%
X161800000Y-108200000D03*
%TO.P,R8,1*%
%TO.N,Net-(C2-Pad1)*%
X161800000Y-110025000D03*
%TD*%
D10*
%TO.P,R11,2*%
%TO.N,Net-(U1-REFIN)*%
X169900000Y-100100000D03*
%TO.P,R11,1*%
%TO.N,GND*%
X168250000Y-100100000D03*
%TD*%
D18*
%TO.P,R3,2*%
%TO.N,+3.3V*%
X164200000Y-98250000D03*
%TO.P,R3,1*%
%TO.N,LA*%
X164200000Y-99900000D03*
%TD*%
D10*
%TO.P,R7,2*%
%TO.N,Net-(U1-OPAMP-)*%
X171625000Y-108100000D03*
%TO.P,R7,1*%
%TO.N,REFOUT*%
X169975000Y-108100000D03*
%TD*%
D22*
%TO.P,R10,2*%
%TO.N,Net-(U1-REFIN)*%
X173150000Y-98600000D03*
%TO.P,R10,1*%
%TO.N,+3.3V*%
X174800000Y-98600000D03*
%TD*%
D20*
%TO.P,R6,2*%
%TO.N,SIGNAL OUTPUT*%
X174800000Y-110025000D03*
%TO.P,R6,1*%
%TO.N,Net-(U1-OPAMP-)*%
X174800000Y-108200000D03*
%TD*%
D23*
%TO.P,D1,2,A_2*%
%TO.N,Net-(D1-A)*%
X172900000Y-113500000D03*
%TO.P,D1,1,K_1*%
%TO.N,GND*%
X171325000Y-113500000D03*
%TD*%
D22*
%TO.P,R14,2*%
%TO.N,Net-(R12-Pad2)*%
X164000000Y-108100000D03*
%TO.P,R14,1*%
%TO.N,SW*%
X165650000Y-108100000D03*
%TD*%
D24*
%TO.P,U1,21,GND_21*%
%TO.N,GND*%
X172900000Y-103425000D03*
D25*
%TO.P,U1,20,HPSENSE_20*%
%TO.N,Net-(U1-HPSENSE)*%
X171900000Y-101500000D03*
%TO.P,U1,19,IAOUT_19*%
%TO.N,IAOUT*%
X172400000Y-101500000D03*
%TO.P,U1,18,REFIN_18*%
%TO.N,Net-(U1-REFIN)*%
X172900000Y-101500000D03*
%TO.P,U1,17,+Vs_17*%
%TO.N,+3.3V*%
X173400000Y-101500000D03*
%TO.P,U1,16,GND_16*%
%TO.N,GND*%
X173900000Y-101500000D03*
D26*
%TO.P,U1,15,FR_15*%
%TO.N,+3.3V*%
X174825000Y-102425000D03*
%TO.P,U1,14,AC/DC_14*%
%TO.N,GND*%
X174825000Y-102925000D03*
%TO.P,U1,13,SDN_13*%
%TO.N,SDN*%
X174825000Y-103425000D03*
%TO.P,U1,12,LO+_12*%
%TO.N,LO+*%
X174825000Y-103925000D03*
%TO.P,U1,11,LO-_11*%
%TO.N,LO-*%
X174825000Y-104425000D03*
D25*
%TO.P,U1,10,OUT_10*%
%TO.N,SIGNAL OUTPUT*%
X173900000Y-105350000D03*
%TO.P,U1,9,OPAMP-_9*%
%TO.N,Net-(U1-OPAMP-)*%
X173400000Y-105350000D03*
%TO.P,U1,8,REFOUT_8*%
%TO.N,REFOUT*%
X172900000Y-105350000D03*
%TO.P,U1,7,OPAMP+_7*%
%TO.N,Net-(U1-OPAMP+)*%
X172400000Y-105350000D03*
%TO.P,U1,6,SW_6*%
%TO.N,SW*%
X171900000Y-105350000D03*
D26*
%TO.P,U1,5,RLD_5*%
%TO.N,Net-(U1-RLD)*%
X170975000Y-104425000D03*
%TO.P,U1,4,RLDFB_4*%
%TO.N,Net-(U1-RLDFB)*%
X170975000Y-103925000D03*
%TO.P,U1,3,-IN_3*%
%TO.N,Net-(U1--IN)*%
X170975000Y-103425000D03*
%TO.P,U1,2,+IN_2*%
%TO.N,Net-(U1-+IN)*%
X170975000Y-102925000D03*
%TO.P,U1,1,HPDRIVE_1*%
%TO.N,Net-(U1-HPDRIVE)*%
X170975000Y-102425000D03*
%TD*%
D27*
%TO.N,GND*%
X177700000Y-98100000D03*
X165900000Y-98600000D03*
X172900000Y-103425000D03*
X175700000Y-103000000D03*
X174700000Y-100700000D03*
X172000000Y-112400000D03*
%TO.N,Net-(U1-OPAMP+)*%
X172313854Y-106240854D03*
X172600000Y-108627000D03*
%TO.N,IAOUT*%
X172373000Y-100600000D03*
%TO.N,Net-(U1-RLD)*%
X166700000Y-107100000D03*
X167596130Y-112403870D03*
%TO.N,Net-(U1-HPSENSE)*%
X166500000Y-99900000D03*
X161400000Y-101100000D03*
%TO.N,RA*%
X163600000Y-104900000D03*
%TO.N,LA*%
X163227000Y-101400000D03*
%TO.N,SIGNAL OUTPUT*%
X161978896Y-111121104D03*
%TO.N,IAOUT*%
X163000000Y-108500000D03*
X163700000Y-111698000D03*
%TD*%
%TO.N,GND*%
D28*
X165900000Y-98600000D02*
X167500000Y-98600000D01*
X167500000Y-99350000D02*
X168250000Y-100100000D01*
X167500000Y-98600000D02*
X167500000Y-99350000D01*
D29*
X175625000Y-102925000D02*
X175700000Y-103000000D01*
X174825000Y-102925000D02*
X175625000Y-102925000D01*
D28*
X171325000Y-113075000D02*
X172000000Y-112400000D01*
X171325000Y-113500000D02*
X171325000Y-113075000D01*
%TO.N,Net-(U1-OPAMP+)*%
D29*
X172313854Y-105436146D02*
X172400000Y-105350000D01*
X172313854Y-106240854D02*
X172313854Y-105436146D01*
X171700000Y-109900000D02*
X171700000Y-109527000D01*
X171700000Y-109527000D02*
X172600000Y-108627000D01*
%TO.N,+3.3V*%
D28*
X175048000Y-102200000D02*
X174825000Y-102423000D01*
X178800000Y-102200000D02*
X175048000Y-102200000D01*
X173377000Y-100928720D02*
X173400000Y-100951720D01*
X173377000Y-100423000D02*
X173377000Y-100928720D01*
X174250000Y-99550000D02*
X173377000Y-100423000D01*
X174800000Y-99550000D02*
X174250000Y-99550000D01*
%TO.N,RL*%
D29*
X157800000Y-107687500D02*
X157200000Y-107087500D01*
X157200000Y-107087500D02*
X157200000Y-106740000D01*
X163100000Y-113000000D02*
X157800000Y-107700000D01*
X157800000Y-107700000D02*
X157800000Y-107687500D01*
X163675000Y-113000000D02*
X163100000Y-113000000D01*
%TO.N,SIGNAL OUTPUT*%
X175727000Y-109098000D02*
X175727000Y-107177000D01*
X174800000Y-110025000D02*
X175727000Y-109098000D01*
X174800000Y-111600000D02*
X174800000Y-110025000D01*
%TO.N,+3.3V*%
D28*
X177650000Y-101050000D02*
X178800000Y-102200000D01*
X176300000Y-101050000D02*
X177650000Y-101050000D01*
X174800000Y-99550000D02*
X176300000Y-101050000D01*
X174800000Y-98600000D02*
X174800000Y-99550000D01*
X164850000Y-97600000D02*
X164200000Y-98250000D01*
X173800000Y-97600000D02*
X164850000Y-97600000D01*
X174800000Y-98600000D02*
X173800000Y-97600000D01*
%TO.N,Net-(U1-REFIN)*%
D29*
X172900000Y-98850000D02*
X172900000Y-101500000D01*
X173150000Y-98600000D02*
X172900000Y-98850000D01*
X169050000Y-98600000D02*
X173150000Y-98600000D01*
X169050000Y-99250000D02*
X169900000Y-100100000D01*
X169050000Y-98600000D02*
X169050000Y-99250000D01*
%TO.N,IAOUT*%
X172373000Y-101473000D02*
X172400000Y-101500000D01*
X172373000Y-100600000D02*
X172373000Y-101473000D01*
%TO.N,Net-(U1-RLD)*%
X166700000Y-106600000D02*
X168087552Y-106600000D01*
X166700000Y-107100000D02*
X166700000Y-106600000D01*
X167000000Y-113000000D02*
X167596130Y-112403870D01*
X166600000Y-113000000D02*
X167000000Y-113000000D01*
%TO.N,IAOUT*%
X167635552Y-111698000D02*
X163700000Y-111698000D01*
X168250000Y-112312448D02*
X167635552Y-111698000D01*
X168250000Y-113400000D02*
X168250000Y-112312448D01*
%TO.N,Net-(U1-HPSENSE)*%
X166500000Y-101100000D02*
X166700000Y-101300000D01*
X166500000Y-99900000D02*
X166500000Y-101100000D01*
X161300000Y-101100000D02*
X161400000Y-101100000D01*
X159900000Y-102500000D02*
X161300000Y-101100000D01*
%TO.N,RA*%
X165700000Y-104900000D02*
X163600000Y-104900000D01*
%TO.N,LA*%
X164200000Y-101400000D02*
X163227000Y-101400000D01*
X164200000Y-101400000D02*
X164200000Y-101525000D01*
%TO.N,IAOUT*%
X162100000Y-108500000D02*
X161800000Y-108200000D01*
X163000000Y-108500000D02*
X162100000Y-108500000D01*
%TO.N,Net-(C2-Pad1)*%
X168300000Y-109900000D02*
X169875000Y-109900000D01*
X162377000Y-110602000D02*
X167598000Y-110602000D01*
X167598000Y-110602000D02*
X168300000Y-109900000D01*
X161800000Y-110025000D02*
X162377000Y-110602000D01*
%TO.N,IAOUT*%
X159900000Y-104000000D02*
X159900000Y-106300000D01*
X159900000Y-106300000D02*
X161800000Y-108200000D01*
%TO.N,Net-(R12-Pad2)*%
X161550000Y-105650000D02*
X164000000Y-108100000D01*
X161550000Y-104000000D02*
X161550000Y-105650000D01*
X161550000Y-102500000D02*
X161550000Y-104000000D01*
%TO.N,RA*%
X162700000Y-101900000D02*
X165700000Y-104900000D01*
X162700000Y-99900000D02*
X162700000Y-101900000D01*
%TO.N,LA*%
X164200000Y-101525000D02*
X165675000Y-103000000D01*
X164200000Y-99900000D02*
X164200000Y-101400000D01*
%TO.N,Net-(U1--IN)*%
X169000000Y-103425000D02*
X170975000Y-103425000D01*
X167525000Y-104900000D02*
X169000000Y-103425000D01*
%TO.N,Net-(U1-+IN)*%
X170900000Y-103000000D02*
X170975000Y-102925000D01*
X167500000Y-103000000D02*
X170900000Y-103000000D01*
%TO.N,Net-(U1-HPDRIVE)*%
X170552000Y-102002000D02*
X170975000Y-102425000D01*
X165852000Y-102002000D02*
X170552000Y-102002000D01*
X165150000Y-101300000D02*
X165852000Y-102002000D01*
%TO.N,Net-(U1-HPSENSE)*%
X166700000Y-101300000D02*
X171700000Y-101300000D01*
%TO.N,+3.3V*%
D28*
X162700000Y-98250000D02*
X164200000Y-98250000D01*
%TO.N,Net-(U1-HPSENSE)*%
D29*
X171700000Y-101300000D02*
X171900000Y-101500000D01*
%TO.N,Net-(U1-RLDFB)*%
X170300104Y-103925000D02*
X170975000Y-103925000D01*
X168327104Y-105898000D02*
X170300104Y-103925000D01*
X164752000Y-105898000D02*
X168327104Y-105898000D01*
X164050000Y-106600000D02*
X164752000Y-105898000D01*
%TO.N,Net-(U1-RLD)*%
X168087552Y-106600000D02*
X170262552Y-104425000D01*
X170262552Y-104425000D02*
X170975000Y-104425000D01*
X165600000Y-106600000D02*
X166700000Y-106600000D01*
%TO.N,SW*%
X167050000Y-108100000D02*
X165650000Y-108100000D01*
X169800000Y-105350000D02*
X171900000Y-105350000D01*
X167050000Y-108100000D02*
X169800000Y-105350000D01*
%TO.N,REFOUT*%
X172900000Y-106400000D02*
X172900000Y-105350000D01*
X170677000Y-107398000D02*
X171902000Y-107398000D01*
X171902000Y-107398000D02*
X172900000Y-106400000D01*
X169975000Y-108100000D02*
X170677000Y-107398000D01*
X168600000Y-108100000D02*
X169975000Y-108100000D01*
X166800000Y-109900000D02*
X168600000Y-108100000D01*
X166750000Y-109900000D02*
X166800000Y-109900000D01*
%TO.N,Net-(U1-OPAMP-)*%
X173400000Y-105700000D02*
X174800000Y-107100000D01*
X174800000Y-107100000D02*
X174800000Y-108200000D01*
X173400000Y-105350000D02*
X173400000Y-105700000D01*
X174700000Y-108100000D02*
X174800000Y-108200000D01*
X171625000Y-108100000D02*
X174700000Y-108100000D01*
%TO.N,Net-(D1-A)*%
X174725000Y-113500000D02*
X174800000Y-113425000D01*
X172900000Y-113500000D02*
X174725000Y-113500000D01*
%TO.N,SIGNAL OUTPUT*%
X171600000Y-111600000D02*
X169800000Y-113400000D01*
X174800000Y-111600000D02*
X171600000Y-111600000D01*
X173900000Y-105350000D02*
X175727000Y-107177000D01*
%TO.N,LO-*%
X177273000Y-110833000D02*
X178800000Y-112360000D01*
X177273000Y-106873000D02*
X177273000Y-110833000D01*
X174825000Y-104425000D02*
X177273000Y-106873000D01*
%TO.N,LO+*%
X177600000Y-108620000D02*
X178800000Y-109820000D01*
X175161146Y-103925000D02*
X177600000Y-106363854D01*
X174825000Y-103925000D02*
X175161146Y-103925000D01*
X177600000Y-106363854D02*
X177600000Y-108620000D01*
%TO.N,SDN*%
X178800000Y-107063854D02*
X175161146Y-103425000D01*
X178800000Y-107280000D02*
X178800000Y-107063854D01*
X175161146Y-103425000D02*
X174825000Y-103425000D01*
%TO.N,SIGNAL OUTPUT*%
X167521104Y-111121104D02*
X161978896Y-111121104D01*
X169800000Y-113400000D02*
X167521104Y-111121104D01*
%TO.N,GND*%
D30*
X173900000Y-101500000D02*
X174700000Y-100700000D01*
%TD*%
%TA.AperFunction,Conductor*%
%TO.N,GND*%
G36*
X173674531Y-112220185D02*
G01*
X173713029Y-112259401D01*
X173753486Y-112324992D01*
X173757289Y-112331157D01*
X173850951Y-112424819D01*
X173884436Y-112486142D01*
X173879452Y-112555834D01*
X173850951Y-112600181D01*
X173759333Y-112691799D01*
X173698010Y-112725284D01*
X173628318Y-112720300D01*
X173583971Y-112691799D01*
X173567891Y-112675719D01*
X173567887Y-112675716D01*
X173424795Y-112587455D01*
X173424789Y-112587452D01*
X173424787Y-112587451D01*
X173265185Y-112534564D01*
X173265183Y-112534563D01*
X173166681Y-112524500D01*
X173166674Y-112524500D01*
X172633326Y-112524500D01*
X172633318Y-112524500D01*
X172534816Y-112534563D01*
X172534815Y-112534564D01*
X172521857Y-112538858D01*
X172375215Y-112587450D01*
X172375204Y-112587455D01*
X172232112Y-112675716D01*
X172232107Y-112675719D01*
X172199827Y-112708000D01*
X172138503Y-112741485D01*
X172068812Y-112736499D01*
X172024467Y-112708000D01*
X171992580Y-112676114D01*
X171849577Y-112587908D01*
X171849574Y-112587907D01*
X171748787Y-112554509D01*
X171691343Y-112514736D01*
X171664520Y-112450220D01*
X171676835Y-112381444D01*
X171700107Y-112349127D01*
X171812417Y-112236818D01*
X171873740Y-112203334D01*
X171900097Y-112200500D01*
X173607492Y-112200500D01*
X173674531Y-112220185D01*
G37*
%TD.AperFunction*%
%TA.AperFunction,Conductor*%
G36*
X179915270Y-105501717D02*
G01*
X179915270Y-105501716D01*
X179954622Y-105447554D01*
X180051093Y-105258221D01*
X180057568Y-105238294D01*
X180097005Y-105180618D01*
X180161363Y-105153419D01*
X180230210Y-105165333D01*
X180281686Y-105212576D01*
X180299500Y-105276611D01*
X180299500Y-106741773D01*
X180279815Y-106808812D01*
X180227011Y-106854567D01*
X180157853Y-106864511D01*
X180094297Y-106835486D01*
X180057570Y-106780094D01*
X180051557Y-106761588D01*
X179955051Y-106572184D01*
X179955049Y-106572181D01*
X179955048Y-106572179D01*
X179830109Y-106400213D01*
X179679786Y-106249890D01*
X179507817Y-106124949D01*
X179498504Y-106120204D01*
X179447707Y-106072230D01*
X179430912Y-106004409D01*
X179453449Y-105938274D01*
X179498507Y-105899232D01*
X179507555Y-105894622D01*
X179561716Y-105855270D01*
X179561717Y-105855270D01*
X178929408Y-105222962D01*
X178992993Y-105205925D01*
X179107007Y-105140099D01*
X179200099Y-105047007D01*
X179265925Y-104932993D01*
X179282962Y-104869408D01*
X179915270Y-105501717D01*
G37*
%TD.AperFunction*%
%TA.AperFunction,Conductor*%
G36*
X177392540Y-102970185D02*
G01*
X177438295Y-103022989D01*
X177449501Y-103074500D01*
X177449501Y-103097876D01*
X177455908Y-103157483D01*
X177506202Y-103292328D01*
X177506206Y-103292335D01*
X177592452Y-103407544D01*
X177592455Y-103407547D01*
X177707664Y-103493793D01*
X177707671Y-103493797D01*
X177752618Y-103510561D01*
X177842517Y-103544091D01*
X177902127Y-103550500D01*
X177912685Y-103550499D01*
X177979723Y-103570179D01*
X178000372Y-103586818D01*
X178670591Y-104257037D01*
X178607007Y-104274075D01*
X178492993Y-104339901D01*
X178399901Y-104432993D01*
X178334075Y-104547007D01*
X178317037Y-104610591D01*
X177684728Y-103978282D01*
X177684727Y-103978282D01*
X177645380Y-104032439D01*
X177548904Y-104221782D01*
X177483242Y-104423869D01*
X177483242Y-104423872D01*
X177456504Y-104592685D01*
X177426574Y-104655820D01*
X177367263Y-104692751D01*
X177297400Y-104691753D01*
X177246350Y-104660968D01*
X175776923Y-103191542D01*
X175743438Y-103130219D01*
X175741665Y-103087673D01*
X175745531Y-103058312D01*
X175773799Y-102994416D01*
X175832124Y-102955946D01*
X175868470Y-102950500D01*
X177325501Y-102950500D01*
X177392540Y-102970185D01*
G37*
%TD.AperFunction*%
%TA.AperFunction,Conductor*%
G36*
X180263182Y-103302421D02*
G01*
X180296666Y-103363745D01*
X180299500Y-103390102D01*
X180299500Y-104203388D01*
X180279815Y-104270427D01*
X180227011Y-104316182D01*
X180157853Y-104326126D01*
X180094297Y-104297101D01*
X180057569Y-104241706D01*
X180051095Y-104221782D01*
X179954624Y-104032449D01*
X179915270Y-103978282D01*
X179915269Y-103978282D01*
X179282962Y-104610590D01*
X179265925Y-104547007D01*
X179200099Y-104432993D01*
X179107007Y-104339901D01*
X178992993Y-104274075D01*
X178929409Y-104257037D01*
X179599627Y-103586818D01*
X179660950Y-103553333D01*
X179687307Y-103550499D01*
X179697872Y-103550499D01*
X179757483Y-103544091D01*
X179892331Y-103493796D01*
X180007546Y-103407546D01*
X180076234Y-103315789D01*
X180132167Y-103273920D01*
X180201859Y-103268936D01*
X180263182Y-103302421D01*
G37*
%TD.AperFunction*%
%TA.AperFunction,Conductor*%
G36*
X173682623Y-102409122D02*
G01*
X173682812Y-102408419D01*
X173690666Y-102410523D01*
X173793590Y-102424072D01*
X173857487Y-102452337D01*
X173895959Y-102510660D01*
X173896792Y-102580525D01*
X173890297Y-102590900D01*
X173911887Y-102626621D01*
X173916094Y-102642322D01*
X173913010Y-102643148D01*
X173918849Y-102697737D01*
X173916014Y-102707653D01*
X173916582Y-102707806D01*
X173914478Y-102715658D01*
X173903373Y-102800000D01*
X173931494Y-102800000D01*
X173998533Y-102819685D01*
X174029885Y-102848534D01*
X174030652Y-102849534D01*
X174055833Y-102914708D01*
X174041781Y-102983150D01*
X174030652Y-103000466D01*
X174029885Y-103001466D01*
X173973466Y-103042681D01*
X173931494Y-103050000D01*
X173903374Y-103050000D01*
X173914478Y-103134346D01*
X173916582Y-103142197D01*
X173913313Y-103143072D01*
X173918648Y-103197512D01*
X173915650Y-103207554D01*
X173916095Y-103207673D01*
X173913991Y-103215524D01*
X173899500Y-103325598D01*
X173899500Y-103524403D01*
X173913989Y-103634468D01*
X173916094Y-103642322D01*
X173912814Y-103643200D01*
X173918581Y-103697073D01*
X173915517Y-103707522D01*
X173916095Y-103707677D01*
X173913990Y-103715529D01*
X173899500Y-103825598D01*
X173899500Y-104024403D01*
X173913989Y-104134468D01*
X173916094Y-104142322D01*
X173913046Y-104143138D01*
X173913359Y-104145695D01*
X173919138Y-104158507D01*
X173917724Y-104181353D01*
X173919194Y-104193362D01*
X173916941Y-104208404D01*
X173913991Y-104215528D01*
X173900272Y-104319735D01*
X173900107Y-104320837D01*
X173885852Y-104351575D01*
X173872146Y-104382557D01*
X173871192Y-104383185D01*
X173870712Y-104384222D01*
X173842102Y-104402374D01*
X173813822Y-104421028D01*
X173812117Y-104421398D01*
X173811715Y-104421654D01*
X173810964Y-104421649D01*
X173793658Y-104425414D01*
X173690530Y-104438989D01*
X173682678Y-104441094D01*
X173681802Y-104437824D01*
X173627853Y-104443567D01*
X173617477Y-104440518D01*
X173617323Y-104441095D01*
X173609470Y-104438990D01*
X173499401Y-104424500D01*
X173300596Y-104424500D01*
X173190531Y-104438989D01*
X173182678Y-104441094D01*
X173181802Y-104437824D01*
X173127853Y-104443567D01*
X173117477Y-104440518D01*
X173117323Y-104441095D01*
X173109470Y-104438990D01*
X172999401Y-104424500D01*
X172800596Y-104424500D01*
X172690531Y-104438989D01*
X172682678Y-104441094D01*
X172681802Y-104437824D01*
X172627853Y-104443567D01*
X172617477Y-104440518D01*
X172617323Y-104441095D01*
X172609470Y-104438990D01*
X172499401Y-104424500D01*
X172300596Y-104424500D01*
X172190531Y-104438989D01*
X172182678Y-104441094D01*
X172181865Y-104438060D01*
X172179261Y-104438378D01*
X172166493Y-104444138D01*
X172143664Y-104442725D01*
X172131637Y-104444194D01*
X172116596Y-104441941D01*
X172109472Y-104438991D01*
X172005256Y-104425270D01*
X172004162Y-104425107D01*
X171973423Y-104410852D01*
X171942442Y-104397146D01*
X171941813Y-104396192D01*
X171940777Y-104395712D01*
X171922624Y-104367102D01*
X171903971Y-104338822D01*
X171903600Y-104337117D01*
X171903345Y-104336715D01*
X171903349Y-104335964D01*
X171899585Y-104318658D01*
X171899259Y-104316182D01*
X171886009Y-104215528D01*
X171886008Y-104215526D01*
X171886008Y-104215524D01*
X171883905Y-104207674D01*
X171887207Y-104206789D01*
X171881392Y-104153075D01*
X171884501Y-104142485D01*
X171883905Y-104142326D01*
X171886008Y-104134475D01*
X171886008Y-104134474D01*
X171886009Y-104134472D01*
X171900500Y-104024401D01*
X171900499Y-103825600D01*
X171886009Y-103715528D01*
X171886008Y-103715525D01*
X171883905Y-103707674D01*
X171887207Y-103706789D01*
X171881392Y-103653075D01*
X171884501Y-103642485D01*
X171883905Y-103642326D01*
X171886008Y-103634475D01*
X171886008Y-103634474D01*
X171886009Y-103634472D01*
X171900500Y-103524401D01*
X171900499Y-103325600D01*
X171886009Y-103215528D01*
X171886008Y-103215525D01*
X171883905Y-103207674D01*
X171887207Y-103206789D01*
X171881392Y-103153075D01*
X171884501Y-103142485D01*
X171883905Y-103142326D01*
X171886008Y-103134475D01*
X171886008Y-103134474D01*
X171886009Y-103134472D01*
X171900500Y-103024401D01*
X171900499Y-102825600D01*
X171899720Y-102819685D01*
X171890854Y-102752335D01*
X171886009Y-102715528D01*
X171886008Y-102715525D01*
X171883905Y-102707674D01*
X171886982Y-102706849D01*
X171886680Y-102704393D01*
X171880862Y-102691495D01*
X171882278Y-102668611D01*
X171880805Y-102656638D01*
X171883056Y-102641598D01*
X171886009Y-102634472D01*
X171899736Y-102530201D01*
X171899892Y-102529162D01*
X171914145Y-102498427D01*
X171927852Y-102467443D01*
X171928806Y-102466813D01*
X171929287Y-102465777D01*
X171957889Y-102447629D01*
X171986176Y-102428971D01*
X171987882Y-102428599D01*
X171988284Y-102428345D01*
X171989034Y-102428349D01*
X172006337Y-102424585D01*
X172109472Y-102411009D01*
X172109474Y-102411008D01*
X172109475Y-102411008D01*
X172117326Y-102408905D01*
X172118210Y-102412207D01*
X172171925Y-102406392D01*
X172182514Y-102409501D01*
X172182674Y-102408905D01*
X172190524Y-102411008D01*
X172190526Y-102411008D01*
X172190528Y-102411009D01*
X172300599Y-102425500D01*
X172499400Y-102425499D01*
X172499401Y-102425499D01*
X172516087Y-102423302D01*
X172609472Y-102411009D01*
X172609475Y-102411007D01*
X172617326Y-102408905D01*
X172618210Y-102412207D01*
X172671925Y-102406392D01*
X172682514Y-102409501D01*
X172682674Y-102408905D01*
X172690524Y-102411008D01*
X172690526Y-102411008D01*
X172690528Y-102411009D01*
X172800599Y-102425500D01*
X172999400Y-102425499D01*
X172999401Y-102425499D01*
X173016087Y-102423302D01*
X173109472Y-102411009D01*
X173109475Y-102411007D01*
X173117326Y-102408905D01*
X173118210Y-102412207D01*
X173171925Y-102406392D01*
X173182514Y-102409501D01*
X173182674Y-102408905D01*
X173190524Y-102411008D01*
X173190526Y-102411008D01*
X173190528Y-102411009D01*
X173300599Y-102425500D01*
X173499400Y-102425499D01*
X173499401Y-102425499D01*
X173516087Y-102423302D01*
X173609472Y-102411009D01*
X173609475Y-102411007D01*
X173617326Y-102408905D01*
X173618158Y-102412012D01*
X173672583Y-102406122D01*
X173682623Y-102409122D01*
G37*
%TD.AperFunction*%
%TA.AperFunction,Conductor*%
G36*
X174568331Y-100395546D02*
G01*
X174612679Y-100424047D01*
X175288181Y-101099548D01*
X175321666Y-101160871D01*
X175324500Y-101187228D01*
X175324501Y-101325499D01*
X175304817Y-101392539D01*
X175252013Y-101438294D01*
X175200501Y-101449500D01*
X174974076Y-101449500D01*
X174945242Y-101455234D01*
X174945243Y-101455235D01*
X174829093Y-101478339D01*
X174829083Y-101478342D01*
X174749079Y-101511480D01*
X174749080Y-101511481D01*
X174696453Y-101533280D01*
X174635197Y-101539865D01*
X174616776Y-101580203D01*
X174591958Y-101602098D01*
X174588962Y-101604100D01*
X174522287Y-101624980D01*
X174520070Y-101625000D01*
X174149499Y-101625000D01*
X174082460Y-101605315D01*
X174036705Y-101552511D01*
X174025499Y-101501000D01*
X174025499Y-101499000D01*
X174045184Y-101431961D01*
X174097988Y-101386206D01*
X174149499Y-101375000D01*
X174523063Y-101375000D01*
X174525000Y-101375568D01*
X174525000Y-101100636D01*
X174524999Y-101100622D01*
X174510521Y-100990658D01*
X174510521Y-100990657D01*
X174453843Y-100853824D01*
X174363678Y-100736318D01*
X174340830Y-100718787D01*
X174299627Y-100662359D01*
X174295472Y-100592613D01*
X174328630Y-100532735D01*
X174437323Y-100424043D01*
X174498639Y-100390562D01*
X174568331Y-100395546D01*
G37*
%TD.AperFunction*%
%TA.AperFunction,Conductor*%
G36*
X180242539Y-97320185D02*
G01*
X180288294Y-97372989D01*
X180299500Y-97424500D01*
X180299500Y-101009897D01*
X180279815Y-101076936D01*
X180227011Y-101122691D01*
X180157853Y-101132635D01*
X180094297Y-101103610D01*
X180076234Y-101084208D01*
X180007547Y-100992455D01*
X180007544Y-100992452D01*
X179892335Y-100906206D01*
X179892328Y-100906202D01*
X179757482Y-100855908D01*
X179757483Y-100855908D01*
X179697883Y-100849501D01*
X179697881Y-100849500D01*
X179697873Y-100849500D01*
X179697865Y-100849500D01*
X178562230Y-100849500D01*
X178495191Y-100829815D01*
X178474549Y-100813181D01*
X178128421Y-100467052D01*
X178128414Y-100467046D01*
X178035966Y-100405275D01*
X178035966Y-100405276D01*
X178005495Y-100384916D01*
X178005492Y-100384914D01*
X178005491Y-100384914D01*
X177868917Y-100328343D01*
X177868907Y-100328340D01*
X177723920Y-100299500D01*
X177723918Y-100299500D01*
X177269641Y-100299500D01*
X177202602Y-100279815D01*
X177156847Y-100227011D01*
X177146903Y-100157853D01*
X177164103Y-100110403D01*
X177211542Y-100033492D01*
X177211547Y-100033481D01*
X177264855Y-99872606D01*
X177274999Y-99773322D01*
X177275000Y-99773309D01*
X177275000Y-99750000D01*
X176424000Y-99750000D01*
X176356961Y-99730315D01*
X176311206Y-99677511D01*
X176300000Y-99626000D01*
X176300000Y-99500000D01*
X176174000Y-99500000D01*
X176106961Y-99480315D01*
X176061206Y-99427511D01*
X176050000Y-99376000D01*
X176050000Y-99250000D01*
X176550000Y-99250000D01*
X177274999Y-99250000D01*
X177274999Y-99226692D01*
X177274998Y-99226677D01*
X177264855Y-99127392D01*
X177211547Y-98966518D01*
X177211542Y-98966507D01*
X177122575Y-98822271D01*
X177122572Y-98822267D01*
X177002732Y-98702427D01*
X177002728Y-98702424D01*
X176858492Y-98613457D01*
X176858481Y-98613452D01*
X176697606Y-98560144D01*
X176598322Y-98550000D01*
X176550000Y-98550000D01*
X176550000Y-99250000D01*
X176050000Y-99250000D01*
X176050000Y-98550000D01*
X176049999Y-98549999D01*
X176001693Y-98550000D01*
X176001675Y-98550001D01*
X175902390Y-98560144D01*
X175863503Y-98573030D01*
X175793674Y-98575431D01*
X175733633Y-98539699D01*
X175702441Y-98477178D01*
X175700500Y-98455324D01*
X175700500Y-98268386D01*
X175694086Y-98197807D01*
X175694086Y-98197804D01*
X175643478Y-98035394D01*
X175555472Y-97889815D01*
X175555470Y-97889813D01*
X175555469Y-97889811D01*
X175435188Y-97769530D01*
X175420075Y-97760394D01*
X175289606Y-97681522D01*
X175127196Y-97630914D01*
X175127194Y-97630913D01*
X175127192Y-97630913D01*
X175077778Y-97626423D01*
X175056616Y-97624500D01*
X175056613Y-97624500D01*
X174937229Y-97624500D01*
X174870190Y-97604815D01*
X174849548Y-97588181D01*
X174773548Y-97512181D01*
X174740063Y-97450858D01*
X174745047Y-97381166D01*
X174786919Y-97325233D01*
X174852383Y-97300816D01*
X174861229Y-97300500D01*
X180175500Y-97300500D01*
X180242539Y-97320185D01*
G37*
%TD.AperFunction*%
%TA.AperFunction,Conductor*%
G36*
X167443039Y-98370185D02*
G01*
X167488794Y-98422989D01*
X167500000Y-98474500D01*
X167500000Y-98726000D01*
X167480315Y-98793039D01*
X167427511Y-98838794D01*
X167376000Y-98850000D01*
X166550001Y-98850000D01*
X166550001Y-98898325D01*
X166556598Y-98962899D01*
X166543828Y-99031592D01*
X166495947Y-99082476D01*
X166433240Y-99099500D01*
X166421155Y-99099500D01*
X166266510Y-99130261D01*
X166266498Y-99130264D01*
X166120827Y-99190602D01*
X166120814Y-99190609D01*
X165989711Y-99278210D01*
X165989707Y-99278213D01*
X165878213Y-99389707D01*
X165878210Y-99389711D01*
X165790609Y-99520814D01*
X165790602Y-99520827D01*
X165730264Y-99666498D01*
X165730261Y-99666510D01*
X165699500Y-99821153D01*
X165699500Y-99978846D01*
X165730261Y-100133489D01*
X165730263Y-100133496D01*
X165756134Y-100195957D01*
X165763601Y-100265426D01*
X165732326Y-100327905D01*
X165672236Y-100363557D01*
X165602568Y-100361114D01*
X165527887Y-100336367D01*
X165522709Y-100334651D01*
X165423352Y-100324500D01*
X165423345Y-100324500D01*
X165296023Y-100324500D01*
X165228984Y-100304815D01*
X165183229Y-100252011D01*
X165172532Y-100189279D01*
X165174920Y-100162997D01*
X165175500Y-100156616D01*
X165175500Y-99643384D01*
X165169086Y-99572804D01*
X165118478Y-99410394D01*
X165030472Y-99264815D01*
X165030470Y-99264813D01*
X165030469Y-99264811D01*
X164928339Y-99162681D01*
X164894854Y-99101358D01*
X164899838Y-99031666D01*
X164928339Y-98987319D01*
X165030468Y-98885189D01*
X165030469Y-98885188D01*
X165030472Y-98885185D01*
X165118478Y-98739606D01*
X165169086Y-98577196D01*
X165175500Y-98506616D01*
X165175500Y-98474500D01*
X165195185Y-98407461D01*
X165247989Y-98361706D01*
X165299500Y-98350500D01*
X167376000Y-98350500D01*
X167443039Y-98370185D01*
G37*
%TD.AperFunction*%
%TD*%
M02*
