M48
; DRILL file KiCad 10.0.0 date 2026-04-08T12:16:32
; FORMAT={-:-/ absolute / metric / decimal}
; #@! TF.CreationDate,2026-04-08T12:16:32+01:00
; #@! TF.GenerationSoftware,Kicad,Pcbnew,10.0.0
; #@! TF.FileFunction,Plated,1,4,PTH
FMAT,2
METRIC
; #@! TA.AperFunction,Plated,PTH,ViaDrill
T1C0.300
; #@! TA.AperFunction,Plated,PTH,ComponentDrill
T2C1.000
%
G90
G05
T1
X161.4Y-101.1
X161.979Y-111.121
X163.0Y-108.5
X163.227Y-101.4
X163.6Y-104.9
X163.7Y-111.698
X165.9Y-98.6
X166.5Y-99.9
X166.7Y-107.1
X167.596Y-112.404
X172.0Y-112.4
X172.314Y-106.241
X172.373Y-100.6
X172.6Y-108.627
X172.9Y-103.425
X174.7Y-100.7
X175.7Y-103.0
X177.7Y-98.1
T2
X157.4Y-101.66
X157.4Y-104.2
X157.4Y-106.74
X157.4Y-109.28
X157.4Y-111.82
X178.8Y-102.2
X178.8Y-104.74
X178.8Y-107.28
X178.8Y-109.82
X178.8Y-112.36
M30
