%TF.GenerationSoftware,KiCad,Pcbnew,10.0.0*%
%TF.CreationDate,2026-04-03T17:57:46+01:00*%
%TF.ProjectId,AD8232_Board,41443832-3332-45f4-926f-6172642e6b69,rev?*%
%TF.SameCoordinates,Original*%
%TF.FileFunction,Legend,Bot*%
%TF.FilePolarity,Positive*%
%FSLAX46Y46*%
G04 Gerber Fmt 4.6, Leading zero omitted, Abs format (unit mm)*
G04 Created by KiCad (PCBNEW 10.0.0) date 2026-04-03 17:57:46*
%MOMM*%
%LPD*%
G01*
G04 APERTURE LIST*
%ADD10C,0.300000*%
G04 APERTURE END LIST*
D10*
X171864284Y-105527509D02*
X171149999Y-105527509D01*
X172007141Y-105956080D02*
X171507141Y-104456080D01*
X171507141Y-104456080D02*
X171007141Y-105956080D01*
X170507142Y-105956080D02*
X170507142Y-104456080D01*
X170507142Y-104456080D02*
X170149999Y-104456080D01*
X170149999Y-104456080D02*
X169935713Y-104527509D01*
X169935713Y-104527509D02*
X169792856Y-104670366D01*
X169792856Y-104670366D02*
X169721427Y-104813223D01*
X169721427Y-104813223D02*
X169649999Y-105098937D01*
X169649999Y-105098937D02*
X169649999Y-105313223D01*
X169649999Y-105313223D02*
X169721427Y-105598937D01*
X169721427Y-105598937D02*
X169792856Y-105741794D01*
X169792856Y-105741794D02*
X169935713Y-105884652D01*
X169935713Y-105884652D02*
X170149999Y-105956080D01*
X170149999Y-105956080D02*
X170507142Y-105956080D01*
X168792856Y-105098937D02*
X168935713Y-105027509D01*
X168935713Y-105027509D02*
X169007142Y-104956080D01*
X169007142Y-104956080D02*
X169078570Y-104813223D01*
X169078570Y-104813223D02*
X169078570Y-104741794D01*
X169078570Y-104741794D02*
X169007142Y-104598937D01*
X169007142Y-104598937D02*
X168935713Y-104527509D01*
X168935713Y-104527509D02*
X168792856Y-104456080D01*
X168792856Y-104456080D02*
X168507142Y-104456080D01*
X168507142Y-104456080D02*
X168364285Y-104527509D01*
X168364285Y-104527509D02*
X168292856Y-104598937D01*
X168292856Y-104598937D02*
X168221427Y-104741794D01*
X168221427Y-104741794D02*
X168221427Y-104813223D01*
X168221427Y-104813223D02*
X168292856Y-104956080D01*
X168292856Y-104956080D02*
X168364285Y-105027509D01*
X168364285Y-105027509D02*
X168507142Y-105098937D01*
X168507142Y-105098937D02*
X168792856Y-105098937D01*
X168792856Y-105098937D02*
X168935713Y-105170366D01*
X168935713Y-105170366D02*
X169007142Y-105241794D01*
X169007142Y-105241794D02*
X169078570Y-105384652D01*
X169078570Y-105384652D02*
X169078570Y-105670366D01*
X169078570Y-105670366D02*
X169007142Y-105813223D01*
X169007142Y-105813223D02*
X168935713Y-105884652D01*
X168935713Y-105884652D02*
X168792856Y-105956080D01*
X168792856Y-105956080D02*
X168507142Y-105956080D01*
X168507142Y-105956080D02*
X168364285Y-105884652D01*
X168364285Y-105884652D02*
X168292856Y-105813223D01*
X168292856Y-105813223D02*
X168221427Y-105670366D01*
X168221427Y-105670366D02*
X168221427Y-105384652D01*
X168221427Y-105384652D02*
X168292856Y-105241794D01*
X168292856Y-105241794D02*
X168364285Y-105170366D01*
X168364285Y-105170366D02*
X168507142Y-105098937D01*
X167649999Y-104598937D02*
X167578571Y-104527509D01*
X167578571Y-104527509D02*
X167435714Y-104456080D01*
X167435714Y-104456080D02*
X167078571Y-104456080D01*
X167078571Y-104456080D02*
X166935714Y-104527509D01*
X166935714Y-104527509D02*
X166864285Y-104598937D01*
X166864285Y-104598937D02*
X166792856Y-104741794D01*
X166792856Y-104741794D02*
X166792856Y-104884652D01*
X166792856Y-104884652D02*
X166864285Y-105098937D01*
X166864285Y-105098937D02*
X167721428Y-105956080D01*
X167721428Y-105956080D02*
X166792856Y-105956080D01*
X166292857Y-104456080D02*
X165364285Y-104456080D01*
X165364285Y-104456080D02*
X165864285Y-105027509D01*
X165864285Y-105027509D02*
X165650000Y-105027509D01*
X165650000Y-105027509D02*
X165507143Y-105098937D01*
X165507143Y-105098937D02*
X165435714Y-105170366D01*
X165435714Y-105170366D02*
X165364285Y-105313223D01*
X165364285Y-105313223D02*
X165364285Y-105670366D01*
X165364285Y-105670366D02*
X165435714Y-105813223D01*
X165435714Y-105813223D02*
X165507143Y-105884652D01*
X165507143Y-105884652D02*
X165650000Y-105956080D01*
X165650000Y-105956080D02*
X166078571Y-105956080D01*
X166078571Y-105956080D02*
X166221428Y-105884652D01*
X166221428Y-105884652D02*
X166292857Y-105813223D01*
X164792857Y-104598937D02*
X164721429Y-104527509D01*
X164721429Y-104527509D02*
X164578572Y-104456080D01*
X164578572Y-104456080D02*
X164221429Y-104456080D01*
X164221429Y-104456080D02*
X164078572Y-104527509D01*
X164078572Y-104527509D02*
X164007143Y-104598937D01*
X164007143Y-104598937D02*
X163935714Y-104741794D01*
X163935714Y-104741794D02*
X163935714Y-104884652D01*
X163935714Y-104884652D02*
X164007143Y-105098937D01*
X164007143Y-105098937D02*
X164864286Y-105956080D01*
X164864286Y-105956080D02*
X163935714Y-105956080D01*
X175185715Y-107585282D02*
X174685715Y-107585282D01*
X174471429Y-108370996D02*
X175185715Y-108370996D01*
X175185715Y-108370996D02*
X175185715Y-106870996D01*
X175185715Y-106870996D02*
X174471429Y-106870996D01*
X172971429Y-108228139D02*
X173042857Y-108299568D01*
X173042857Y-108299568D02*
X173257143Y-108370996D01*
X173257143Y-108370996D02*
X173400000Y-108370996D01*
X173400000Y-108370996D02*
X173614286Y-108299568D01*
X173614286Y-108299568D02*
X173757143Y-108156710D01*
X173757143Y-108156710D02*
X173828572Y-108013853D01*
X173828572Y-108013853D02*
X173900000Y-107728139D01*
X173900000Y-107728139D02*
X173900000Y-107513853D01*
X173900000Y-107513853D02*
X173828572Y-107228139D01*
X173828572Y-107228139D02*
X173757143Y-107085282D01*
X173757143Y-107085282D02*
X173614286Y-106942425D01*
X173614286Y-106942425D02*
X173400000Y-106870996D01*
X173400000Y-106870996D02*
X173257143Y-106870996D01*
X173257143Y-106870996D02*
X173042857Y-106942425D01*
X173042857Y-106942425D02*
X172971429Y-107013853D01*
X171542857Y-106942425D02*
X171685715Y-106870996D01*
X171685715Y-106870996D02*
X171900000Y-106870996D01*
X171900000Y-106870996D02*
X172114286Y-106942425D01*
X172114286Y-106942425D02*
X172257143Y-107085282D01*
X172257143Y-107085282D02*
X172328572Y-107228139D01*
X172328572Y-107228139D02*
X172400000Y-107513853D01*
X172400000Y-107513853D02*
X172400000Y-107728139D01*
X172400000Y-107728139D02*
X172328572Y-108013853D01*
X172328572Y-108013853D02*
X172257143Y-108156710D01*
X172257143Y-108156710D02*
X172114286Y-108299568D01*
X172114286Y-108299568D02*
X171900000Y-108370996D01*
X171900000Y-108370996D02*
X171757143Y-108370996D01*
X171757143Y-108370996D02*
X171542857Y-108299568D01*
X171542857Y-108299568D02*
X171471429Y-108228139D01*
X171471429Y-108228139D02*
X171471429Y-107728139D01*
X171471429Y-107728139D02*
X171757143Y-107728139D01*
X169685715Y-108370996D02*
X169685715Y-106870996D01*
X169685715Y-106870996D02*
X169185715Y-107942425D01*
X169185715Y-107942425D02*
X168685715Y-106870996D01*
X168685715Y-106870996D02*
X168685715Y-108370996D01*
X167685714Y-106870996D02*
X167400000Y-106870996D01*
X167400000Y-106870996D02*
X167257143Y-106942425D01*
X167257143Y-106942425D02*
X167114286Y-107085282D01*
X167114286Y-107085282D02*
X167042857Y-107370996D01*
X167042857Y-107370996D02*
X167042857Y-107870996D01*
X167042857Y-107870996D02*
X167114286Y-108156710D01*
X167114286Y-108156710D02*
X167257143Y-108299568D01*
X167257143Y-108299568D02*
X167400000Y-108370996D01*
X167400000Y-108370996D02*
X167685714Y-108370996D01*
X167685714Y-108370996D02*
X167828572Y-108299568D01*
X167828572Y-108299568D02*
X167971429Y-108156710D01*
X167971429Y-108156710D02*
X168042857Y-107870996D01*
X168042857Y-107870996D02*
X168042857Y-107370996D01*
X168042857Y-107370996D02*
X167971429Y-107085282D01*
X167971429Y-107085282D02*
X167828572Y-106942425D01*
X167828572Y-106942425D02*
X167685714Y-106870996D01*
X166400000Y-108370996D02*
X166400000Y-106870996D01*
X166400000Y-106870996D02*
X165542857Y-108370996D01*
X165542857Y-108370996D02*
X165542857Y-106870996D01*
X164828571Y-108370996D02*
X164828571Y-106870996D01*
X164328570Y-106870996D02*
X163471428Y-106870996D01*
X163899999Y-108370996D02*
X163899999Y-106870996D01*
X162685713Y-106870996D02*
X162399999Y-106870996D01*
X162399999Y-106870996D02*
X162257142Y-106942425D01*
X162257142Y-106942425D02*
X162114285Y-107085282D01*
X162114285Y-107085282D02*
X162042856Y-107370996D01*
X162042856Y-107370996D02*
X162042856Y-107870996D01*
X162042856Y-107870996D02*
X162114285Y-108156710D01*
X162114285Y-108156710D02*
X162257142Y-108299568D01*
X162257142Y-108299568D02*
X162399999Y-108370996D01*
X162399999Y-108370996D02*
X162685713Y-108370996D01*
X162685713Y-108370996D02*
X162828571Y-108299568D01*
X162828571Y-108299568D02*
X162971428Y-108156710D01*
X162971428Y-108156710D02*
X163042856Y-107870996D01*
X163042856Y-107870996D02*
X163042856Y-107370996D01*
X163042856Y-107370996D02*
X162971428Y-107085282D01*
X162971428Y-107085282D02*
X162828571Y-106942425D01*
X162828571Y-106942425D02*
X162685713Y-106870996D01*
X160542856Y-108370996D02*
X161042856Y-107656710D01*
X161399999Y-108370996D02*
X161399999Y-106870996D01*
X161399999Y-106870996D02*
X160828570Y-106870996D01*
X160828570Y-106870996D02*
X160685713Y-106942425D01*
X160685713Y-106942425D02*
X160614284Y-107013853D01*
X160614284Y-107013853D02*
X160542856Y-107156710D01*
X160542856Y-107156710D02*
X160542856Y-107370996D01*
X160542856Y-107370996D02*
X160614284Y-107513853D01*
X160614284Y-107513853D02*
X160685713Y-107585282D01*
X160685713Y-107585282D02*
X160828570Y-107656710D01*
X160828570Y-107656710D02*
X161399999Y-107656710D01*
X168792857Y-110785912D02*
X168792857Y-109285912D01*
X168792857Y-109857341D02*
X168650000Y-109785912D01*
X168650000Y-109785912D02*
X168364285Y-109785912D01*
X168364285Y-109785912D02*
X168221428Y-109857341D01*
X168221428Y-109857341D02*
X168150000Y-109928769D01*
X168150000Y-109928769D02*
X168078571Y-110071626D01*
X168078571Y-110071626D02*
X168078571Y-110500198D01*
X168078571Y-110500198D02*
X168150000Y-110643055D01*
X168150000Y-110643055D02*
X168221428Y-110714484D01*
X168221428Y-110714484D02*
X168364285Y-110785912D01*
X168364285Y-110785912D02*
X168650000Y-110785912D01*
X168650000Y-110785912D02*
X168792857Y-110714484D01*
X167578571Y-109785912D02*
X167221428Y-110785912D01*
X166864285Y-109785912D02*
X167221428Y-110785912D01*
X167221428Y-110785912D02*
X167364285Y-111143055D01*
X167364285Y-111143055D02*
X167435714Y-111214484D01*
X167435714Y-111214484D02*
X167578571Y-111285912D01*
X176721429Y-112415114D02*
X176221429Y-112415114D01*
X176007143Y-113200828D02*
X176721429Y-113200828D01*
X176721429Y-113200828D02*
X176721429Y-111700828D01*
X176721429Y-111700828D02*
X176007143Y-111700828D01*
X175364286Y-113200828D02*
X175364286Y-111700828D01*
X175221429Y-112629400D02*
X174792857Y-113200828D01*
X174792857Y-112200828D02*
X175364286Y-112772257D01*
X173578571Y-113129400D02*
X173721428Y-113200828D01*
X173721428Y-113200828D02*
X174007143Y-113200828D01*
X174007143Y-113200828D02*
X174150000Y-113129400D01*
X174150000Y-113129400D02*
X174221428Y-112986542D01*
X174221428Y-112986542D02*
X174221428Y-112415114D01*
X174221428Y-112415114D02*
X174150000Y-112272257D01*
X174150000Y-112272257D02*
X174007143Y-112200828D01*
X174007143Y-112200828D02*
X173721428Y-112200828D01*
X173721428Y-112200828D02*
X173578571Y-112272257D01*
X173578571Y-112272257D02*
X173507143Y-112415114D01*
X173507143Y-112415114D02*
X173507143Y-112557971D01*
X173507143Y-112557971D02*
X174221428Y-112700828D01*
X172864286Y-112200828D02*
X172864286Y-113200828D01*
X172864286Y-112343685D02*
X172792857Y-112272257D01*
X172792857Y-112272257D02*
X172650000Y-112200828D01*
X172650000Y-112200828D02*
X172435714Y-112200828D01*
X172435714Y-112200828D02*
X172292857Y-112272257D01*
X172292857Y-112272257D02*
X172221429Y-112415114D01*
X172221429Y-112415114D02*
X172221429Y-113200828D01*
X170935714Y-113129400D02*
X171078571Y-113200828D01*
X171078571Y-113200828D02*
X171364286Y-113200828D01*
X171364286Y-113200828D02*
X171507143Y-113129400D01*
X171507143Y-113129400D02*
X171578571Y-112986542D01*
X171578571Y-112986542D02*
X171578571Y-112415114D01*
X171578571Y-112415114D02*
X171507143Y-112272257D01*
X171507143Y-112272257D02*
X171364286Y-112200828D01*
X171364286Y-112200828D02*
X171078571Y-112200828D01*
X171078571Y-112200828D02*
X170935714Y-112272257D01*
X170935714Y-112272257D02*
X170864286Y-112415114D01*
X170864286Y-112415114D02*
X170864286Y-112557971D01*
X170864286Y-112557971D02*
X171578571Y-112700828D01*
X169578572Y-113200828D02*
X169578572Y-111700828D01*
X169578572Y-113129400D02*
X169721429Y-113200828D01*
X169721429Y-113200828D02*
X170007143Y-113200828D01*
X170007143Y-113200828D02*
X170150000Y-113129400D01*
X170150000Y-113129400D02*
X170221429Y-113057971D01*
X170221429Y-113057971D02*
X170292857Y-112915114D01*
X170292857Y-112915114D02*
X170292857Y-112486542D01*
X170292857Y-112486542D02*
X170221429Y-112343685D01*
X170221429Y-112343685D02*
X170150000Y-112272257D01*
X170150000Y-112272257D02*
X170007143Y-112200828D01*
X170007143Y-112200828D02*
X169721429Y-112200828D01*
X169721429Y-112200828D02*
X169578572Y-112272257D01*
X168864286Y-113200828D02*
X168864286Y-112200828D01*
X168864286Y-111700828D02*
X168935714Y-111772257D01*
X168935714Y-111772257D02*
X168864286Y-111843685D01*
X168864286Y-111843685D02*
X168792857Y-111772257D01*
X168792857Y-111772257D02*
X168864286Y-111700828D01*
X168864286Y-111700828D02*
X168864286Y-111843685D01*
X168150000Y-113200828D02*
X168150000Y-112200828D01*
X168150000Y-112486542D02*
X168078571Y-112343685D01*
X168078571Y-112343685D02*
X168007143Y-112272257D01*
X168007143Y-112272257D02*
X167864285Y-112200828D01*
X167864285Y-112200828D02*
X167721428Y-112200828D01*
X167221429Y-113200828D02*
X167221429Y-112200828D01*
X167221429Y-111700828D02*
X167292857Y-111772257D01*
X167292857Y-111772257D02*
X167221429Y-111843685D01*
X167221429Y-111843685D02*
X167150000Y-111772257D01*
X167150000Y-111772257D02*
X167221429Y-111700828D01*
X167221429Y-111700828D02*
X167221429Y-111843685D01*
X165864286Y-113129400D02*
X166007143Y-113200828D01*
X166007143Y-113200828D02*
X166292857Y-113200828D01*
X166292857Y-113200828D02*
X166435714Y-113129400D01*
X166435714Y-113129400D02*
X166507143Y-113057971D01*
X166507143Y-113057971D02*
X166578571Y-112915114D01*
X166578571Y-112915114D02*
X166578571Y-112486542D01*
X166578571Y-112486542D02*
X166507143Y-112343685D01*
X166507143Y-112343685D02*
X166435714Y-112272257D01*
X166435714Y-112272257D02*
X166292857Y-112200828D01*
X166292857Y-112200828D02*
X166007143Y-112200828D01*
X166007143Y-112200828D02*
X165864286Y-112272257D01*
X165221429Y-113200828D02*
X165221429Y-111700828D01*
X164578572Y-113200828D02*
X164578572Y-112415114D01*
X164578572Y-112415114D02*
X164650000Y-112272257D01*
X164650000Y-112272257D02*
X164792857Y-112200828D01*
X164792857Y-112200828D02*
X165007143Y-112200828D01*
X165007143Y-112200828D02*
X165150000Y-112272257D01*
X165150000Y-112272257D02*
X165221429Y-112343685D01*
X163221429Y-112200828D02*
X163221429Y-113200828D01*
X163864286Y-112200828D02*
X163864286Y-112986542D01*
X163864286Y-112986542D02*
X163792857Y-113129400D01*
X163792857Y-113129400D02*
X163650000Y-113200828D01*
X163650000Y-113200828D02*
X163435714Y-113200828D01*
X163435714Y-113200828D02*
X163292857Y-113129400D01*
X163292857Y-113129400D02*
X163221429Y-113057971D01*
X162507143Y-113200828D02*
X162507143Y-111700828D01*
X162364286Y-112629400D02*
X161935714Y-113200828D01*
X161935714Y-112200828D02*
X162507143Y-112772257D01*
X161435714Y-112200828D02*
X161150000Y-113200828D01*
X161150000Y-113200828D02*
X160864285Y-112486542D01*
X160864285Y-112486542D02*
X160578571Y-113200828D01*
X160578571Y-113200828D02*
X160292857Y-112200828D01*
X159078571Y-112200828D02*
X159078571Y-113200828D01*
X159721428Y-112200828D02*
X159721428Y-112986542D01*
X159721428Y-112986542D02*
X159649999Y-113129400D01*
X159649999Y-113129400D02*
X159507142Y-113200828D01*
X159507142Y-113200828D02*
X159292856Y-113200828D01*
X159292856Y-113200828D02*
X159149999Y-113129400D01*
X159149999Y-113129400D02*
X159078571Y-113057971D01*
M02*
