%TF.GenerationSoftware,KiCad,Pcbnew,10.0.0*%
%TF.CreationDate,2026-04-03T17:57:46+01:00*%
%TF.ProjectId,AD8232_Board,41443832-3332-45f4-926f-6172642e6b69,rev?*%
%TF.SameCoordinates,Original*%
%TF.FileFunction,Soldermask,Top*%
%TF.FilePolarity,Negative*%
%FSLAX46Y46*%
G04 Gerber Fmt 4.6, Leading zero omitted, Abs format (unit mm)*
G04 Created by KiCad (PCBNEW 10.0.0) date 2026-04-03 17:57:46*
%MOMM*%
%LPD*%
G01*
G04 APERTURE LIST*
G04 APERTURE END LIST*
G36*
X171548600Y-113025964D02*
G01*
X171591636Y-113030957D01*
X171606340Y-113037449D01*
X171627462Y-113041651D01*
X171650076Y-113056761D01*
X171666785Y-113064139D01*
X171678196Y-113075550D01*
X171698430Y-113089070D01*
X171711949Y-113109303D01*
X171723360Y-113120714D01*
X171730737Y-113137421D01*
X171745849Y-113160038D01*
X171750050Y-113181161D01*
X171756542Y-113195863D01*
X171761533Y-113238889D01*
X171762500Y-113243750D01*
X171762500Y-113756250D01*
X171761532Y-113761112D01*
X171756542Y-113804136D01*
X171750051Y-113818836D01*
X171745849Y-113839962D01*
X171730735Y-113862580D01*
X171723360Y-113879285D01*
X171711951Y-113890693D01*
X171698430Y-113910930D01*
X171678193Y-113924451D01*
X171666785Y-113935860D01*
X171650080Y-113943235D01*
X171627462Y-113958349D01*
X171606336Y-113962551D01*
X171591636Y-113969042D01*
X171548611Y-113974032D01*
X171543750Y-113975000D01*
X171106250Y-113975000D01*
X171101388Y-113974032D01*
X171058363Y-113969042D01*
X171043661Y-113962550D01*
X171022538Y-113958349D01*
X170999921Y-113943237D01*
X170983214Y-113935860D01*
X170971803Y-113924449D01*
X170951570Y-113910930D01*
X170938050Y-113890696D01*
X170926639Y-113879285D01*
X170919261Y-113862576D01*
X170904151Y-113839962D01*
X170899949Y-113818840D01*
X170893457Y-113804136D01*
X170888464Y-113761099D01*
X170887500Y-113756250D01*
X170887500Y-113243750D01*
X170888464Y-113238900D01*
X170893457Y-113195863D01*
X170899950Y-113181157D01*
X170904151Y-113160038D01*
X170919259Y-113137425D01*
X170926639Y-113120714D01*
X170938052Y-113109300D01*
X170951570Y-113089070D01*
X170971800Y-113075552D01*
X170983214Y-113064139D01*
X170999925Y-113056759D01*
X171022538Y-113041651D01*
X171043657Y-113037450D01*
X171058363Y-113030957D01*
X171101401Y-113025964D01*
X171106250Y-113025000D01*
X171543750Y-113025000D01*
X171548600Y-113025964D01*
G37*
G36*
X173123600Y-113025964D02*
G01*
X173166636Y-113030957D01*
X173181340Y-113037449D01*
X173202462Y-113041651D01*
X173225076Y-113056761D01*
X173241785Y-113064139D01*
X173253196Y-113075550D01*
X173273430Y-113089070D01*
X173286949Y-113109303D01*
X173298360Y-113120714D01*
X173305737Y-113137421D01*
X173320849Y-113160038D01*
X173325050Y-113181161D01*
X173331542Y-113195863D01*
X173336533Y-113238889D01*
X173337500Y-113243750D01*
X173337500Y-113756250D01*
X173336532Y-113761112D01*
X173331542Y-113804136D01*
X173325051Y-113818836D01*
X173320849Y-113839962D01*
X173305735Y-113862580D01*
X173298360Y-113879285D01*
X173286951Y-113890693D01*
X173273430Y-113910930D01*
X173253193Y-113924451D01*
X173241785Y-113935860D01*
X173225080Y-113943235D01*
X173202462Y-113958349D01*
X173181336Y-113962551D01*
X173166636Y-113969042D01*
X173123611Y-113974032D01*
X173118750Y-113975000D01*
X172681250Y-113975000D01*
X172676388Y-113974032D01*
X172633363Y-113969042D01*
X172618661Y-113962550D01*
X172597538Y-113958349D01*
X172574921Y-113943237D01*
X172558214Y-113935860D01*
X172546803Y-113924449D01*
X172526570Y-113910930D01*
X172513050Y-113890696D01*
X172501639Y-113879285D01*
X172494261Y-113862576D01*
X172479151Y-113839962D01*
X172474949Y-113818840D01*
X172468457Y-113804136D01*
X172463464Y-113761099D01*
X172462500Y-113756250D01*
X172462500Y-113243750D01*
X172463464Y-113238900D01*
X172468457Y-113195863D01*
X172474950Y-113181157D01*
X172479151Y-113160038D01*
X172494259Y-113137425D01*
X172501639Y-113120714D01*
X172513052Y-113109300D01*
X172526570Y-113089070D01*
X172546800Y-113075552D01*
X172558214Y-113064139D01*
X172574925Y-113056759D01*
X172597538Y-113041651D01*
X172618657Y-113037450D01*
X172633363Y-113030957D01*
X172676401Y-113025964D01*
X172681250Y-113025000D01*
X173118750Y-113025000D01*
X173123600Y-113025964D01*
G37*
G36*
X175254850Y-112913464D02*
G01*
X175305040Y-112919287D01*
X175322189Y-112926859D01*
X175345671Y-112931530D01*
X175370810Y-112948327D01*
X175390696Y-112957108D01*
X175404277Y-112970689D01*
X175426777Y-112985723D01*
X175441810Y-113008222D01*
X175455391Y-113021803D01*
X175464170Y-113041686D01*
X175480970Y-113066829D01*
X175485641Y-113090312D01*
X175493212Y-113107459D01*
X175499033Y-113157639D01*
X175500000Y-113162500D01*
X175500000Y-113687500D01*
X175499032Y-113692363D01*
X175493212Y-113742540D01*
X175485641Y-113759685D01*
X175480970Y-113783171D01*
X175464169Y-113808315D01*
X175455391Y-113828196D01*
X175441812Y-113841774D01*
X175426777Y-113864277D01*
X175404274Y-113879312D01*
X175390696Y-113892891D01*
X175370815Y-113901669D01*
X175345671Y-113918470D01*
X175322185Y-113923141D01*
X175305040Y-113930712D01*
X175254861Y-113936532D01*
X175250000Y-113937500D01*
X174350000Y-113937500D01*
X174345138Y-113936532D01*
X174294959Y-113930712D01*
X174277812Y-113923141D01*
X174254329Y-113918470D01*
X174229186Y-113901670D01*
X174209303Y-113892891D01*
X174195722Y-113879310D01*
X174173223Y-113864277D01*
X174158189Y-113841777D01*
X174144608Y-113828196D01*
X174135827Y-113808310D01*
X174119030Y-113783171D01*
X174114359Y-113759689D01*
X174106787Y-113742540D01*
X174100964Y-113692349D01*
X174100000Y-113687500D01*
X174100000Y-113162500D01*
X174100964Y-113157650D01*
X174106787Y-113107459D01*
X174114359Y-113090308D01*
X174119030Y-113066829D01*
X174135826Y-113041691D01*
X174144608Y-113021803D01*
X174158191Y-113008219D01*
X174173223Y-112985723D01*
X174195719Y-112970691D01*
X174209303Y-112957108D01*
X174229191Y-112948326D01*
X174254329Y-112931530D01*
X174277808Y-112926859D01*
X174294959Y-112919287D01*
X174345151Y-112913464D01*
X174350000Y-112912500D01*
X175250000Y-112912500D01*
X175254850Y-112913464D01*
G37*
G36*
X163992350Y-112125964D02*
G01*
X164042540Y-112131787D01*
X164059689Y-112139359D01*
X164083171Y-112144030D01*
X164108310Y-112160827D01*
X164128196Y-112169608D01*
X164141777Y-112183189D01*
X164164277Y-112198223D01*
X164179310Y-112220722D01*
X164192891Y-112234303D01*
X164201670Y-112254186D01*
X164218470Y-112279329D01*
X164223141Y-112302812D01*
X164230712Y-112319959D01*
X164236533Y-112370139D01*
X164237500Y-112375000D01*
X164237500Y-113625000D01*
X164236532Y-113629863D01*
X164230712Y-113680040D01*
X164223141Y-113697185D01*
X164218470Y-113720671D01*
X164201669Y-113745815D01*
X164192891Y-113765696D01*
X164179312Y-113779274D01*
X164164277Y-113801777D01*
X164141774Y-113816812D01*
X164128196Y-113830391D01*
X164108315Y-113839169D01*
X164083171Y-113855970D01*
X164059685Y-113860641D01*
X164042540Y-113868212D01*
X163992361Y-113874032D01*
X163987500Y-113875000D01*
X163362500Y-113875000D01*
X163357638Y-113874032D01*
X163307459Y-113868212D01*
X163290312Y-113860641D01*
X163266829Y-113855970D01*
X163241686Y-113839170D01*
X163221803Y-113830391D01*
X163208222Y-113816810D01*
X163185723Y-113801777D01*
X163170689Y-113779277D01*
X163157108Y-113765696D01*
X163148327Y-113745810D01*
X163131530Y-113720671D01*
X163126859Y-113697189D01*
X163119287Y-113680040D01*
X163113464Y-113629849D01*
X163112500Y-113625000D01*
X163112500Y-112375000D01*
X163113464Y-112370150D01*
X163119287Y-112319959D01*
X163126859Y-112302808D01*
X163131530Y-112279329D01*
X163148326Y-112254191D01*
X163157108Y-112234303D01*
X163170691Y-112220719D01*
X163185723Y-112198223D01*
X163208219Y-112183191D01*
X163221803Y-112169608D01*
X163241691Y-112160826D01*
X163266829Y-112144030D01*
X163290308Y-112139359D01*
X163307459Y-112131787D01*
X163357651Y-112125964D01*
X163362500Y-112125000D01*
X163987500Y-112125000D01*
X163992350Y-112125964D01*
G37*
G36*
X166917350Y-112125964D02*
G01*
X166967540Y-112131787D01*
X166984689Y-112139359D01*
X167008171Y-112144030D01*
X167033310Y-112160827D01*
X167053196Y-112169608D01*
X167066777Y-112183189D01*
X167089277Y-112198223D01*
X167104310Y-112220722D01*
X167117891Y-112234303D01*
X167126670Y-112254186D01*
X167143470Y-112279329D01*
X167148141Y-112302812D01*
X167155712Y-112319959D01*
X167161533Y-112370139D01*
X167162500Y-112375000D01*
X167162500Y-113625000D01*
X167161532Y-113629863D01*
X167155712Y-113680040D01*
X167148141Y-113697185D01*
X167143470Y-113720671D01*
X167126669Y-113745815D01*
X167117891Y-113765696D01*
X167104312Y-113779274D01*
X167089277Y-113801777D01*
X167066774Y-113816812D01*
X167053196Y-113830391D01*
X167033315Y-113839169D01*
X167008171Y-113855970D01*
X166984685Y-113860641D01*
X166967540Y-113868212D01*
X166917361Y-113874032D01*
X166912500Y-113875000D01*
X166287500Y-113875000D01*
X166282638Y-113874032D01*
X166232459Y-113868212D01*
X166215312Y-113860641D01*
X166191829Y-113855970D01*
X166166686Y-113839170D01*
X166146803Y-113830391D01*
X166133222Y-113816810D01*
X166110723Y-113801777D01*
X166095689Y-113779277D01*
X166082108Y-113765696D01*
X166073327Y-113745810D01*
X166056530Y-113720671D01*
X166051859Y-113697189D01*
X166044287Y-113680040D01*
X166038464Y-113629849D01*
X166037500Y-113625000D01*
X166037500Y-112375000D01*
X166038464Y-112370150D01*
X166044287Y-112319959D01*
X166051859Y-112302808D01*
X166056530Y-112279329D01*
X166073326Y-112254191D01*
X166082108Y-112234303D01*
X166095691Y-112220719D01*
X166110723Y-112198223D01*
X166133219Y-112183191D01*
X166146803Y-112169608D01*
X166166691Y-112160826D01*
X166191829Y-112144030D01*
X166215308Y-112139359D01*
X166232459Y-112131787D01*
X166282651Y-112125964D01*
X166287500Y-112125000D01*
X166912500Y-112125000D01*
X166917350Y-112125964D01*
G37*
G36*
X168479850Y-112925964D02*
G01*
X168524317Y-112931123D01*
X168539510Y-112937831D01*
X168561104Y-112942127D01*
X168584222Y-112957574D01*
X168601567Y-112965233D01*
X168613412Y-112977078D01*
X168634099Y-112990901D01*
X168647921Y-113011587D01*
X168659766Y-113023432D01*
X168667423Y-113040774D01*
X168682873Y-113063896D01*
X168687168Y-113085491D01*
X168693876Y-113100682D01*
X168699033Y-113145139D01*
X168700000Y-113150000D01*
X168700000Y-113650000D01*
X168699032Y-113654862D01*
X168693876Y-113699317D01*
X168687168Y-113714506D01*
X168682873Y-113736104D01*
X168667422Y-113759227D01*
X168659766Y-113776567D01*
X168647923Y-113788409D01*
X168634099Y-113809099D01*
X168613409Y-113822923D01*
X168601567Y-113834766D01*
X168584227Y-113842422D01*
X168561104Y-113857873D01*
X168539506Y-113862168D01*
X168524317Y-113868876D01*
X168479861Y-113874032D01*
X168475000Y-113875000D01*
X168025000Y-113875000D01*
X168020138Y-113874033D01*
X167975682Y-113868876D01*
X167960491Y-113862168D01*
X167938896Y-113857873D01*
X167915774Y-113842423D01*
X167898432Y-113834766D01*
X167886587Y-113822921D01*
X167865901Y-113809099D01*
X167852078Y-113788412D01*
X167840233Y-113776567D01*
X167832574Y-113759222D01*
X167817127Y-113736104D01*
X167812831Y-113714510D01*
X167806123Y-113699317D01*
X167800964Y-113654849D01*
X167800000Y-113650000D01*
X167800000Y-113150000D01*
X167800964Y-113145150D01*
X167806123Y-113100682D01*
X167812832Y-113085487D01*
X167817127Y-113063896D01*
X167832573Y-113040779D01*
X167840233Y-113023432D01*
X167852080Y-113011584D01*
X167865901Y-112990901D01*
X167886584Y-112977080D01*
X167898432Y-112965233D01*
X167915779Y-112957573D01*
X167938896Y-112942127D01*
X167960487Y-112937832D01*
X167975682Y-112931123D01*
X168020151Y-112925964D01*
X168025000Y-112925000D01*
X168475000Y-112925000D01*
X168479850Y-112925964D01*
G37*
G36*
X170029850Y-112925964D02*
G01*
X170074317Y-112931123D01*
X170089510Y-112937831D01*
X170111104Y-112942127D01*
X170134222Y-112957574D01*
X170151567Y-112965233D01*
X170163412Y-112977078D01*
X170184099Y-112990901D01*
X170197921Y-113011587D01*
X170209766Y-113023432D01*
X170217423Y-113040774D01*
X170232873Y-113063896D01*
X170237168Y-113085491D01*
X170243876Y-113100682D01*
X170249033Y-113145139D01*
X170250000Y-113150000D01*
X170250000Y-113650000D01*
X170249032Y-113654862D01*
X170243876Y-113699317D01*
X170237168Y-113714506D01*
X170232873Y-113736104D01*
X170217422Y-113759227D01*
X170209766Y-113776567D01*
X170197923Y-113788409D01*
X170184099Y-113809099D01*
X170163409Y-113822923D01*
X170151567Y-113834766D01*
X170134227Y-113842422D01*
X170111104Y-113857873D01*
X170089506Y-113862168D01*
X170074317Y-113868876D01*
X170029861Y-113874032D01*
X170025000Y-113875000D01*
X169575000Y-113875000D01*
X169570138Y-113874033D01*
X169525682Y-113868876D01*
X169510491Y-113862168D01*
X169488896Y-113857873D01*
X169465774Y-113842423D01*
X169448432Y-113834766D01*
X169436587Y-113822921D01*
X169415901Y-113809099D01*
X169402078Y-113788412D01*
X169390233Y-113776567D01*
X169382574Y-113759222D01*
X169367127Y-113736104D01*
X169362831Y-113714510D01*
X169356123Y-113699317D01*
X169350964Y-113654849D01*
X169350000Y-113650000D01*
X169350000Y-113150000D01*
X169350964Y-113145150D01*
X169356123Y-113100682D01*
X169362832Y-113085487D01*
X169367127Y-113063896D01*
X169382573Y-113040779D01*
X169390233Y-113023432D01*
X169402080Y-113011584D01*
X169415901Y-112990901D01*
X169436584Y-112977080D01*
X169448432Y-112965233D01*
X169465779Y-112957573D01*
X169488896Y-112942127D01*
X169510487Y-112937832D01*
X169525682Y-112931123D01*
X169570151Y-112925964D01*
X169575000Y-112925000D01*
X170025000Y-112925000D01*
X170029850Y-112925964D01*
G37*
G36*
X179046742Y-111546601D02*
G01*
X179200687Y-111610367D01*
X179339234Y-111702941D01*
X179457059Y-111820766D01*
X179549633Y-111959313D01*
X179613399Y-112113258D01*
X179645907Y-112276685D01*
X179645907Y-112443315D01*
X179613399Y-112606742D01*
X179549633Y-112760687D01*
X179457059Y-112899234D01*
X179339234Y-113017059D01*
X179200687Y-113109633D01*
X179046742Y-113173399D01*
X178883315Y-113205907D01*
X178716685Y-113205907D01*
X178553258Y-113173399D01*
X178399313Y-113109633D01*
X178260766Y-113017059D01*
X178142941Y-112899234D01*
X178050367Y-112760687D01*
X177986601Y-112606742D01*
X177954093Y-112443315D01*
X177954093Y-112276685D01*
X177986601Y-112113258D01*
X178050367Y-111959313D01*
X178142941Y-111820766D01*
X178260766Y-111702941D01*
X178399313Y-111610367D01*
X178553258Y-111546601D01*
X178716685Y-111514093D01*
X178883315Y-111514093D01*
X179046742Y-111546601D01*
G37*
G36*
X157646742Y-111006601D02*
G01*
X157800687Y-111070367D01*
X157939234Y-111162941D01*
X158057059Y-111280766D01*
X158149633Y-111419313D01*
X158213399Y-111573258D01*
X158245907Y-111736685D01*
X158245907Y-111903315D01*
X158213399Y-112066742D01*
X158149633Y-112220687D01*
X158057059Y-112359234D01*
X157939234Y-112477059D01*
X157800687Y-112569633D01*
X157646742Y-112633399D01*
X157483315Y-112665907D01*
X157316685Y-112665907D01*
X157153258Y-112633399D01*
X156999313Y-112569633D01*
X156860766Y-112477059D01*
X156742941Y-112359234D01*
X156650367Y-112220687D01*
X156586601Y-112066742D01*
X156554093Y-111903315D01*
X156554093Y-111736685D01*
X156586601Y-111573258D01*
X156650367Y-111419313D01*
X156742941Y-111280766D01*
X156860766Y-111162941D01*
X156999313Y-111070367D01*
X157153258Y-111006601D01*
X157316685Y-110974093D01*
X157483315Y-110974093D01*
X157646742Y-111006601D01*
G37*
G36*
X175254850Y-111088464D02*
G01*
X175305040Y-111094287D01*
X175322189Y-111101859D01*
X175345671Y-111106530D01*
X175370810Y-111123327D01*
X175390696Y-111132108D01*
X175404277Y-111145689D01*
X175426777Y-111160723D01*
X175441810Y-111183222D01*
X175455391Y-111196803D01*
X175464170Y-111216686D01*
X175480970Y-111241829D01*
X175485641Y-111265312D01*
X175493212Y-111282459D01*
X175499033Y-111332639D01*
X175500000Y-111337500D01*
X175500000Y-111862500D01*
X175499032Y-111867363D01*
X175493212Y-111917540D01*
X175485641Y-111934685D01*
X175480970Y-111958171D01*
X175464169Y-111983315D01*
X175455391Y-112003196D01*
X175441812Y-112016774D01*
X175426777Y-112039277D01*
X175404274Y-112054312D01*
X175390696Y-112067891D01*
X175370815Y-112076669D01*
X175345671Y-112093470D01*
X175322185Y-112098141D01*
X175305040Y-112105712D01*
X175254861Y-112111532D01*
X175250000Y-112112500D01*
X174350000Y-112112500D01*
X174345138Y-112111532D01*
X174294959Y-112105712D01*
X174277812Y-112098141D01*
X174254329Y-112093470D01*
X174229186Y-112076670D01*
X174209303Y-112067891D01*
X174195722Y-112054310D01*
X174173223Y-112039277D01*
X174158189Y-112016777D01*
X174144608Y-112003196D01*
X174135827Y-111983310D01*
X174119030Y-111958171D01*
X174114359Y-111934689D01*
X174106787Y-111917540D01*
X174100964Y-111867349D01*
X174100000Y-111862500D01*
X174100000Y-111337500D01*
X174100964Y-111332650D01*
X174106787Y-111282459D01*
X174114359Y-111265308D01*
X174119030Y-111241829D01*
X174135826Y-111216691D01*
X174144608Y-111196803D01*
X174158191Y-111183219D01*
X174173223Y-111160723D01*
X174195719Y-111145691D01*
X174209303Y-111132108D01*
X174229191Y-111123326D01*
X174254329Y-111106530D01*
X174277808Y-111101859D01*
X174294959Y-111094287D01*
X174345151Y-111088464D01*
X174350000Y-111087500D01*
X175250000Y-111087500D01*
X175254850Y-111088464D01*
G37*
G36*
X179046742Y-109006601D02*
G01*
X179200687Y-109070367D01*
X179339234Y-109162941D01*
X179457059Y-109280766D01*
X179549633Y-109419313D01*
X179613399Y-109573258D01*
X179645907Y-109736685D01*
X179645907Y-109903315D01*
X179613399Y-110066742D01*
X179549633Y-110220687D01*
X179457059Y-110359234D01*
X179339234Y-110477059D01*
X179200687Y-110569633D01*
X179046742Y-110633399D01*
X178883315Y-110665907D01*
X178716685Y-110665907D01*
X178553258Y-110633399D01*
X178399313Y-110569633D01*
X178260766Y-110477059D01*
X178142941Y-110359234D01*
X178050367Y-110220687D01*
X177986601Y-110066742D01*
X177954093Y-109903315D01*
X177954093Y-109736685D01*
X177986601Y-109573258D01*
X178050367Y-109419313D01*
X178142941Y-109280766D01*
X178260766Y-109162941D01*
X178399313Y-109070367D01*
X178553258Y-109006601D01*
X178716685Y-108974093D01*
X178883315Y-108974093D01*
X179046742Y-109006601D01*
G37*
G36*
X170142350Y-109200964D02*
G01*
X170192540Y-109206787D01*
X170209689Y-109214359D01*
X170233171Y-109219030D01*
X170258310Y-109235827D01*
X170278196Y-109244608D01*
X170291777Y-109258189D01*
X170314277Y-109273223D01*
X170329310Y-109295722D01*
X170342891Y-109309303D01*
X170351670Y-109329186D01*
X170368470Y-109354329D01*
X170373141Y-109377812D01*
X170380712Y-109394959D01*
X170386533Y-109445139D01*
X170387500Y-109450000D01*
X170387500Y-110350000D01*
X170386532Y-110354863D01*
X170380712Y-110405040D01*
X170373141Y-110422185D01*
X170368470Y-110445671D01*
X170351669Y-110470815D01*
X170342891Y-110490696D01*
X170329312Y-110504274D01*
X170314277Y-110526777D01*
X170291774Y-110541812D01*
X170278196Y-110555391D01*
X170258315Y-110564169D01*
X170233171Y-110580970D01*
X170209685Y-110585641D01*
X170192540Y-110593212D01*
X170142361Y-110599032D01*
X170137500Y-110600000D01*
X169612500Y-110600000D01*
X169607638Y-110599032D01*
X169557459Y-110593212D01*
X169540312Y-110585641D01*
X169516829Y-110580970D01*
X169491686Y-110564170D01*
X169471803Y-110555391D01*
X169458222Y-110541810D01*
X169435723Y-110526777D01*
X169420689Y-110504277D01*
X169407108Y-110490696D01*
X169398327Y-110470810D01*
X169381530Y-110445671D01*
X169376859Y-110422189D01*
X169369287Y-110405040D01*
X169363464Y-110354849D01*
X169362500Y-110350000D01*
X169362500Y-109450000D01*
X169363464Y-109445150D01*
X169369287Y-109394959D01*
X169376859Y-109377808D01*
X169381530Y-109354329D01*
X169398326Y-109329191D01*
X169407108Y-109309303D01*
X169420691Y-109295719D01*
X169435723Y-109273223D01*
X169458219Y-109258191D01*
X169471803Y-109244608D01*
X169491691Y-109235826D01*
X169516829Y-109219030D01*
X169540308Y-109214359D01*
X169557459Y-109206787D01*
X169607651Y-109200964D01*
X169612500Y-109200000D01*
X170137500Y-109200000D01*
X170142350Y-109200964D01*
G37*
G36*
X171967350Y-109200964D02*
G01*
X172017540Y-109206787D01*
X172034689Y-109214359D01*
X172058171Y-109219030D01*
X172083310Y-109235827D01*
X172103196Y-109244608D01*
X172116777Y-109258189D01*
X172139277Y-109273223D01*
X172154310Y-109295722D01*
X172167891Y-109309303D01*
X172176670Y-109329186D01*
X172193470Y-109354329D01*
X172198141Y-109377812D01*
X172205712Y-109394959D01*
X172211533Y-109445139D01*
X172212500Y-109450000D01*
X172212500Y-110350000D01*
X172211532Y-110354863D01*
X172205712Y-110405040D01*
X172198141Y-110422185D01*
X172193470Y-110445671D01*
X172176669Y-110470815D01*
X172167891Y-110490696D01*
X172154312Y-110504274D01*
X172139277Y-110526777D01*
X172116774Y-110541812D01*
X172103196Y-110555391D01*
X172083315Y-110564169D01*
X172058171Y-110580970D01*
X172034685Y-110585641D01*
X172017540Y-110593212D01*
X171967361Y-110599032D01*
X171962500Y-110600000D01*
X171437500Y-110600000D01*
X171432638Y-110599032D01*
X171382459Y-110593212D01*
X171365312Y-110585641D01*
X171341829Y-110580970D01*
X171316686Y-110564170D01*
X171296803Y-110555391D01*
X171283222Y-110541810D01*
X171260723Y-110526777D01*
X171245689Y-110504277D01*
X171232108Y-110490696D01*
X171223327Y-110470810D01*
X171206530Y-110445671D01*
X171201859Y-110422189D01*
X171194287Y-110405040D01*
X171188464Y-110354849D01*
X171187500Y-110350000D01*
X171187500Y-109450000D01*
X171188464Y-109445150D01*
X171194287Y-109394959D01*
X171201859Y-109377808D01*
X171206530Y-109354329D01*
X171223326Y-109329191D01*
X171232108Y-109309303D01*
X171245691Y-109295719D01*
X171260723Y-109273223D01*
X171283219Y-109258191D01*
X171296803Y-109244608D01*
X171316691Y-109235826D01*
X171341829Y-109219030D01*
X171365308Y-109214359D01*
X171382459Y-109206787D01*
X171432651Y-109200964D01*
X171437500Y-109200000D01*
X171962500Y-109200000D01*
X171967350Y-109200964D01*
G37*
G36*
X162254850Y-109513464D02*
G01*
X162305040Y-109519287D01*
X162322189Y-109526859D01*
X162345671Y-109531530D01*
X162370810Y-109548327D01*
X162390696Y-109557108D01*
X162404277Y-109570689D01*
X162426777Y-109585723D01*
X162441810Y-109608222D01*
X162455391Y-109621803D01*
X162464170Y-109641686D01*
X162480970Y-109666829D01*
X162485641Y-109690312D01*
X162493212Y-109707459D01*
X162499033Y-109757639D01*
X162500000Y-109762500D01*
X162500000Y-110287500D01*
X162499032Y-110292363D01*
X162493212Y-110342540D01*
X162485641Y-110359685D01*
X162480970Y-110383171D01*
X162464169Y-110408315D01*
X162455391Y-110428196D01*
X162441812Y-110441774D01*
X162426777Y-110464277D01*
X162404274Y-110479312D01*
X162390696Y-110492891D01*
X162370815Y-110501669D01*
X162345671Y-110518470D01*
X162322185Y-110523141D01*
X162305040Y-110530712D01*
X162254861Y-110536532D01*
X162250000Y-110537500D01*
X161350000Y-110537500D01*
X161345138Y-110536532D01*
X161294959Y-110530712D01*
X161277812Y-110523141D01*
X161254329Y-110518470D01*
X161229186Y-110501670D01*
X161209303Y-110492891D01*
X161195722Y-110479310D01*
X161173223Y-110464277D01*
X161158189Y-110441777D01*
X161144608Y-110428196D01*
X161135827Y-110408310D01*
X161119030Y-110383171D01*
X161114359Y-110359689D01*
X161106787Y-110342540D01*
X161100964Y-110292349D01*
X161100000Y-110287500D01*
X161100000Y-109762500D01*
X161100964Y-109757650D01*
X161106787Y-109707459D01*
X161114359Y-109690308D01*
X161119030Y-109666829D01*
X161135826Y-109641691D01*
X161144608Y-109621803D01*
X161158191Y-109608219D01*
X161173223Y-109585723D01*
X161195719Y-109570691D01*
X161209303Y-109557108D01*
X161229191Y-109548326D01*
X161254329Y-109531530D01*
X161277808Y-109526859D01*
X161294959Y-109519287D01*
X161345151Y-109513464D01*
X161350000Y-109512500D01*
X162250000Y-109512500D01*
X162254850Y-109513464D01*
G37*
G36*
X175254850Y-109513464D02*
G01*
X175305040Y-109519287D01*
X175322189Y-109526859D01*
X175345671Y-109531530D01*
X175370810Y-109548327D01*
X175390696Y-109557108D01*
X175404277Y-109570689D01*
X175426777Y-109585723D01*
X175441810Y-109608222D01*
X175455391Y-109621803D01*
X175464170Y-109641686D01*
X175480970Y-109666829D01*
X175485641Y-109690312D01*
X175493212Y-109707459D01*
X175499033Y-109757639D01*
X175500000Y-109762500D01*
X175500000Y-110287500D01*
X175499032Y-110292363D01*
X175493212Y-110342540D01*
X175485641Y-110359685D01*
X175480970Y-110383171D01*
X175464169Y-110408315D01*
X175455391Y-110428196D01*
X175441812Y-110441774D01*
X175426777Y-110464277D01*
X175404274Y-110479312D01*
X175390696Y-110492891D01*
X175370815Y-110501669D01*
X175345671Y-110518470D01*
X175322185Y-110523141D01*
X175305040Y-110530712D01*
X175254861Y-110536532D01*
X175250000Y-110537500D01*
X174350000Y-110537500D01*
X174345138Y-110536532D01*
X174294959Y-110530712D01*
X174277812Y-110523141D01*
X174254329Y-110518470D01*
X174229186Y-110501670D01*
X174209303Y-110492891D01*
X174195722Y-110479310D01*
X174173223Y-110464277D01*
X174158189Y-110441777D01*
X174144608Y-110428196D01*
X174135827Y-110408310D01*
X174119030Y-110383171D01*
X174114359Y-110359689D01*
X174106787Y-110342540D01*
X174100964Y-110292349D01*
X174100000Y-110287500D01*
X174100000Y-109762500D01*
X174100964Y-109757650D01*
X174106787Y-109707459D01*
X174114359Y-109690308D01*
X174119030Y-109666829D01*
X174135826Y-109641691D01*
X174144608Y-109621803D01*
X174158191Y-109608219D01*
X174173223Y-109585723D01*
X174195719Y-109570691D01*
X174209303Y-109557108D01*
X174229191Y-109548326D01*
X174254329Y-109531530D01*
X174277808Y-109526859D01*
X174294959Y-109519287D01*
X174345151Y-109513464D01*
X174350000Y-109512500D01*
X175250000Y-109512500D01*
X175254850Y-109513464D01*
G37*
G36*
X166979850Y-109425964D02*
G01*
X167024317Y-109431123D01*
X167039510Y-109437831D01*
X167061104Y-109442127D01*
X167084222Y-109457574D01*
X167101567Y-109465233D01*
X167113412Y-109477078D01*
X167134099Y-109490901D01*
X167147921Y-109511587D01*
X167159766Y-109523432D01*
X167167423Y-109540774D01*
X167182873Y-109563896D01*
X167187168Y-109585491D01*
X167193876Y-109600682D01*
X167199033Y-109645139D01*
X167200000Y-109650000D01*
X167200000Y-110150000D01*
X167199032Y-110154862D01*
X167193876Y-110199317D01*
X167187168Y-110214506D01*
X167182873Y-110236104D01*
X167167422Y-110259227D01*
X167159766Y-110276567D01*
X167147923Y-110288409D01*
X167134099Y-110309099D01*
X167113409Y-110322923D01*
X167101567Y-110334766D01*
X167084227Y-110342422D01*
X167061104Y-110357873D01*
X167039506Y-110362168D01*
X167024317Y-110368876D01*
X166979861Y-110374032D01*
X166975000Y-110375000D01*
X166525000Y-110375000D01*
X166520138Y-110374033D01*
X166475682Y-110368876D01*
X166460491Y-110362168D01*
X166438896Y-110357873D01*
X166415774Y-110342423D01*
X166398432Y-110334766D01*
X166386587Y-110322921D01*
X166365901Y-110309099D01*
X166352078Y-110288412D01*
X166340233Y-110276567D01*
X166332574Y-110259222D01*
X166317127Y-110236104D01*
X166312831Y-110214510D01*
X166306123Y-110199317D01*
X166300964Y-110154849D01*
X166300000Y-110150000D01*
X166300000Y-109650000D01*
X166300964Y-109645150D01*
X166306123Y-109600682D01*
X166312832Y-109585487D01*
X166317127Y-109563896D01*
X166332573Y-109540779D01*
X166340233Y-109523432D01*
X166352080Y-109511584D01*
X166365901Y-109490901D01*
X166386584Y-109477080D01*
X166398432Y-109465233D01*
X166415779Y-109457573D01*
X166438896Y-109442127D01*
X166460487Y-109437832D01*
X166475682Y-109431123D01*
X166520151Y-109425964D01*
X166525000Y-109425000D01*
X166975000Y-109425000D01*
X166979850Y-109425964D01*
G37*
G36*
X168529850Y-109425964D02*
G01*
X168574317Y-109431123D01*
X168589510Y-109437831D01*
X168611104Y-109442127D01*
X168634222Y-109457574D01*
X168651567Y-109465233D01*
X168663412Y-109477078D01*
X168684099Y-109490901D01*
X168697921Y-109511587D01*
X168709766Y-109523432D01*
X168717423Y-109540774D01*
X168732873Y-109563896D01*
X168737168Y-109585491D01*
X168743876Y-109600682D01*
X168749033Y-109645139D01*
X168750000Y-109650000D01*
X168750000Y-110150000D01*
X168749032Y-110154862D01*
X168743876Y-110199317D01*
X168737168Y-110214506D01*
X168732873Y-110236104D01*
X168717422Y-110259227D01*
X168709766Y-110276567D01*
X168697923Y-110288409D01*
X168684099Y-110309099D01*
X168663409Y-110322923D01*
X168651567Y-110334766D01*
X168634227Y-110342422D01*
X168611104Y-110357873D01*
X168589506Y-110362168D01*
X168574317Y-110368876D01*
X168529861Y-110374032D01*
X168525000Y-110375000D01*
X168075000Y-110375000D01*
X168070138Y-110374033D01*
X168025682Y-110368876D01*
X168010491Y-110362168D01*
X167988896Y-110357873D01*
X167965774Y-110342423D01*
X167948432Y-110334766D01*
X167936587Y-110322921D01*
X167915901Y-110309099D01*
X167902078Y-110288412D01*
X167890233Y-110276567D01*
X167882574Y-110259222D01*
X167867127Y-110236104D01*
X167862831Y-110214510D01*
X167856123Y-110199317D01*
X167850964Y-110154849D01*
X167850000Y-110150000D01*
X167850000Y-109650000D01*
X167850964Y-109645150D01*
X167856123Y-109600682D01*
X167862832Y-109585487D01*
X167867127Y-109563896D01*
X167882573Y-109540779D01*
X167890233Y-109523432D01*
X167902080Y-109511584D01*
X167915901Y-109490901D01*
X167936584Y-109477080D01*
X167948432Y-109465233D01*
X167965779Y-109457573D01*
X167988896Y-109442127D01*
X168010487Y-109437832D01*
X168025682Y-109431123D01*
X168070151Y-109425964D01*
X168075000Y-109425000D01*
X168525000Y-109425000D01*
X168529850Y-109425964D01*
G37*
G36*
X157646742Y-108466601D02*
G01*
X157800687Y-108530367D01*
X157939234Y-108622941D01*
X158057059Y-108740766D01*
X158149633Y-108879313D01*
X158213399Y-109033258D01*
X158245907Y-109196685D01*
X158245907Y-109363315D01*
X158213399Y-109526742D01*
X158149633Y-109680687D01*
X158057059Y-109819234D01*
X157939234Y-109937059D01*
X157800687Y-110029633D01*
X157646742Y-110093399D01*
X157483315Y-110125907D01*
X157316685Y-110125907D01*
X157153258Y-110093399D01*
X156999313Y-110029633D01*
X156860766Y-109937059D01*
X156742941Y-109819234D01*
X156650367Y-109680687D01*
X156586601Y-109526742D01*
X156554093Y-109363315D01*
X156554093Y-109196685D01*
X156586601Y-109033258D01*
X156650367Y-108879313D01*
X156742941Y-108740766D01*
X156860766Y-108622941D01*
X156999313Y-108530367D01*
X157153258Y-108466601D01*
X157316685Y-108434093D01*
X157483315Y-108434093D01*
X157646742Y-108466601D01*
G37*
G36*
X162254850Y-107688464D02*
G01*
X162305040Y-107694287D01*
X162322189Y-107701859D01*
X162345671Y-107706530D01*
X162370810Y-107723327D01*
X162390696Y-107732108D01*
X162404277Y-107745689D01*
X162426777Y-107760723D01*
X162441810Y-107783222D01*
X162455391Y-107796803D01*
X162464170Y-107816686D01*
X162480970Y-107841829D01*
X162485641Y-107865312D01*
X162493212Y-107882459D01*
X162499033Y-107932639D01*
X162500000Y-107937500D01*
X162500000Y-108462500D01*
X162499032Y-108467363D01*
X162493212Y-108517540D01*
X162485641Y-108534685D01*
X162480970Y-108558171D01*
X162464169Y-108583315D01*
X162455391Y-108603196D01*
X162441812Y-108616774D01*
X162426777Y-108639277D01*
X162404274Y-108654312D01*
X162390696Y-108667891D01*
X162370815Y-108676669D01*
X162345671Y-108693470D01*
X162322185Y-108698141D01*
X162305040Y-108705712D01*
X162254861Y-108711532D01*
X162250000Y-108712500D01*
X161350000Y-108712500D01*
X161345138Y-108711532D01*
X161294959Y-108705712D01*
X161277812Y-108698141D01*
X161254329Y-108693470D01*
X161229186Y-108676670D01*
X161209303Y-108667891D01*
X161195722Y-108654310D01*
X161173223Y-108639277D01*
X161158189Y-108616777D01*
X161144608Y-108603196D01*
X161135827Y-108583310D01*
X161119030Y-108558171D01*
X161114359Y-108534689D01*
X161106787Y-108517540D01*
X161100964Y-108467349D01*
X161100000Y-108462500D01*
X161100000Y-107937500D01*
X161100964Y-107932650D01*
X161106787Y-107882459D01*
X161114359Y-107865308D01*
X161119030Y-107841829D01*
X161135826Y-107816691D01*
X161144608Y-107796803D01*
X161158191Y-107783219D01*
X161173223Y-107760723D01*
X161195719Y-107745691D01*
X161209303Y-107732108D01*
X161229191Y-107723326D01*
X161254329Y-107706530D01*
X161277808Y-107701859D01*
X161294959Y-107694287D01*
X161345151Y-107688464D01*
X161350000Y-107687500D01*
X162250000Y-107687500D01*
X162254850Y-107688464D01*
G37*
G36*
X175254850Y-107688464D02*
G01*
X175305040Y-107694287D01*
X175322189Y-107701859D01*
X175345671Y-107706530D01*
X175370810Y-107723327D01*
X175390696Y-107732108D01*
X175404277Y-107745689D01*
X175426777Y-107760723D01*
X175441810Y-107783222D01*
X175455391Y-107796803D01*
X175464170Y-107816686D01*
X175480970Y-107841829D01*
X175485641Y-107865312D01*
X175493212Y-107882459D01*
X175499033Y-107932639D01*
X175500000Y-107937500D01*
X175500000Y-108462500D01*
X175499032Y-108467363D01*
X175493212Y-108517540D01*
X175485641Y-108534685D01*
X175480970Y-108558171D01*
X175464169Y-108583315D01*
X175455391Y-108603196D01*
X175441812Y-108616774D01*
X175426777Y-108639277D01*
X175404274Y-108654312D01*
X175390696Y-108667891D01*
X175370815Y-108676669D01*
X175345671Y-108693470D01*
X175322185Y-108698141D01*
X175305040Y-108705712D01*
X175254861Y-108711532D01*
X175250000Y-108712500D01*
X174350000Y-108712500D01*
X174345138Y-108711532D01*
X174294959Y-108705712D01*
X174277812Y-108698141D01*
X174254329Y-108693470D01*
X174229186Y-108676670D01*
X174209303Y-108667891D01*
X174195722Y-108654310D01*
X174173223Y-108639277D01*
X174158189Y-108616777D01*
X174144608Y-108603196D01*
X174135827Y-108583310D01*
X174119030Y-108558171D01*
X174114359Y-108534689D01*
X174106787Y-108517540D01*
X174100964Y-108467349D01*
X174100000Y-108462500D01*
X174100000Y-107937500D01*
X174100964Y-107932650D01*
X174106787Y-107882459D01*
X174114359Y-107865308D01*
X174119030Y-107841829D01*
X174135826Y-107816691D01*
X174144608Y-107796803D01*
X174158191Y-107783219D01*
X174173223Y-107760723D01*
X174195719Y-107745691D01*
X174209303Y-107732108D01*
X174229191Y-107723326D01*
X174254329Y-107706530D01*
X174277808Y-107701859D01*
X174294959Y-107694287D01*
X174345151Y-107688464D01*
X174350000Y-107687500D01*
X175250000Y-107687500D01*
X175254850Y-107688464D01*
G37*
G36*
X164276537Y-107640224D02*
G01*
X164341421Y-107683579D01*
X164384776Y-107748463D01*
X164400000Y-107825000D01*
X164400000Y-108375000D01*
X164384776Y-108451537D01*
X164341421Y-108516421D01*
X164276537Y-108559776D01*
X164200000Y-108575000D01*
X163800000Y-108575000D01*
X163723463Y-108559776D01*
X163658579Y-108516421D01*
X163615224Y-108451537D01*
X163600000Y-108375000D01*
X163600000Y-107825000D01*
X163615224Y-107748463D01*
X163658579Y-107683579D01*
X163723463Y-107640224D01*
X163800000Y-107625000D01*
X164200000Y-107625000D01*
X164276537Y-107640224D01*
G37*
G36*
X165926537Y-107640224D02*
G01*
X165991421Y-107683579D01*
X166034776Y-107748463D01*
X166050000Y-107825000D01*
X166050000Y-108375000D01*
X166034776Y-108451537D01*
X165991421Y-108516421D01*
X165926537Y-108559776D01*
X165850000Y-108575000D01*
X165450000Y-108575000D01*
X165373463Y-108559776D01*
X165308579Y-108516421D01*
X165265224Y-108451537D01*
X165250000Y-108375000D01*
X165250000Y-107825000D01*
X165265224Y-107748463D01*
X165308579Y-107683579D01*
X165373463Y-107640224D01*
X165450000Y-107625000D01*
X165850000Y-107625000D01*
X165926537Y-107640224D01*
G37*
G36*
X167279850Y-107625964D02*
G01*
X167324317Y-107631123D01*
X167339510Y-107637831D01*
X167361104Y-107642127D01*
X167384222Y-107657574D01*
X167401567Y-107665233D01*
X167413412Y-107677078D01*
X167434099Y-107690901D01*
X167447921Y-107711587D01*
X167459766Y-107723432D01*
X167467423Y-107740774D01*
X167482873Y-107763896D01*
X167487168Y-107785491D01*
X167493876Y-107800682D01*
X167499033Y-107845139D01*
X167500000Y-107850000D01*
X167500000Y-108350000D01*
X167499032Y-108354862D01*
X167493876Y-108399317D01*
X167487168Y-108414506D01*
X167482873Y-108436104D01*
X167467422Y-108459227D01*
X167459766Y-108476567D01*
X167447923Y-108488409D01*
X167434099Y-108509099D01*
X167413409Y-108522923D01*
X167401567Y-108534766D01*
X167384227Y-108542422D01*
X167361104Y-108557873D01*
X167339506Y-108562168D01*
X167324317Y-108568876D01*
X167279861Y-108574032D01*
X167275000Y-108575000D01*
X166825000Y-108575000D01*
X166820138Y-108574033D01*
X166775682Y-108568876D01*
X166760491Y-108562168D01*
X166738896Y-108557873D01*
X166715774Y-108542423D01*
X166698432Y-108534766D01*
X166686587Y-108522921D01*
X166665901Y-108509099D01*
X166652078Y-108488412D01*
X166640233Y-108476567D01*
X166632574Y-108459222D01*
X166617127Y-108436104D01*
X166612831Y-108414510D01*
X166606123Y-108399317D01*
X166600964Y-108354849D01*
X166600000Y-108350000D01*
X166600000Y-107850000D01*
X166600964Y-107845150D01*
X166606123Y-107800682D01*
X166612832Y-107785487D01*
X166617127Y-107763896D01*
X166632573Y-107740779D01*
X166640233Y-107723432D01*
X166652080Y-107711584D01*
X166665901Y-107690901D01*
X166686584Y-107677080D01*
X166698432Y-107665233D01*
X166715779Y-107657573D01*
X166738896Y-107642127D01*
X166760487Y-107637832D01*
X166775682Y-107631123D01*
X166820151Y-107625964D01*
X166825000Y-107625000D01*
X167275000Y-107625000D01*
X167279850Y-107625964D01*
G37*
G36*
X168829850Y-107625964D02*
G01*
X168874317Y-107631123D01*
X168889510Y-107637831D01*
X168911104Y-107642127D01*
X168934222Y-107657574D01*
X168951567Y-107665233D01*
X168963412Y-107677078D01*
X168984099Y-107690901D01*
X168997921Y-107711587D01*
X169009766Y-107723432D01*
X169017423Y-107740774D01*
X169032873Y-107763896D01*
X169037168Y-107785491D01*
X169043876Y-107800682D01*
X169049033Y-107845139D01*
X169050000Y-107850000D01*
X169050000Y-108350000D01*
X169049032Y-108354862D01*
X169043876Y-108399317D01*
X169037168Y-108414506D01*
X169032873Y-108436104D01*
X169017422Y-108459227D01*
X169009766Y-108476567D01*
X168997923Y-108488409D01*
X168984099Y-108509099D01*
X168963409Y-108522923D01*
X168951567Y-108534766D01*
X168934227Y-108542422D01*
X168911104Y-108557873D01*
X168889506Y-108562168D01*
X168874317Y-108568876D01*
X168829861Y-108574032D01*
X168825000Y-108575000D01*
X168375000Y-108575000D01*
X168370138Y-108574033D01*
X168325682Y-108568876D01*
X168310491Y-108562168D01*
X168288896Y-108557873D01*
X168265774Y-108542423D01*
X168248432Y-108534766D01*
X168236587Y-108522921D01*
X168215901Y-108509099D01*
X168202078Y-108488412D01*
X168190233Y-108476567D01*
X168182574Y-108459222D01*
X168167127Y-108436104D01*
X168162831Y-108414510D01*
X168156123Y-108399317D01*
X168150964Y-108354849D01*
X168150000Y-108350000D01*
X168150000Y-107850000D01*
X168150964Y-107845150D01*
X168156123Y-107800682D01*
X168162832Y-107785487D01*
X168167127Y-107763896D01*
X168182573Y-107740779D01*
X168190233Y-107723432D01*
X168202080Y-107711584D01*
X168215901Y-107690901D01*
X168236584Y-107677080D01*
X168248432Y-107665233D01*
X168265779Y-107657573D01*
X168288896Y-107642127D01*
X168310487Y-107637832D01*
X168325682Y-107631123D01*
X168370151Y-107625964D01*
X168375000Y-107625000D01*
X168825000Y-107625000D01*
X168829850Y-107625964D01*
G37*
G36*
X170251537Y-107640224D02*
G01*
X170316421Y-107683579D01*
X170359776Y-107748463D01*
X170375000Y-107825000D01*
X170375000Y-108375000D01*
X170359776Y-108451537D01*
X170316421Y-108516421D01*
X170251537Y-108559776D01*
X170175000Y-108575000D01*
X169775000Y-108575000D01*
X169698463Y-108559776D01*
X169633579Y-108516421D01*
X169590224Y-108451537D01*
X169575000Y-108375000D01*
X169575000Y-107825000D01*
X169590224Y-107748463D01*
X169633579Y-107683579D01*
X169698463Y-107640224D01*
X169775000Y-107625000D01*
X170175000Y-107625000D01*
X170251537Y-107640224D01*
G37*
G36*
X171901537Y-107640224D02*
G01*
X171966421Y-107683579D01*
X172009776Y-107748463D01*
X172025000Y-107825000D01*
X172025000Y-108375000D01*
X172009776Y-108451537D01*
X171966421Y-108516421D01*
X171901537Y-108559776D01*
X171825000Y-108575000D01*
X171425000Y-108575000D01*
X171348463Y-108559776D01*
X171283579Y-108516421D01*
X171240224Y-108451537D01*
X171225000Y-108375000D01*
X171225000Y-107825000D01*
X171240224Y-107748463D01*
X171283579Y-107683579D01*
X171348463Y-107640224D01*
X171425000Y-107625000D01*
X171825000Y-107625000D01*
X171901537Y-107640224D01*
G37*
G36*
X179046742Y-106466601D02*
G01*
X179200687Y-106530367D01*
X179339234Y-106622941D01*
X179457059Y-106740766D01*
X179549633Y-106879313D01*
X179613399Y-107033258D01*
X179645907Y-107196685D01*
X179645907Y-107363315D01*
X179613399Y-107526742D01*
X179549633Y-107680687D01*
X179457059Y-107819234D01*
X179339234Y-107937059D01*
X179200687Y-108029633D01*
X179046742Y-108093399D01*
X178883315Y-108125907D01*
X178716685Y-108125907D01*
X178553258Y-108093399D01*
X178399313Y-108029633D01*
X178260766Y-107937059D01*
X178142941Y-107819234D01*
X178050367Y-107680687D01*
X177986601Y-107526742D01*
X177954093Y-107363315D01*
X177954093Y-107196685D01*
X177986601Y-107033258D01*
X178050367Y-106879313D01*
X178142941Y-106740766D01*
X178260766Y-106622941D01*
X178399313Y-106530367D01*
X178553258Y-106466601D01*
X178716685Y-106434093D01*
X178883315Y-106434093D01*
X179046742Y-106466601D01*
G37*
G36*
X157646742Y-105926601D02*
G01*
X157800687Y-105990367D01*
X157939234Y-106082941D01*
X158057059Y-106200766D01*
X158149633Y-106339313D01*
X158213399Y-106493258D01*
X158245907Y-106656685D01*
X158245907Y-106823315D01*
X158213399Y-106986742D01*
X158149633Y-107140687D01*
X158057059Y-107279234D01*
X157939234Y-107397059D01*
X157800687Y-107489633D01*
X157646742Y-107553399D01*
X157483315Y-107585907D01*
X157316685Y-107585907D01*
X157153258Y-107553399D01*
X156999313Y-107489633D01*
X156860766Y-107397059D01*
X156742941Y-107279234D01*
X156650367Y-107140687D01*
X156586601Y-106986742D01*
X156554093Y-106823315D01*
X156554093Y-106656685D01*
X156586601Y-106493258D01*
X156650367Y-106339313D01*
X156742941Y-106200766D01*
X156860766Y-106082941D01*
X156999313Y-105990367D01*
X157153258Y-105926601D01*
X157316685Y-105894093D01*
X157483315Y-105894093D01*
X157646742Y-105926601D01*
G37*
G36*
X164279850Y-106125964D02*
G01*
X164324317Y-106131123D01*
X164339510Y-106137831D01*
X164361104Y-106142127D01*
X164384222Y-106157574D01*
X164401567Y-106165233D01*
X164413412Y-106177078D01*
X164434099Y-106190901D01*
X164447921Y-106211587D01*
X164459766Y-106223432D01*
X164467423Y-106240774D01*
X164482873Y-106263896D01*
X164487168Y-106285491D01*
X164493876Y-106300682D01*
X164499033Y-106345139D01*
X164500000Y-106350000D01*
X164500000Y-106850000D01*
X164499032Y-106854862D01*
X164493876Y-106899317D01*
X164487168Y-106914506D01*
X164482873Y-106936104D01*
X164467422Y-106959227D01*
X164459766Y-106976567D01*
X164447923Y-106988409D01*
X164434099Y-107009099D01*
X164413409Y-107022923D01*
X164401567Y-107034766D01*
X164384227Y-107042422D01*
X164361104Y-107057873D01*
X164339506Y-107062168D01*
X164324317Y-107068876D01*
X164279861Y-107074032D01*
X164275000Y-107075000D01*
X163825000Y-107075000D01*
X163820138Y-107074033D01*
X163775682Y-107068876D01*
X163760491Y-107062168D01*
X163738896Y-107057873D01*
X163715774Y-107042423D01*
X163698432Y-107034766D01*
X163686587Y-107022921D01*
X163665901Y-107009099D01*
X163652078Y-106988412D01*
X163640233Y-106976567D01*
X163632574Y-106959222D01*
X163617127Y-106936104D01*
X163612831Y-106914510D01*
X163606123Y-106899317D01*
X163600964Y-106854849D01*
X163600000Y-106850000D01*
X163600000Y-106350000D01*
X163600964Y-106345150D01*
X163606123Y-106300682D01*
X163612832Y-106285487D01*
X163617127Y-106263896D01*
X163632573Y-106240779D01*
X163640233Y-106223432D01*
X163652080Y-106211584D01*
X163665901Y-106190901D01*
X163686584Y-106177080D01*
X163698432Y-106165233D01*
X163715779Y-106157573D01*
X163738896Y-106142127D01*
X163760487Y-106137832D01*
X163775682Y-106131123D01*
X163820151Y-106125964D01*
X163825000Y-106125000D01*
X164275000Y-106125000D01*
X164279850Y-106125964D01*
G37*
G36*
X165829850Y-106125964D02*
G01*
X165874317Y-106131123D01*
X165889510Y-106137831D01*
X165911104Y-106142127D01*
X165934222Y-106157574D01*
X165951567Y-106165233D01*
X165963412Y-106177078D01*
X165984099Y-106190901D01*
X165997921Y-106211587D01*
X166009766Y-106223432D01*
X166017423Y-106240774D01*
X166032873Y-106263896D01*
X166037168Y-106285491D01*
X166043876Y-106300682D01*
X166049033Y-106345139D01*
X166050000Y-106350000D01*
X166050000Y-106850000D01*
X166049032Y-106854862D01*
X166043876Y-106899317D01*
X166037168Y-106914506D01*
X166032873Y-106936104D01*
X166017422Y-106959227D01*
X166009766Y-106976567D01*
X165997923Y-106988409D01*
X165984099Y-107009099D01*
X165963409Y-107022923D01*
X165951567Y-107034766D01*
X165934227Y-107042422D01*
X165911104Y-107057873D01*
X165889506Y-107062168D01*
X165874317Y-107068876D01*
X165829861Y-107074032D01*
X165825000Y-107075000D01*
X165375000Y-107075000D01*
X165370138Y-107074033D01*
X165325682Y-107068876D01*
X165310491Y-107062168D01*
X165288896Y-107057873D01*
X165265774Y-107042423D01*
X165248432Y-107034766D01*
X165236587Y-107022921D01*
X165215901Y-107009099D01*
X165202078Y-106988412D01*
X165190233Y-106976567D01*
X165182574Y-106959222D01*
X165167127Y-106936104D01*
X165162831Y-106914510D01*
X165156123Y-106899317D01*
X165150964Y-106854849D01*
X165150000Y-106850000D01*
X165150000Y-106350000D01*
X165150964Y-106345150D01*
X165156123Y-106300682D01*
X165162832Y-106285487D01*
X165167127Y-106263896D01*
X165182573Y-106240779D01*
X165190233Y-106223432D01*
X165202080Y-106211584D01*
X165215901Y-106190901D01*
X165236584Y-106177080D01*
X165248432Y-106165233D01*
X165265779Y-106157573D01*
X165288896Y-106142127D01*
X165310487Y-106137832D01*
X165325682Y-106131123D01*
X165370151Y-106125964D01*
X165375000Y-106125000D01*
X165825000Y-106125000D01*
X165829850Y-106125964D01*
G37*
G36*
X171986418Y-104929758D02*
G01*
X172006694Y-104943306D01*
X172020242Y-104963582D01*
X172025000Y-104987500D01*
X172025000Y-105712500D01*
X172020242Y-105736418D01*
X172006694Y-105756694D01*
X171986418Y-105770242D01*
X171962500Y-105775000D01*
X171837500Y-105775000D01*
X171813582Y-105770242D01*
X171793306Y-105756694D01*
X171779758Y-105736418D01*
X171775000Y-105712500D01*
X171775000Y-104987500D01*
X171779758Y-104963582D01*
X171793306Y-104943306D01*
X171813582Y-104929758D01*
X171837500Y-104925000D01*
X171962500Y-104925000D01*
X171986418Y-104929758D01*
G37*
G36*
X172486418Y-104929758D02*
G01*
X172506694Y-104943306D01*
X172520242Y-104963582D01*
X172525000Y-104987500D01*
X172525000Y-105712500D01*
X172520242Y-105736418D01*
X172506694Y-105756694D01*
X172486418Y-105770242D01*
X172462500Y-105775000D01*
X172337500Y-105775000D01*
X172313582Y-105770242D01*
X172293306Y-105756694D01*
X172279758Y-105736418D01*
X172275000Y-105712500D01*
X172275000Y-104987500D01*
X172279758Y-104963582D01*
X172293306Y-104943306D01*
X172313582Y-104929758D01*
X172337500Y-104925000D01*
X172462500Y-104925000D01*
X172486418Y-104929758D01*
G37*
G36*
X172986418Y-104929758D02*
G01*
X173006694Y-104943306D01*
X173020242Y-104963582D01*
X173025000Y-104987500D01*
X173025000Y-105712500D01*
X173020242Y-105736418D01*
X173006694Y-105756694D01*
X172986418Y-105770242D01*
X172962500Y-105775000D01*
X172837500Y-105775000D01*
X172813582Y-105770242D01*
X172793306Y-105756694D01*
X172779758Y-105736418D01*
X172775000Y-105712500D01*
X172775000Y-104987500D01*
X172779758Y-104963582D01*
X172793306Y-104943306D01*
X172813582Y-104929758D01*
X172837500Y-104925000D01*
X172962500Y-104925000D01*
X172986418Y-104929758D01*
G37*
G36*
X173486418Y-104929758D02*
G01*
X173506694Y-104943306D01*
X173520242Y-104963582D01*
X173525000Y-104987500D01*
X173525000Y-105712500D01*
X173520242Y-105736418D01*
X173506694Y-105756694D01*
X173486418Y-105770242D01*
X173462500Y-105775000D01*
X173337500Y-105775000D01*
X173313582Y-105770242D01*
X173293306Y-105756694D01*
X173279758Y-105736418D01*
X173275000Y-105712500D01*
X173275000Y-104987500D01*
X173279758Y-104963582D01*
X173293306Y-104943306D01*
X173313582Y-104929758D01*
X173337500Y-104925000D01*
X173462500Y-104925000D01*
X173486418Y-104929758D01*
G37*
G36*
X173986418Y-104929758D02*
G01*
X174006694Y-104943306D01*
X174020242Y-104963582D01*
X174025000Y-104987500D01*
X174025000Y-105712500D01*
X174020242Y-105736418D01*
X174006694Y-105756694D01*
X173986418Y-105770242D01*
X173962500Y-105775000D01*
X173837500Y-105775000D01*
X173813582Y-105770242D01*
X173793306Y-105756694D01*
X173779758Y-105736418D01*
X173775000Y-105712500D01*
X173775000Y-104987500D01*
X173779758Y-104963582D01*
X173793306Y-104943306D01*
X173813582Y-104929758D01*
X173837500Y-104925000D01*
X173962500Y-104925000D01*
X173986418Y-104929758D01*
G37*
G36*
X165967350Y-104200964D02*
G01*
X166017540Y-104206787D01*
X166034689Y-104214359D01*
X166058171Y-104219030D01*
X166083310Y-104235827D01*
X166103196Y-104244608D01*
X166116777Y-104258189D01*
X166139277Y-104273223D01*
X166154310Y-104295722D01*
X166167891Y-104309303D01*
X166176670Y-104329186D01*
X166193470Y-104354329D01*
X166198141Y-104377812D01*
X166205712Y-104394959D01*
X166211533Y-104445139D01*
X166212500Y-104450000D01*
X166212500Y-105350000D01*
X166211532Y-105354863D01*
X166205712Y-105405040D01*
X166198141Y-105422185D01*
X166193470Y-105445671D01*
X166176669Y-105470815D01*
X166167891Y-105490696D01*
X166154312Y-105504274D01*
X166139277Y-105526777D01*
X166116774Y-105541812D01*
X166103196Y-105555391D01*
X166083315Y-105564169D01*
X166058171Y-105580970D01*
X166034685Y-105585641D01*
X166017540Y-105593212D01*
X165967361Y-105599032D01*
X165962500Y-105600000D01*
X165437500Y-105600000D01*
X165432638Y-105599032D01*
X165382459Y-105593212D01*
X165365312Y-105585641D01*
X165341829Y-105580970D01*
X165316686Y-105564170D01*
X165296803Y-105555391D01*
X165283222Y-105541810D01*
X165260723Y-105526777D01*
X165245689Y-105504277D01*
X165232108Y-105490696D01*
X165223327Y-105470810D01*
X165206530Y-105445671D01*
X165201859Y-105422189D01*
X165194287Y-105405040D01*
X165188464Y-105354849D01*
X165187500Y-105350000D01*
X165187500Y-104450000D01*
X165188464Y-104445150D01*
X165194287Y-104394959D01*
X165201859Y-104377808D01*
X165206530Y-104354329D01*
X165223326Y-104329191D01*
X165232108Y-104309303D01*
X165245691Y-104295719D01*
X165260723Y-104273223D01*
X165283219Y-104258191D01*
X165296803Y-104244608D01*
X165316691Y-104235826D01*
X165341829Y-104219030D01*
X165365308Y-104214359D01*
X165382459Y-104206787D01*
X165432651Y-104200964D01*
X165437500Y-104200000D01*
X165962500Y-104200000D01*
X165967350Y-104200964D01*
G37*
G36*
X167792350Y-104200964D02*
G01*
X167842540Y-104206787D01*
X167859689Y-104214359D01*
X167883171Y-104219030D01*
X167908310Y-104235827D01*
X167928196Y-104244608D01*
X167941777Y-104258189D01*
X167964277Y-104273223D01*
X167979310Y-104295722D01*
X167992891Y-104309303D01*
X168001670Y-104329186D01*
X168018470Y-104354329D01*
X168023141Y-104377812D01*
X168030712Y-104394959D01*
X168036533Y-104445139D01*
X168037500Y-104450000D01*
X168037500Y-105350000D01*
X168036532Y-105354863D01*
X168030712Y-105405040D01*
X168023141Y-105422185D01*
X168018470Y-105445671D01*
X168001669Y-105470815D01*
X167992891Y-105490696D01*
X167979312Y-105504274D01*
X167964277Y-105526777D01*
X167941774Y-105541812D01*
X167928196Y-105555391D01*
X167908315Y-105564169D01*
X167883171Y-105580970D01*
X167859685Y-105585641D01*
X167842540Y-105593212D01*
X167792361Y-105599032D01*
X167787500Y-105600000D01*
X167262500Y-105600000D01*
X167257638Y-105599032D01*
X167207459Y-105593212D01*
X167190312Y-105585641D01*
X167166829Y-105580970D01*
X167141686Y-105564170D01*
X167121803Y-105555391D01*
X167108222Y-105541810D01*
X167085723Y-105526777D01*
X167070689Y-105504277D01*
X167057108Y-105490696D01*
X167048327Y-105470810D01*
X167031530Y-105445671D01*
X167026859Y-105422189D01*
X167019287Y-105405040D01*
X167013464Y-105354849D01*
X167012500Y-105350000D01*
X167012500Y-104450000D01*
X167013464Y-104445150D01*
X167019287Y-104394959D01*
X167026859Y-104377808D01*
X167031530Y-104354329D01*
X167048326Y-104329191D01*
X167057108Y-104309303D01*
X167070691Y-104295719D01*
X167085723Y-104273223D01*
X167108219Y-104258191D01*
X167121803Y-104244608D01*
X167141691Y-104235826D01*
X167166829Y-104219030D01*
X167190308Y-104214359D01*
X167207459Y-104206787D01*
X167257651Y-104200964D01*
X167262500Y-104200000D01*
X167787500Y-104200000D01*
X167792350Y-104200964D01*
G37*
G36*
X179046742Y-103926601D02*
G01*
X179200687Y-103990367D01*
X179339234Y-104082941D01*
X179457059Y-104200766D01*
X179549633Y-104339313D01*
X179613399Y-104493258D01*
X179645907Y-104656685D01*
X179645907Y-104823315D01*
X179613399Y-104986742D01*
X179549633Y-105140687D01*
X179457059Y-105279234D01*
X179339234Y-105397059D01*
X179200687Y-105489633D01*
X179046742Y-105553399D01*
X178883315Y-105585907D01*
X178716685Y-105585907D01*
X178553258Y-105553399D01*
X178399313Y-105489633D01*
X178260766Y-105397059D01*
X178142941Y-105279234D01*
X178050367Y-105140687D01*
X177986601Y-104986742D01*
X177954093Y-104823315D01*
X177954093Y-104656685D01*
X177986601Y-104493258D01*
X178050367Y-104339313D01*
X178142941Y-104200766D01*
X178260766Y-104082941D01*
X178399313Y-103990367D01*
X178553258Y-103926601D01*
X178716685Y-103894093D01*
X178883315Y-103894093D01*
X179046742Y-103926601D01*
G37*
G36*
X157646742Y-103386601D02*
G01*
X157800687Y-103450367D01*
X157939234Y-103542941D01*
X158057059Y-103660766D01*
X158149633Y-103799313D01*
X158213399Y-103953258D01*
X158245907Y-104116685D01*
X158245907Y-104283315D01*
X158213399Y-104446742D01*
X158149633Y-104600687D01*
X158057059Y-104739234D01*
X157939234Y-104857059D01*
X157800687Y-104949633D01*
X157646742Y-105013399D01*
X157483315Y-105045907D01*
X157316685Y-105045907D01*
X157153258Y-105013399D01*
X156999313Y-104949633D01*
X156860766Y-104857059D01*
X156742941Y-104739234D01*
X156650367Y-104600687D01*
X156586601Y-104446742D01*
X156554093Y-104283315D01*
X156554093Y-104116685D01*
X156586601Y-103953258D01*
X156650367Y-103799313D01*
X156742941Y-103660766D01*
X156860766Y-103542941D01*
X156999313Y-103450367D01*
X157153258Y-103386601D01*
X157316685Y-103354093D01*
X157483315Y-103354093D01*
X157646742Y-103386601D01*
G37*
G36*
X174200000Y-104725000D02*
G01*
X171600000Y-104725000D01*
X171600000Y-102125000D01*
X174200000Y-102125000D01*
X174200000Y-104725000D01*
G37*
G36*
X171361418Y-104304758D02*
G01*
X171381694Y-104318306D01*
X171395242Y-104338582D01*
X171400000Y-104362500D01*
X171400000Y-104487500D01*
X171395242Y-104511418D01*
X171381694Y-104531694D01*
X171361418Y-104545242D01*
X171337500Y-104550000D01*
X170612500Y-104550000D01*
X170588582Y-104545242D01*
X170568306Y-104531694D01*
X170554758Y-104511418D01*
X170550000Y-104487500D01*
X170550000Y-104362500D01*
X170554758Y-104338582D01*
X170568306Y-104318306D01*
X170588582Y-104304758D01*
X170612500Y-104300000D01*
X171337500Y-104300000D01*
X171361418Y-104304758D01*
G37*
G36*
X175211418Y-104304758D02*
G01*
X175231694Y-104318306D01*
X175245242Y-104338582D01*
X175250000Y-104362500D01*
X175250000Y-104487500D01*
X175245242Y-104511418D01*
X175231694Y-104531694D01*
X175211418Y-104545242D01*
X175187500Y-104550000D01*
X174462500Y-104550000D01*
X174438582Y-104545242D01*
X174418306Y-104531694D01*
X174404758Y-104511418D01*
X174400000Y-104487500D01*
X174400000Y-104362500D01*
X174404758Y-104338582D01*
X174418306Y-104318306D01*
X174438582Y-104304758D01*
X174462500Y-104300000D01*
X175187500Y-104300000D01*
X175211418Y-104304758D01*
G37*
G36*
X160176537Y-103540224D02*
G01*
X160241421Y-103583579D01*
X160284776Y-103648463D01*
X160300000Y-103725000D01*
X160300000Y-104275000D01*
X160284776Y-104351537D01*
X160241421Y-104416421D01*
X160176537Y-104459776D01*
X160100000Y-104475000D01*
X159700000Y-104475000D01*
X159623463Y-104459776D01*
X159558579Y-104416421D01*
X159515224Y-104351537D01*
X159500000Y-104275000D01*
X159500000Y-103725000D01*
X159515224Y-103648463D01*
X159558579Y-103583579D01*
X159623463Y-103540224D01*
X159700000Y-103525000D01*
X160100000Y-103525000D01*
X160176537Y-103540224D01*
G37*
G36*
X161826537Y-103540224D02*
G01*
X161891421Y-103583579D01*
X161934776Y-103648463D01*
X161950000Y-103725000D01*
X161950000Y-104275000D01*
X161934776Y-104351537D01*
X161891421Y-104416421D01*
X161826537Y-104459776D01*
X161750000Y-104475000D01*
X161350000Y-104475000D01*
X161273463Y-104459776D01*
X161208579Y-104416421D01*
X161165224Y-104351537D01*
X161150000Y-104275000D01*
X161150000Y-103725000D01*
X161165224Y-103648463D01*
X161208579Y-103583579D01*
X161273463Y-103540224D01*
X161350000Y-103525000D01*
X161750000Y-103525000D01*
X161826537Y-103540224D01*
G37*
G36*
X171361418Y-103804758D02*
G01*
X171381694Y-103818306D01*
X171395242Y-103838582D01*
X171400000Y-103862500D01*
X171400000Y-103987500D01*
X171395242Y-104011418D01*
X171381694Y-104031694D01*
X171361418Y-104045242D01*
X171337500Y-104050000D01*
X170612500Y-104050000D01*
X170588582Y-104045242D01*
X170568306Y-104031694D01*
X170554758Y-104011418D01*
X170550000Y-103987500D01*
X170550000Y-103862500D01*
X170554758Y-103838582D01*
X170568306Y-103818306D01*
X170588582Y-103804758D01*
X170612500Y-103800000D01*
X171337500Y-103800000D01*
X171361418Y-103804758D01*
G37*
G36*
X175211418Y-103804758D02*
G01*
X175231694Y-103818306D01*
X175245242Y-103838582D01*
X175250000Y-103862500D01*
X175250000Y-103987500D01*
X175245242Y-104011418D01*
X175231694Y-104031694D01*
X175211418Y-104045242D01*
X175187500Y-104050000D01*
X174462500Y-104050000D01*
X174438582Y-104045242D01*
X174418306Y-104031694D01*
X174404758Y-104011418D01*
X174400000Y-103987500D01*
X174400000Y-103862500D01*
X174404758Y-103838582D01*
X174418306Y-103818306D01*
X174438582Y-103804758D01*
X174462500Y-103800000D01*
X175187500Y-103800000D01*
X175211418Y-103804758D01*
G37*
G36*
X165942350Y-102300964D02*
G01*
X165992540Y-102306787D01*
X166009689Y-102314359D01*
X166033171Y-102319030D01*
X166058310Y-102335827D01*
X166078196Y-102344608D01*
X166091777Y-102358189D01*
X166114277Y-102373223D01*
X166129310Y-102395722D01*
X166142891Y-102409303D01*
X166151670Y-102429186D01*
X166168470Y-102454329D01*
X166173141Y-102477812D01*
X166180712Y-102494959D01*
X166186533Y-102545139D01*
X166187500Y-102550000D01*
X166187500Y-103450000D01*
X166186532Y-103454863D01*
X166180712Y-103505040D01*
X166173141Y-103522185D01*
X166168470Y-103545671D01*
X166151669Y-103570815D01*
X166142891Y-103590696D01*
X166129312Y-103604274D01*
X166114277Y-103626777D01*
X166091774Y-103641812D01*
X166078196Y-103655391D01*
X166058315Y-103664169D01*
X166033171Y-103680970D01*
X166009685Y-103685641D01*
X165992540Y-103693212D01*
X165942361Y-103699032D01*
X165937500Y-103700000D01*
X165412500Y-103700000D01*
X165407638Y-103699032D01*
X165357459Y-103693212D01*
X165340312Y-103685641D01*
X165316829Y-103680970D01*
X165291686Y-103664170D01*
X165271803Y-103655391D01*
X165258222Y-103641810D01*
X165235723Y-103626777D01*
X165220689Y-103604277D01*
X165207108Y-103590696D01*
X165198327Y-103570810D01*
X165181530Y-103545671D01*
X165176859Y-103522189D01*
X165169287Y-103505040D01*
X165163464Y-103454849D01*
X165162500Y-103450000D01*
X165162500Y-102550000D01*
X165163464Y-102545150D01*
X165169287Y-102494959D01*
X165176859Y-102477808D01*
X165181530Y-102454329D01*
X165198326Y-102429191D01*
X165207108Y-102409303D01*
X165220691Y-102395719D01*
X165235723Y-102373223D01*
X165258219Y-102358191D01*
X165271803Y-102344608D01*
X165291691Y-102335826D01*
X165316829Y-102319030D01*
X165340308Y-102314359D01*
X165357459Y-102306787D01*
X165407651Y-102300964D01*
X165412500Y-102300000D01*
X165937500Y-102300000D01*
X165942350Y-102300964D01*
G37*
G36*
X167767350Y-102300964D02*
G01*
X167817540Y-102306787D01*
X167834689Y-102314359D01*
X167858171Y-102319030D01*
X167883310Y-102335827D01*
X167903196Y-102344608D01*
X167916777Y-102358189D01*
X167939277Y-102373223D01*
X167954310Y-102395722D01*
X167967891Y-102409303D01*
X167976670Y-102429186D01*
X167993470Y-102454329D01*
X167998141Y-102477812D01*
X168005712Y-102494959D01*
X168011533Y-102545139D01*
X168012500Y-102550000D01*
X168012500Y-103450000D01*
X168011532Y-103454863D01*
X168005712Y-103505040D01*
X167998141Y-103522185D01*
X167993470Y-103545671D01*
X167976669Y-103570815D01*
X167967891Y-103590696D01*
X167954312Y-103604274D01*
X167939277Y-103626777D01*
X167916774Y-103641812D01*
X167903196Y-103655391D01*
X167883315Y-103664169D01*
X167858171Y-103680970D01*
X167834685Y-103685641D01*
X167817540Y-103693212D01*
X167767361Y-103699032D01*
X167762500Y-103700000D01*
X167237500Y-103700000D01*
X167232638Y-103699032D01*
X167182459Y-103693212D01*
X167165312Y-103685641D01*
X167141829Y-103680970D01*
X167116686Y-103664170D01*
X167096803Y-103655391D01*
X167083222Y-103641810D01*
X167060723Y-103626777D01*
X167045689Y-103604277D01*
X167032108Y-103590696D01*
X167023327Y-103570810D01*
X167006530Y-103545671D01*
X167001859Y-103522189D01*
X166994287Y-103505040D01*
X166988464Y-103454849D01*
X166987500Y-103450000D01*
X166987500Y-102550000D01*
X166988464Y-102545150D01*
X166994287Y-102494959D01*
X167001859Y-102477808D01*
X167006530Y-102454329D01*
X167023326Y-102429191D01*
X167032108Y-102409303D01*
X167045691Y-102395719D01*
X167060723Y-102373223D01*
X167083219Y-102358191D01*
X167096803Y-102344608D01*
X167116691Y-102335826D01*
X167141829Y-102319030D01*
X167165308Y-102314359D01*
X167182459Y-102306787D01*
X167232651Y-102300964D01*
X167237500Y-102300000D01*
X167762500Y-102300000D01*
X167767350Y-102300964D01*
G37*
G36*
X171361418Y-103304758D02*
G01*
X171381694Y-103318306D01*
X171395242Y-103338582D01*
X171400000Y-103362500D01*
X171400000Y-103487500D01*
X171395242Y-103511418D01*
X171381694Y-103531694D01*
X171361418Y-103545242D01*
X171337500Y-103550000D01*
X170612500Y-103550000D01*
X170588582Y-103545242D01*
X170568306Y-103531694D01*
X170554758Y-103511418D01*
X170550000Y-103487500D01*
X170550000Y-103362500D01*
X170554758Y-103338582D01*
X170568306Y-103318306D01*
X170588582Y-103304758D01*
X170612500Y-103300000D01*
X171337500Y-103300000D01*
X171361418Y-103304758D01*
G37*
G36*
X175211418Y-103304758D02*
G01*
X175231694Y-103318306D01*
X175245242Y-103338582D01*
X175250000Y-103362500D01*
X175250000Y-103487500D01*
X175245242Y-103511418D01*
X175231694Y-103531694D01*
X175211418Y-103545242D01*
X175187500Y-103550000D01*
X174462500Y-103550000D01*
X174438582Y-103545242D01*
X174418306Y-103531694D01*
X174404758Y-103511418D01*
X174400000Y-103487500D01*
X174400000Y-103362500D01*
X174404758Y-103338582D01*
X174418306Y-103318306D01*
X174438582Y-103304758D01*
X174462500Y-103300000D01*
X175187500Y-103300000D01*
X175211418Y-103304758D01*
G37*
G36*
X171361418Y-102804758D02*
G01*
X171381694Y-102818306D01*
X171395242Y-102838582D01*
X171400000Y-102862500D01*
X171400000Y-102987500D01*
X171395242Y-103011418D01*
X171381694Y-103031694D01*
X171361418Y-103045242D01*
X171337500Y-103050000D01*
X170612500Y-103050000D01*
X170588582Y-103045242D01*
X170568306Y-103031694D01*
X170554758Y-103011418D01*
X170550000Y-102987500D01*
X170550000Y-102862500D01*
X170554758Y-102838582D01*
X170568306Y-102818306D01*
X170588582Y-102804758D01*
X170612500Y-102800000D01*
X171337500Y-102800000D01*
X171361418Y-102804758D01*
G37*
G36*
X175211418Y-102804758D02*
G01*
X175231694Y-102818306D01*
X175245242Y-102838582D01*
X175250000Y-102862500D01*
X175250000Y-102987500D01*
X175245242Y-103011418D01*
X175231694Y-103031694D01*
X175211418Y-103045242D01*
X175187500Y-103050000D01*
X174462500Y-103050000D01*
X174438582Y-103045242D01*
X174418306Y-103031694D01*
X174404758Y-103011418D01*
X174400000Y-102987500D01*
X174400000Y-102862500D01*
X174404758Y-102838582D01*
X174418306Y-102818306D01*
X174438582Y-102804758D01*
X174462500Y-102800000D01*
X175187500Y-102800000D01*
X175211418Y-102804758D01*
G37*
G36*
X179650000Y-103050000D02*
G01*
X177950000Y-103050000D01*
X177950000Y-101350000D01*
X179650000Y-101350000D01*
X179650000Y-103050000D01*
G37*
G36*
X160176537Y-102040224D02*
G01*
X160241421Y-102083579D01*
X160284776Y-102148463D01*
X160300000Y-102225000D01*
X160300000Y-102775000D01*
X160284776Y-102851537D01*
X160241421Y-102916421D01*
X160176537Y-102959776D01*
X160100000Y-102975000D01*
X159700000Y-102975000D01*
X159623463Y-102959776D01*
X159558579Y-102916421D01*
X159515224Y-102851537D01*
X159500000Y-102775000D01*
X159500000Y-102225000D01*
X159515224Y-102148463D01*
X159558579Y-102083579D01*
X159623463Y-102040224D01*
X159700000Y-102025000D01*
X160100000Y-102025000D01*
X160176537Y-102040224D01*
G37*
G36*
X161826537Y-102040224D02*
G01*
X161891421Y-102083579D01*
X161934776Y-102148463D01*
X161950000Y-102225000D01*
X161950000Y-102775000D01*
X161934776Y-102851537D01*
X161891421Y-102916421D01*
X161826537Y-102959776D01*
X161750000Y-102975000D01*
X161350000Y-102975000D01*
X161273463Y-102959776D01*
X161208579Y-102916421D01*
X161165224Y-102851537D01*
X161150000Y-102775000D01*
X161150000Y-102225000D01*
X161165224Y-102148463D01*
X161208579Y-102083579D01*
X161273463Y-102040224D01*
X161350000Y-102025000D01*
X161750000Y-102025000D01*
X161826537Y-102040224D01*
G37*
G36*
X171361418Y-102304758D02*
G01*
X171381694Y-102318306D01*
X171395242Y-102338582D01*
X171400000Y-102362500D01*
X171400000Y-102487500D01*
X171395242Y-102511418D01*
X171381694Y-102531694D01*
X171361418Y-102545242D01*
X171337500Y-102550000D01*
X170612500Y-102550000D01*
X170588582Y-102545242D01*
X170568306Y-102531694D01*
X170554758Y-102511418D01*
X170550000Y-102487500D01*
X170550000Y-102362500D01*
X170554758Y-102338582D01*
X170568306Y-102318306D01*
X170588582Y-102304758D01*
X170612500Y-102300000D01*
X171337500Y-102300000D01*
X171361418Y-102304758D01*
G37*
G36*
X175211418Y-102304758D02*
G01*
X175231694Y-102318306D01*
X175245242Y-102338582D01*
X175250000Y-102362500D01*
X175250000Y-102487500D01*
X175245242Y-102511418D01*
X175231694Y-102531694D01*
X175211418Y-102545242D01*
X175187500Y-102550000D01*
X174462500Y-102550000D01*
X174438582Y-102545242D01*
X174418306Y-102531694D01*
X174404758Y-102511418D01*
X174400000Y-102487500D01*
X174400000Y-102362500D01*
X174404758Y-102338582D01*
X174418306Y-102318306D01*
X174438582Y-102304758D01*
X174462500Y-102300000D01*
X175187500Y-102300000D01*
X175211418Y-102304758D01*
G37*
G36*
X158250000Y-102510000D02*
G01*
X156550000Y-102510000D01*
X156550000Y-100810000D01*
X158250000Y-100810000D01*
X158250000Y-102510000D01*
G37*
G36*
X171986418Y-101079758D02*
G01*
X172006694Y-101093306D01*
X172020242Y-101113582D01*
X172025000Y-101137500D01*
X172025000Y-101862500D01*
X172020242Y-101886418D01*
X172006694Y-101906694D01*
X171986418Y-101920242D01*
X171962500Y-101925000D01*
X171837500Y-101925000D01*
X171813582Y-101920242D01*
X171793306Y-101906694D01*
X171779758Y-101886418D01*
X171775000Y-101862500D01*
X171775000Y-101137500D01*
X171779758Y-101113582D01*
X171793306Y-101093306D01*
X171813582Y-101079758D01*
X171837500Y-101075000D01*
X171962500Y-101075000D01*
X171986418Y-101079758D01*
G37*
G36*
X172486418Y-101079758D02*
G01*
X172506694Y-101093306D01*
X172520242Y-101113582D01*
X172525000Y-101137500D01*
X172525000Y-101862500D01*
X172520242Y-101886418D01*
X172506694Y-101906694D01*
X172486418Y-101920242D01*
X172462500Y-101925000D01*
X172337500Y-101925000D01*
X172313582Y-101920242D01*
X172293306Y-101906694D01*
X172279758Y-101886418D01*
X172275000Y-101862500D01*
X172275000Y-101137500D01*
X172279758Y-101113582D01*
X172293306Y-101093306D01*
X172313582Y-101079758D01*
X172337500Y-101075000D01*
X172462500Y-101075000D01*
X172486418Y-101079758D01*
G37*
G36*
X172986418Y-101079758D02*
G01*
X173006694Y-101093306D01*
X173020242Y-101113582D01*
X173025000Y-101137500D01*
X173025000Y-101862500D01*
X173020242Y-101886418D01*
X173006694Y-101906694D01*
X172986418Y-101920242D01*
X172962500Y-101925000D01*
X172837500Y-101925000D01*
X172813582Y-101920242D01*
X172793306Y-101906694D01*
X172779758Y-101886418D01*
X172775000Y-101862500D01*
X172775000Y-101137500D01*
X172779758Y-101113582D01*
X172793306Y-101093306D01*
X172813582Y-101079758D01*
X172837500Y-101075000D01*
X172962500Y-101075000D01*
X172986418Y-101079758D01*
G37*
G36*
X173486418Y-101079758D02*
G01*
X173506694Y-101093306D01*
X173520242Y-101113582D01*
X173525000Y-101137500D01*
X173525000Y-101862500D01*
X173520242Y-101886418D01*
X173506694Y-101906694D01*
X173486418Y-101920242D01*
X173462500Y-101925000D01*
X173337500Y-101925000D01*
X173313582Y-101920242D01*
X173293306Y-101906694D01*
X173279758Y-101886418D01*
X173275000Y-101862500D01*
X173275000Y-101137500D01*
X173279758Y-101113582D01*
X173293306Y-101093306D01*
X173313582Y-101079758D01*
X173337500Y-101075000D01*
X173462500Y-101075000D01*
X173486418Y-101079758D01*
G37*
G36*
X173986418Y-101079758D02*
G01*
X174006694Y-101093306D01*
X174020242Y-101113582D01*
X174025000Y-101137500D01*
X174025000Y-101862500D01*
X174020242Y-101886418D01*
X174006694Y-101906694D01*
X173986418Y-101920242D01*
X173962500Y-101925000D01*
X173837500Y-101925000D01*
X173813582Y-101920242D01*
X173793306Y-101906694D01*
X173779758Y-101886418D01*
X173775000Y-101862500D01*
X173775000Y-101137500D01*
X173779758Y-101113582D01*
X173793306Y-101093306D01*
X173813582Y-101079758D01*
X173837500Y-101075000D01*
X173962500Y-101075000D01*
X173986418Y-101079758D01*
G37*
G36*
X165379850Y-100825964D02*
G01*
X165424317Y-100831123D01*
X165439510Y-100837831D01*
X165461104Y-100842127D01*
X165484222Y-100857574D01*
X165501567Y-100865233D01*
X165513412Y-100877078D01*
X165534099Y-100890901D01*
X165547921Y-100911587D01*
X165559766Y-100923432D01*
X165567423Y-100940774D01*
X165582873Y-100963896D01*
X165587168Y-100985491D01*
X165593876Y-101000682D01*
X165599033Y-101045139D01*
X165600000Y-101050000D01*
X165600000Y-101550000D01*
X165599032Y-101554862D01*
X165593876Y-101599317D01*
X165587168Y-101614506D01*
X165582873Y-101636104D01*
X165567422Y-101659227D01*
X165559766Y-101676567D01*
X165547923Y-101688409D01*
X165534099Y-101709099D01*
X165513409Y-101722923D01*
X165501567Y-101734766D01*
X165484227Y-101742422D01*
X165461104Y-101757873D01*
X165439506Y-101762168D01*
X165424317Y-101768876D01*
X165379861Y-101774032D01*
X165375000Y-101775000D01*
X164925000Y-101775000D01*
X164920138Y-101774033D01*
X164875682Y-101768876D01*
X164860491Y-101762168D01*
X164838896Y-101757873D01*
X164815774Y-101742423D01*
X164798432Y-101734766D01*
X164786587Y-101722921D01*
X164765901Y-101709099D01*
X164752078Y-101688412D01*
X164740233Y-101676567D01*
X164732574Y-101659222D01*
X164717127Y-101636104D01*
X164712831Y-101614510D01*
X164706123Y-101599317D01*
X164700964Y-101554849D01*
X164700000Y-101550000D01*
X164700000Y-101050000D01*
X164700964Y-101045150D01*
X164706123Y-101000682D01*
X164712832Y-100985487D01*
X164717127Y-100963896D01*
X164732573Y-100940779D01*
X164740233Y-100923432D01*
X164752080Y-100911584D01*
X164765901Y-100890901D01*
X164786584Y-100877080D01*
X164798432Y-100865233D01*
X164815779Y-100857573D01*
X164838896Y-100842127D01*
X164860487Y-100837832D01*
X164875682Y-100831123D01*
X164920151Y-100825964D01*
X164925000Y-100825000D01*
X165375000Y-100825000D01*
X165379850Y-100825964D01*
G37*
G36*
X166929850Y-100825964D02*
G01*
X166974317Y-100831123D01*
X166989510Y-100837831D01*
X167011104Y-100842127D01*
X167034222Y-100857574D01*
X167051567Y-100865233D01*
X167063412Y-100877078D01*
X167084099Y-100890901D01*
X167097921Y-100911587D01*
X167109766Y-100923432D01*
X167117423Y-100940774D01*
X167132873Y-100963896D01*
X167137168Y-100985491D01*
X167143876Y-101000682D01*
X167149033Y-101045139D01*
X167150000Y-101050000D01*
X167150000Y-101550000D01*
X167149032Y-101554862D01*
X167143876Y-101599317D01*
X167137168Y-101614506D01*
X167132873Y-101636104D01*
X167117422Y-101659227D01*
X167109766Y-101676567D01*
X167097923Y-101688409D01*
X167084099Y-101709099D01*
X167063409Y-101722923D01*
X167051567Y-101734766D01*
X167034227Y-101742422D01*
X167011104Y-101757873D01*
X166989506Y-101762168D01*
X166974317Y-101768876D01*
X166929861Y-101774032D01*
X166925000Y-101775000D01*
X166475000Y-101775000D01*
X166470138Y-101774033D01*
X166425682Y-101768876D01*
X166410491Y-101762168D01*
X166388896Y-101757873D01*
X166365774Y-101742423D01*
X166348432Y-101734766D01*
X166336587Y-101722921D01*
X166315901Y-101709099D01*
X166302078Y-101688412D01*
X166290233Y-101676567D01*
X166282574Y-101659222D01*
X166267127Y-101636104D01*
X166262831Y-101614510D01*
X166256123Y-101599317D01*
X166250964Y-101554849D01*
X166250000Y-101550000D01*
X166250000Y-101050000D01*
X166250964Y-101045150D01*
X166256123Y-101000682D01*
X166262832Y-100985487D01*
X166267127Y-100963896D01*
X166282573Y-100940779D01*
X166290233Y-100923432D01*
X166302080Y-100911584D01*
X166315901Y-100890901D01*
X166336584Y-100877080D01*
X166348432Y-100865233D01*
X166365779Y-100857573D01*
X166388896Y-100842127D01*
X166410487Y-100837832D01*
X166425682Y-100831123D01*
X166470151Y-100825964D01*
X166475000Y-100825000D01*
X166925000Y-100825000D01*
X166929850Y-100825964D01*
G37*
G36*
X176554850Y-100600964D02*
G01*
X176599317Y-100606123D01*
X176614510Y-100612831D01*
X176636104Y-100617127D01*
X176659222Y-100632574D01*
X176676567Y-100640233D01*
X176688412Y-100652078D01*
X176709099Y-100665901D01*
X176722921Y-100686587D01*
X176734766Y-100698432D01*
X176742423Y-100715774D01*
X176757873Y-100738896D01*
X176762168Y-100760491D01*
X176768876Y-100775682D01*
X176774033Y-100820139D01*
X176775000Y-100825000D01*
X176775000Y-101275000D01*
X176774032Y-101279862D01*
X176768876Y-101324317D01*
X176762168Y-101339506D01*
X176757873Y-101361104D01*
X176742422Y-101384227D01*
X176734766Y-101401567D01*
X176722923Y-101413409D01*
X176709099Y-101434099D01*
X176688409Y-101447923D01*
X176676567Y-101459766D01*
X176659227Y-101467422D01*
X176636104Y-101482873D01*
X176614506Y-101487168D01*
X176599317Y-101493876D01*
X176554861Y-101499032D01*
X176550000Y-101500000D01*
X176050000Y-101500000D01*
X176045138Y-101499033D01*
X176000682Y-101493876D01*
X175985491Y-101487168D01*
X175963896Y-101482873D01*
X175940774Y-101467423D01*
X175923432Y-101459766D01*
X175911587Y-101447921D01*
X175890901Y-101434099D01*
X175877078Y-101413412D01*
X175865233Y-101401567D01*
X175857574Y-101384222D01*
X175842127Y-101361104D01*
X175837831Y-101339510D01*
X175831123Y-101324317D01*
X175825964Y-101279849D01*
X175825000Y-101275000D01*
X175825000Y-100825000D01*
X175825964Y-100820150D01*
X175831123Y-100775682D01*
X175837832Y-100760487D01*
X175842127Y-100738896D01*
X175857573Y-100715779D01*
X175865233Y-100698432D01*
X175877080Y-100686584D01*
X175890901Y-100665901D01*
X175911584Y-100652080D01*
X175923432Y-100640233D01*
X175940779Y-100632573D01*
X175963896Y-100617127D01*
X175985487Y-100612832D01*
X176000682Y-100606123D01*
X176045151Y-100600964D01*
X176050000Y-100600000D01*
X176550000Y-100600000D01*
X176554850Y-100600964D01*
G37*
G36*
X168526537Y-99640224D02*
G01*
X168591421Y-99683579D01*
X168634776Y-99748463D01*
X168650000Y-99825000D01*
X168650000Y-100375000D01*
X168634776Y-100451537D01*
X168591421Y-100516421D01*
X168526537Y-100559776D01*
X168450000Y-100575000D01*
X168050000Y-100575000D01*
X167973463Y-100559776D01*
X167908579Y-100516421D01*
X167865224Y-100451537D01*
X167850000Y-100375000D01*
X167850000Y-99825000D01*
X167865224Y-99748463D01*
X167908579Y-99683579D01*
X167973463Y-99640224D01*
X168050000Y-99625000D01*
X168450000Y-99625000D01*
X168526537Y-99640224D01*
G37*
G36*
X170176537Y-99640224D02*
G01*
X170241421Y-99683579D01*
X170284776Y-99748463D01*
X170300000Y-99825000D01*
X170300000Y-100375000D01*
X170284776Y-100451537D01*
X170241421Y-100516421D01*
X170176537Y-100559776D01*
X170100000Y-100575000D01*
X169700000Y-100575000D01*
X169623463Y-100559776D01*
X169558579Y-100516421D01*
X169515224Y-100451537D01*
X169500000Y-100375000D01*
X169500000Y-99825000D01*
X169515224Y-99748463D01*
X169558579Y-99683579D01*
X169623463Y-99640224D01*
X169700000Y-99625000D01*
X170100000Y-99625000D01*
X170176537Y-99640224D01*
G37*
G36*
X163051537Y-99515224D02*
G01*
X163116421Y-99558579D01*
X163159776Y-99623463D01*
X163175000Y-99700000D01*
X163175000Y-100100000D01*
X163159776Y-100176537D01*
X163116421Y-100241421D01*
X163051537Y-100284776D01*
X162975000Y-100300000D01*
X162425000Y-100300000D01*
X162348463Y-100284776D01*
X162283579Y-100241421D01*
X162240224Y-100176537D01*
X162225000Y-100100000D01*
X162225000Y-99700000D01*
X162240224Y-99623463D01*
X162283579Y-99558579D01*
X162348463Y-99515224D01*
X162425000Y-99500000D01*
X162975000Y-99500000D01*
X163051537Y-99515224D01*
G37*
G36*
X164551537Y-99515224D02*
G01*
X164616421Y-99558579D01*
X164659776Y-99623463D01*
X164675000Y-99700000D01*
X164675000Y-100100000D01*
X164659776Y-100176537D01*
X164616421Y-100241421D01*
X164551537Y-100284776D01*
X164475000Y-100300000D01*
X163925000Y-100300000D01*
X163848463Y-100284776D01*
X163783579Y-100241421D01*
X163740224Y-100176537D01*
X163725000Y-100100000D01*
X163725000Y-99700000D01*
X163740224Y-99623463D01*
X163783579Y-99558579D01*
X163848463Y-99515224D01*
X163925000Y-99500000D01*
X164475000Y-99500000D01*
X164551537Y-99515224D01*
G37*
G36*
X176554850Y-99050964D02*
G01*
X176599317Y-99056123D01*
X176614510Y-99062831D01*
X176636104Y-99067127D01*
X176659222Y-99082574D01*
X176676567Y-99090233D01*
X176688412Y-99102078D01*
X176709099Y-99115901D01*
X176722921Y-99136587D01*
X176734766Y-99148432D01*
X176742423Y-99165774D01*
X176757873Y-99188896D01*
X176762168Y-99210491D01*
X176768876Y-99225682D01*
X176774033Y-99270139D01*
X176775000Y-99275000D01*
X176775000Y-99725000D01*
X176774032Y-99729862D01*
X176768876Y-99774317D01*
X176762168Y-99789506D01*
X176757873Y-99811104D01*
X176742422Y-99834227D01*
X176734766Y-99851567D01*
X176722923Y-99863409D01*
X176709099Y-99884099D01*
X176688409Y-99897923D01*
X176676567Y-99909766D01*
X176659227Y-99917422D01*
X176636104Y-99932873D01*
X176614506Y-99937168D01*
X176599317Y-99943876D01*
X176554861Y-99949032D01*
X176550000Y-99950000D01*
X176050000Y-99950000D01*
X176045138Y-99949033D01*
X176000682Y-99943876D01*
X175985491Y-99937168D01*
X175963896Y-99932873D01*
X175940774Y-99917423D01*
X175923432Y-99909766D01*
X175911587Y-99897921D01*
X175890901Y-99884099D01*
X175877078Y-99863412D01*
X175865233Y-99851567D01*
X175857574Y-99834222D01*
X175842127Y-99811104D01*
X175837831Y-99789510D01*
X175831123Y-99774317D01*
X175825964Y-99729849D01*
X175825000Y-99725000D01*
X175825000Y-99275000D01*
X175825964Y-99270150D01*
X175831123Y-99225682D01*
X175837832Y-99210487D01*
X175842127Y-99188896D01*
X175857573Y-99165779D01*
X175865233Y-99148432D01*
X175877080Y-99136584D01*
X175890901Y-99115901D01*
X175911584Y-99102080D01*
X175923432Y-99090233D01*
X175940779Y-99082573D01*
X175963896Y-99067127D01*
X175985487Y-99062832D01*
X176000682Y-99056123D01*
X176045151Y-99050964D01*
X176050000Y-99050000D01*
X176550000Y-99050000D01*
X176554850Y-99050964D01*
G37*
G36*
X167729850Y-98125964D02*
G01*
X167774317Y-98131123D01*
X167789510Y-98137831D01*
X167811104Y-98142127D01*
X167834222Y-98157574D01*
X167851567Y-98165233D01*
X167863412Y-98177078D01*
X167884099Y-98190901D01*
X167897921Y-98211587D01*
X167909766Y-98223432D01*
X167917423Y-98240774D01*
X167932873Y-98263896D01*
X167937168Y-98285491D01*
X167943876Y-98300682D01*
X167949033Y-98345139D01*
X167950000Y-98350000D01*
X167950000Y-98850000D01*
X167949032Y-98854862D01*
X167943876Y-98899317D01*
X167937168Y-98914506D01*
X167932873Y-98936104D01*
X167917422Y-98959227D01*
X167909766Y-98976567D01*
X167897923Y-98988409D01*
X167884099Y-99009099D01*
X167863409Y-99022923D01*
X167851567Y-99034766D01*
X167834227Y-99042422D01*
X167811104Y-99057873D01*
X167789506Y-99062168D01*
X167774317Y-99068876D01*
X167729861Y-99074032D01*
X167725000Y-99075000D01*
X167275000Y-99075000D01*
X167270138Y-99074033D01*
X167225682Y-99068876D01*
X167210491Y-99062168D01*
X167188896Y-99057873D01*
X167165774Y-99042423D01*
X167148432Y-99034766D01*
X167136587Y-99022921D01*
X167115901Y-99009099D01*
X167102078Y-98988412D01*
X167090233Y-98976567D01*
X167082574Y-98959222D01*
X167067127Y-98936104D01*
X167062831Y-98914510D01*
X167056123Y-98899317D01*
X167050964Y-98854849D01*
X167050000Y-98850000D01*
X167050000Y-98350000D01*
X167050964Y-98345150D01*
X167056123Y-98300682D01*
X167062832Y-98285487D01*
X167067127Y-98263896D01*
X167082573Y-98240779D01*
X167090233Y-98223432D01*
X167102080Y-98211584D01*
X167115901Y-98190901D01*
X167136584Y-98177080D01*
X167148432Y-98165233D01*
X167165779Y-98157573D01*
X167188896Y-98142127D01*
X167210487Y-98137832D01*
X167225682Y-98131123D01*
X167270151Y-98125964D01*
X167275000Y-98125000D01*
X167725000Y-98125000D01*
X167729850Y-98125964D01*
G37*
G36*
X169279850Y-98125964D02*
G01*
X169324317Y-98131123D01*
X169339510Y-98137831D01*
X169361104Y-98142127D01*
X169384222Y-98157574D01*
X169401567Y-98165233D01*
X169413412Y-98177078D01*
X169434099Y-98190901D01*
X169447921Y-98211587D01*
X169459766Y-98223432D01*
X169467423Y-98240774D01*
X169482873Y-98263896D01*
X169487168Y-98285491D01*
X169493876Y-98300682D01*
X169499033Y-98345139D01*
X169500000Y-98350000D01*
X169500000Y-98850000D01*
X169499032Y-98854862D01*
X169493876Y-98899317D01*
X169487168Y-98914506D01*
X169482873Y-98936104D01*
X169467422Y-98959227D01*
X169459766Y-98976567D01*
X169447923Y-98988409D01*
X169434099Y-99009099D01*
X169413409Y-99022923D01*
X169401567Y-99034766D01*
X169384227Y-99042422D01*
X169361104Y-99057873D01*
X169339506Y-99062168D01*
X169324317Y-99068876D01*
X169279861Y-99074032D01*
X169275000Y-99075000D01*
X168825000Y-99075000D01*
X168820138Y-99074033D01*
X168775682Y-99068876D01*
X168760491Y-99062168D01*
X168738896Y-99057873D01*
X168715774Y-99042423D01*
X168698432Y-99034766D01*
X168686587Y-99022921D01*
X168665901Y-99009099D01*
X168652078Y-98988412D01*
X168640233Y-98976567D01*
X168632574Y-98959222D01*
X168617127Y-98936104D01*
X168612831Y-98914510D01*
X168606123Y-98899317D01*
X168600964Y-98854849D01*
X168600000Y-98850000D01*
X168600000Y-98350000D01*
X168600964Y-98345150D01*
X168606123Y-98300682D01*
X168612832Y-98285487D01*
X168617127Y-98263896D01*
X168632573Y-98240779D01*
X168640233Y-98223432D01*
X168652080Y-98211584D01*
X168665901Y-98190901D01*
X168686584Y-98177080D01*
X168698432Y-98165233D01*
X168715779Y-98157573D01*
X168738896Y-98142127D01*
X168760487Y-98137832D01*
X168775682Y-98131123D01*
X168820151Y-98125964D01*
X168825000Y-98125000D01*
X169275000Y-98125000D01*
X169279850Y-98125964D01*
G37*
G36*
X173426537Y-98140224D02*
G01*
X173491421Y-98183579D01*
X173534776Y-98248463D01*
X173550000Y-98325000D01*
X173550000Y-98875000D01*
X173534776Y-98951537D01*
X173491421Y-99016421D01*
X173426537Y-99059776D01*
X173350000Y-99075000D01*
X172950000Y-99075000D01*
X172873463Y-99059776D01*
X172808579Y-99016421D01*
X172765224Y-98951537D01*
X172750000Y-98875000D01*
X172750000Y-98325000D01*
X172765224Y-98248463D01*
X172808579Y-98183579D01*
X172873463Y-98140224D01*
X172950000Y-98125000D01*
X173350000Y-98125000D01*
X173426537Y-98140224D01*
G37*
G36*
X175076537Y-98140224D02*
G01*
X175141421Y-98183579D01*
X175184776Y-98248463D01*
X175200000Y-98325000D01*
X175200000Y-98875000D01*
X175184776Y-98951537D01*
X175141421Y-99016421D01*
X175076537Y-99059776D01*
X175000000Y-99075000D01*
X174600000Y-99075000D01*
X174523463Y-99059776D01*
X174458579Y-99016421D01*
X174415224Y-98951537D01*
X174400000Y-98875000D01*
X174400000Y-98325000D01*
X174415224Y-98248463D01*
X174458579Y-98183579D01*
X174523463Y-98140224D01*
X174600000Y-98125000D01*
X175000000Y-98125000D01*
X175076537Y-98140224D01*
G37*
G36*
X163051537Y-97865224D02*
G01*
X163116421Y-97908579D01*
X163159776Y-97973463D01*
X163175000Y-98050000D01*
X163175000Y-98450000D01*
X163159776Y-98526537D01*
X163116421Y-98591421D01*
X163051537Y-98634776D01*
X162975000Y-98650000D01*
X162425000Y-98650000D01*
X162348463Y-98634776D01*
X162283579Y-98591421D01*
X162240224Y-98526537D01*
X162225000Y-98450000D01*
X162225000Y-98050000D01*
X162240224Y-97973463D01*
X162283579Y-97908579D01*
X162348463Y-97865224D01*
X162425000Y-97850000D01*
X162975000Y-97850000D01*
X163051537Y-97865224D01*
G37*
G36*
X164551537Y-97865224D02*
G01*
X164616421Y-97908579D01*
X164659776Y-97973463D01*
X164675000Y-98050000D01*
X164675000Y-98450000D01*
X164659776Y-98526537D01*
X164616421Y-98591421D01*
X164551537Y-98634776D01*
X164475000Y-98650000D01*
X163925000Y-98650000D01*
X163848463Y-98634776D01*
X163783579Y-98591421D01*
X163740224Y-98526537D01*
X163725000Y-98450000D01*
X163725000Y-98050000D01*
X163740224Y-97973463D01*
X163783579Y-97908579D01*
X163848463Y-97865224D01*
X163925000Y-97850000D01*
X164475000Y-97850000D01*
X164551537Y-97865224D01*
G37*
M02*
