%TF.GenerationSoftware,KiCad,Pcbnew,10.0.0*%
%TF.CreationDate,2026-04-03T17:57:46+01:00*%
%TF.ProjectId,AD8232_Board,41443832-3332-45f4-926f-6172642e6b69,rev?*%
%TF.SameCoordinates,Original*%
%TF.FileFunction,Paste,Top*%
%TF.FilePolarity,Positive*%
%FSLAX46Y46*%
G04 Gerber Fmt 4.6, Leading zero omitted, Abs format (unit mm)*
G04 Created by KiCad (PCBNEW 10.0.0) date 2026-04-03 17:57:46*
%MOMM*%
%LPD*%
G01*
G04 APERTURE LIST*
G04 Aperture macros list*
%AMRoundRect*
0 Rectangle with rounded corners*
0 $1 Rounding radius*
0 $2 $3 $4 $5 $6 $7 $8 $9 X,Y pos of 4 corners*
0 Add a 4 corners polygon primitive as box body*
4,1,4,$2,$3,$4,$5,$6,$7,$8,$9,$2,$3,0*
0 Add four circle primitives for the rounded corners*
1,1,$1+$1,$2,$3*
1,1,$1+$1,$4,$5*
1,1,$1+$1,$6,$7*
1,1,$1+$1,$8,$9*
0 Add four rect primitives between the rounded corners*
20,1,$1+$1,$2,$3,$4,$5,0*
20,1,$1+$1,$4,$5,$6,$7,0*
20,1,$1+$1,$6,$7,$8,$9,0*
20,1,$1+$1,$8,$9,$2,$3,0*%
G04 Aperture macros list end*
%ADD10RoundRect,0.200000X-0.200000X-0.275000X0.200000X-0.275000X0.200000X0.275000X-0.200000X0.275000X0*%
%ADD11RoundRect,0.250000X-0.262500X-0.450000X0.262500X-0.450000X0.262500X0.450000X-0.262500X0.450000X0*%
%ADD12RoundRect,0.225000X-0.225000X-0.250000X0.225000X-0.250000X0.225000X0.250000X-0.225000X0.250000X0*%
%ADD13RoundRect,0.225000X0.225000X0.250000X-0.225000X0.250000X-0.225000X-0.250000X0.225000X-0.250000X0*%
%ADD14RoundRect,0.225000X0.250000X-0.225000X0.250000X0.225000X-0.250000X0.225000X-0.250000X-0.225000X0*%
%ADD15RoundRect,0.250000X-0.312500X-0.625000X0.312500X-0.625000X0.312500X0.625000X-0.312500X0.625000X0*%
%ADD16RoundRect,0.200000X0.275000X-0.200000X0.275000X0.200000X-0.275000X0.200000X-0.275000X-0.200000X0*%
%ADD17RoundRect,0.250000X0.262500X0.450000X-0.262500X0.450000X-0.262500X-0.450000X0.262500X-0.450000X0*%
%ADD18RoundRect,0.250000X-0.450000X0.262500X-0.450000X-0.262500X0.450000X-0.262500X0.450000X0.262500X0*%
%ADD19RoundRect,0.250000X0.450000X-0.262500X0.450000X0.262500X-0.450000X0.262500X-0.450000X-0.262500X0*%
%ADD20RoundRect,0.200000X0.200000X0.275000X-0.200000X0.275000X-0.200000X-0.275000X0.200000X-0.275000X0*%
%ADD21RoundRect,0.218750X-0.218750X-0.256250X0.218750X-0.256250X0.218750X0.256250X-0.218750X0.256250X0*%
%ADD22RoundRect,0.062500X-0.062500X-0.362500X0.062500X-0.362500X0.062500X0.362500X-0.062500X0.362500X0*%
%ADD23RoundRect,0.062500X-0.362500X-0.062500X0.362500X-0.062500X0.362500X0.062500X-0.362500X0.062500X0*%
%ADD24RoundRect,0.250000X-0.275000X-0.275000X0.275000X-0.275000X0.275000X0.275000X-0.275000X0.275000X0*%
G04 APERTURE END LIST*
D10*
%TO.C,R12*%
X159900000Y-102500000D03*
X161550000Y-102500000D03*
%TD*%
%TO.C,R13*%
X159900000Y-104000000D03*
X161550000Y-104000000D03*
%TD*%
D11*
%TO.C,R2*%
X167525000Y-104900000D03*
X165700000Y-104900000D03*
%TD*%
D12*
%TO.C,C1*%
X164050000Y-106600000D03*
X165600000Y-106600000D03*
%TD*%
D11*
%TO.C,R1*%
X165675000Y-103000000D03*
X167500000Y-103000000D03*
%TD*%
D12*
%TO.C,C6*%
X166700000Y-101300000D03*
X165150000Y-101300000D03*
%TD*%
%TO.C,C7*%
X168600000Y-108100000D03*
X167050000Y-108100000D03*
%TD*%
D13*
%TO.C,C2*%
X166750000Y-109900000D03*
X168300000Y-109900000D03*
%TD*%
D12*
%TO.C,C3*%
X169800000Y-113400000D03*
X168250000Y-113400000D03*
%TD*%
D14*
%TO.C,C4*%
X176300000Y-99500000D03*
X176300000Y-101050000D03*
%TD*%
D13*
%TO.C,C5*%
X167500000Y-98600000D03*
X169050000Y-98600000D03*
%TD*%
D15*
%TO.C,R5*%
X166600000Y-113000000D03*
X163675000Y-113000000D03*
%TD*%
D16*
%TO.C,R4*%
X162700000Y-98250000D03*
X162700000Y-99900000D03*
%TD*%
D17*
%TO.C,R9*%
X169875000Y-109900000D03*
X171700000Y-109900000D03*
%TD*%
D18*
%TO.C,R15*%
X174800000Y-113425000D03*
X174800000Y-111600000D03*
%TD*%
D19*
%TO.C,R8*%
X161800000Y-108200000D03*
X161800000Y-110025000D03*
%TD*%
D10*
%TO.C,R11*%
X169900000Y-100100000D03*
X168250000Y-100100000D03*
%TD*%
D16*
%TO.C,R3*%
X164200000Y-98250000D03*
X164200000Y-99900000D03*
%TD*%
D10*
%TO.C,R7*%
X171625000Y-108100000D03*
X169975000Y-108100000D03*
%TD*%
D20*
%TO.C,R10*%
X173150000Y-98600000D03*
X174800000Y-98600000D03*
%TD*%
D18*
%TO.C,R6*%
X174800000Y-110025000D03*
X174800000Y-108200000D03*
%TD*%
D21*
%TO.C,D1*%
X172900000Y-113500000D03*
X171325000Y-113500000D03*
%TD*%
D20*
%TO.C,R14*%
X164000000Y-108100000D03*
X165650000Y-108100000D03*
%TD*%
D22*
%TO.C,U1*%
X171900000Y-101500000D03*
X172400000Y-101500000D03*
X172900000Y-101500000D03*
X173400000Y-101500000D03*
X173900000Y-101500000D03*
D23*
X174825000Y-102425000D03*
X174825000Y-102925000D03*
X174825000Y-103425000D03*
X174825000Y-103925000D03*
X174825000Y-104425000D03*
D22*
X173900000Y-105350000D03*
X173400000Y-105350000D03*
X172900000Y-105350000D03*
X172400000Y-105350000D03*
X171900000Y-105350000D03*
D23*
X170975000Y-104425000D03*
X170975000Y-103925000D03*
X170975000Y-103425000D03*
X170975000Y-102925000D03*
X170975000Y-102425000D03*
D24*
X173550000Y-104075000D03*
X173550000Y-102775000D03*
X172250000Y-104075000D03*
X172250000Y-102775000D03*
%TD*%
M02*
