%TF.GenerationSoftware,KiCad,Pcbnew,10.0.0*%
%TF.CreationDate,2026-04-03T17:57:46+01:00*%
%TF.ProjectId,AD8232_Board,41443832-3332-45f4-926f-6172642e6b69,rev?*%
%TF.SameCoordinates,Original*%
%TF.FileFunction,Soldermask,Bot*%
%TF.FilePolarity,Negative*%
%FSLAX46Y46*%
G04 Gerber Fmt 4.6, Leading zero omitted, Abs format (unit mm)*
G04 Created by KiCad (PCBNEW 10.0.0) date 2026-04-03 17:57:46*
%MOMM*%
%LPD*%
G01*
G04 APERTURE LIST*
G04 APERTURE END LIST*
G36*
X179046742Y-111546601D02*
G01*
X179200687Y-111610367D01*
X179339234Y-111702941D01*
X179457059Y-111820766D01*
X179549633Y-111959313D01*
X179613399Y-112113258D01*
X179645907Y-112276685D01*
X179645907Y-112443315D01*
X179613399Y-112606742D01*
X179549633Y-112760687D01*
X179457059Y-112899234D01*
X179339234Y-113017059D01*
X179200687Y-113109633D01*
X179046742Y-113173399D01*
X178883315Y-113205907D01*
X178716685Y-113205907D01*
X178553258Y-113173399D01*
X178399313Y-113109633D01*
X178260766Y-113017059D01*
X178142941Y-112899234D01*
X178050367Y-112760687D01*
X177986601Y-112606742D01*
X177954093Y-112443315D01*
X177954093Y-112276685D01*
X177986601Y-112113258D01*
X178050367Y-111959313D01*
X178142941Y-111820766D01*
X178260766Y-111702941D01*
X178399313Y-111610367D01*
X178553258Y-111546601D01*
X178716685Y-111514093D01*
X178883315Y-111514093D01*
X179046742Y-111546601D01*
G37*
G36*
X157646742Y-111006601D02*
G01*
X157800687Y-111070367D01*
X157939234Y-111162941D01*
X158057059Y-111280766D01*
X158149633Y-111419313D01*
X158213399Y-111573258D01*
X158245907Y-111736685D01*
X158245907Y-111903315D01*
X158213399Y-112066742D01*
X158149633Y-112220687D01*
X158057059Y-112359234D01*
X157939234Y-112477059D01*
X157800687Y-112569633D01*
X157646742Y-112633399D01*
X157483315Y-112665907D01*
X157316685Y-112665907D01*
X157153258Y-112633399D01*
X156999313Y-112569633D01*
X156860766Y-112477059D01*
X156742941Y-112359234D01*
X156650367Y-112220687D01*
X156586601Y-112066742D01*
X156554093Y-111903315D01*
X156554093Y-111736685D01*
X156586601Y-111573258D01*
X156650367Y-111419313D01*
X156742941Y-111280766D01*
X156860766Y-111162941D01*
X156999313Y-111070367D01*
X157153258Y-111006601D01*
X157316685Y-110974093D01*
X157483315Y-110974093D01*
X157646742Y-111006601D01*
G37*
G36*
X179046742Y-109006601D02*
G01*
X179200687Y-109070367D01*
X179339234Y-109162941D01*
X179457059Y-109280766D01*
X179549633Y-109419313D01*
X179613399Y-109573258D01*
X179645907Y-109736685D01*
X179645907Y-109903315D01*
X179613399Y-110066742D01*
X179549633Y-110220687D01*
X179457059Y-110359234D01*
X179339234Y-110477059D01*
X179200687Y-110569633D01*
X179046742Y-110633399D01*
X178883315Y-110665907D01*
X178716685Y-110665907D01*
X178553258Y-110633399D01*
X178399313Y-110569633D01*
X178260766Y-110477059D01*
X178142941Y-110359234D01*
X178050367Y-110220687D01*
X177986601Y-110066742D01*
X177954093Y-109903315D01*
X177954093Y-109736685D01*
X177986601Y-109573258D01*
X178050367Y-109419313D01*
X178142941Y-109280766D01*
X178260766Y-109162941D01*
X178399313Y-109070367D01*
X178553258Y-109006601D01*
X178716685Y-108974093D01*
X178883315Y-108974093D01*
X179046742Y-109006601D01*
G37*
G36*
X157646742Y-108466601D02*
G01*
X157800687Y-108530367D01*
X157939234Y-108622941D01*
X158057059Y-108740766D01*
X158149633Y-108879313D01*
X158213399Y-109033258D01*
X158245907Y-109196685D01*
X158245907Y-109363315D01*
X158213399Y-109526742D01*
X158149633Y-109680687D01*
X158057059Y-109819234D01*
X157939234Y-109937059D01*
X157800687Y-110029633D01*
X157646742Y-110093399D01*
X157483315Y-110125907D01*
X157316685Y-110125907D01*
X157153258Y-110093399D01*
X156999313Y-110029633D01*
X156860766Y-109937059D01*
X156742941Y-109819234D01*
X156650367Y-109680687D01*
X156586601Y-109526742D01*
X156554093Y-109363315D01*
X156554093Y-109196685D01*
X156586601Y-109033258D01*
X156650367Y-108879313D01*
X156742941Y-108740766D01*
X156860766Y-108622941D01*
X156999313Y-108530367D01*
X157153258Y-108466601D01*
X157316685Y-108434093D01*
X157483315Y-108434093D01*
X157646742Y-108466601D01*
G37*
G36*
X179046742Y-106466601D02*
G01*
X179200687Y-106530367D01*
X179339234Y-106622941D01*
X179457059Y-106740766D01*
X179549633Y-106879313D01*
X179613399Y-107033258D01*
X179645907Y-107196685D01*
X179645907Y-107363315D01*
X179613399Y-107526742D01*
X179549633Y-107680687D01*
X179457059Y-107819234D01*
X179339234Y-107937059D01*
X179200687Y-108029633D01*
X179046742Y-108093399D01*
X178883315Y-108125907D01*
X178716685Y-108125907D01*
X178553258Y-108093399D01*
X178399313Y-108029633D01*
X178260766Y-107937059D01*
X178142941Y-107819234D01*
X178050367Y-107680687D01*
X177986601Y-107526742D01*
X177954093Y-107363315D01*
X177954093Y-107196685D01*
X177986601Y-107033258D01*
X178050367Y-106879313D01*
X178142941Y-106740766D01*
X178260766Y-106622941D01*
X178399313Y-106530367D01*
X178553258Y-106466601D01*
X178716685Y-106434093D01*
X178883315Y-106434093D01*
X179046742Y-106466601D01*
G37*
G36*
X157646742Y-105926601D02*
G01*
X157800687Y-105990367D01*
X157939234Y-106082941D01*
X158057059Y-106200766D01*
X158149633Y-106339313D01*
X158213399Y-106493258D01*
X158245907Y-106656685D01*
X158245907Y-106823315D01*
X158213399Y-106986742D01*
X158149633Y-107140687D01*
X158057059Y-107279234D01*
X157939234Y-107397059D01*
X157800687Y-107489633D01*
X157646742Y-107553399D01*
X157483315Y-107585907D01*
X157316685Y-107585907D01*
X157153258Y-107553399D01*
X156999313Y-107489633D01*
X156860766Y-107397059D01*
X156742941Y-107279234D01*
X156650367Y-107140687D01*
X156586601Y-106986742D01*
X156554093Y-106823315D01*
X156554093Y-106656685D01*
X156586601Y-106493258D01*
X156650367Y-106339313D01*
X156742941Y-106200766D01*
X156860766Y-106082941D01*
X156999313Y-105990367D01*
X157153258Y-105926601D01*
X157316685Y-105894093D01*
X157483315Y-105894093D01*
X157646742Y-105926601D01*
G37*
G36*
X179046742Y-103926601D02*
G01*
X179200687Y-103990367D01*
X179339234Y-104082941D01*
X179457059Y-104200766D01*
X179549633Y-104339313D01*
X179613399Y-104493258D01*
X179645907Y-104656685D01*
X179645907Y-104823315D01*
X179613399Y-104986742D01*
X179549633Y-105140687D01*
X179457059Y-105279234D01*
X179339234Y-105397059D01*
X179200687Y-105489633D01*
X179046742Y-105553399D01*
X178883315Y-105585907D01*
X178716685Y-105585907D01*
X178553258Y-105553399D01*
X178399313Y-105489633D01*
X178260766Y-105397059D01*
X178142941Y-105279234D01*
X178050367Y-105140687D01*
X177986601Y-104986742D01*
X177954093Y-104823315D01*
X177954093Y-104656685D01*
X177986601Y-104493258D01*
X178050367Y-104339313D01*
X178142941Y-104200766D01*
X178260766Y-104082941D01*
X178399313Y-103990367D01*
X178553258Y-103926601D01*
X178716685Y-103894093D01*
X178883315Y-103894093D01*
X179046742Y-103926601D01*
G37*
G36*
X157646742Y-103386601D02*
G01*
X157800687Y-103450367D01*
X157939234Y-103542941D01*
X158057059Y-103660766D01*
X158149633Y-103799313D01*
X158213399Y-103953258D01*
X158245907Y-104116685D01*
X158245907Y-104283315D01*
X158213399Y-104446742D01*
X158149633Y-104600687D01*
X158057059Y-104739234D01*
X157939234Y-104857059D01*
X157800687Y-104949633D01*
X157646742Y-105013399D01*
X157483315Y-105045907D01*
X157316685Y-105045907D01*
X157153258Y-105013399D01*
X156999313Y-104949633D01*
X156860766Y-104857059D01*
X156742941Y-104739234D01*
X156650367Y-104600687D01*
X156586601Y-104446742D01*
X156554093Y-104283315D01*
X156554093Y-104116685D01*
X156586601Y-103953258D01*
X156650367Y-103799313D01*
X156742941Y-103660766D01*
X156860766Y-103542941D01*
X156999313Y-103450367D01*
X157153258Y-103386601D01*
X157316685Y-103354093D01*
X157483315Y-103354093D01*
X157646742Y-103386601D01*
G37*
G36*
X179650000Y-103050000D02*
G01*
X177950000Y-103050000D01*
X177950000Y-101350000D01*
X179650000Y-101350000D01*
X179650000Y-103050000D01*
G37*
G36*
X158250000Y-102510000D02*
G01*
X156550000Y-102510000D01*
X156550000Y-100810000D01*
X158250000Y-100810000D01*
X158250000Y-102510000D01*
G37*
M02*
