%TF.GenerationSoftware,KiCad,Pcbnew,10.0.0*%
%TF.CreationDate,2026-04-03T17:57:46+01:00*%
%TF.ProjectId,AD8232_Board,41443832-3332-45f4-926f-6172642e6b69,rev?*%
%TF.SameCoordinates,Original*%
%TF.FileFunction,Copper,L4,Bot*%
%TF.FilePolarity,Positive*%
%FSLAX46Y46*%
G04 Gerber Fmt 4.6, Leading zero omitted, Abs format (unit mm)*
G04 Created by KiCad (PCBNEW 10.0.0) date 2026-04-03 17:57:46*
%MOMM*%
%LPD*%
G01*
G04 APERTURE LIST*
%TA.AperFunction,ComponentPad*%
%ADD10R,1.700000X1.700000*%
%TD*%
%TA.AperFunction,ComponentPad*%
%ADD11C,1.700000*%
%TD*%
%TA.AperFunction,ViaPad*%
%ADD12C,0.600000*%
%TD*%
%TA.AperFunction,Conductor*%
%ADD13C,0.500000*%
%TD*%
%TA.AperFunction,Conductor*%
%ADD14C,0.200000*%
%TD*%
G04 APERTURE END LIST*
D10*
%TO.P,J1,1,Pin_1_1*%
%TO.N,LA*%
X157400000Y-101660000D03*
D11*
%TO.P,J1,2,Pin_2_2*%
%TO.N,RA*%
X157400000Y-104200000D03*
%TO.P,J1,3,Pin_3_3*%
%TO.N,RL*%
X157400000Y-106740000D03*
%TO.P,J1,4,Pin_4_4*%
%TO.N,SIGNAL OUTPUT*%
X157400000Y-109280000D03*
%TO.P,J1,5,Pin_5_5*%
%TO.N,unconnected-(J1-Pin_5-Pad5)*%
X157400000Y-111820000D03*
%TD*%
%TO.P,J2,5,Pin_5_5*%
%TO.N,LO-*%
X178800000Y-112360000D03*
%TO.P,J2,4,Pin_4_4*%
%TO.N,LO+*%
X178800000Y-109820000D03*
%TO.P,J2,3,Pin_3_3*%
%TO.N,SDN*%
X178800000Y-107280000D03*
%TO.P,J2,2,Pin_2_2*%
%TO.N,GND*%
X178800000Y-104740000D03*
D10*
%TO.P,J2,1,Pin_1_1*%
%TO.N,+3.3V*%
X178800000Y-102200000D03*
%TD*%
D12*
%TO.N,GND*%
X177700000Y-98100000D03*
X165900000Y-98600000D03*
X172900000Y-103425000D03*
X175700000Y-103000000D03*
X174700000Y-100700000D03*
X172000000Y-112400000D03*
%TO.N,Net-(U1-OPAMP+)*%
X172313854Y-106240854D03*
X172600000Y-108627000D03*
%TO.N,IAOUT*%
X172373000Y-100600000D03*
%TO.N,Net-(U1-RLD)*%
X166700000Y-107100000D03*
X167596130Y-112403870D03*
%TO.N,Net-(U1-HPSENSE)*%
X166500000Y-99900000D03*
X161400000Y-101100000D03*
%TO.N,RA*%
X163600000Y-104900000D03*
%TO.N,LA*%
X163227000Y-101400000D03*
%TO.N,SIGNAL OUTPUT*%
X161978896Y-111121104D03*
%TO.N,IAOUT*%
X163000000Y-108500000D03*
X163700000Y-111698000D03*
%TD*%
%TO.N,GND*%
D13*
X174700000Y-100700000D02*
X174700000Y-100691064D01*
%TO.N,Net-(U1-OPAMP+)*%
D14*
X172600000Y-108627000D02*
X172600000Y-106527000D01*
X172600000Y-106527000D02*
X172313854Y-106240854D01*
%TO.N,IAOUT*%
X170900000Y-100600000D02*
X172373000Y-100600000D01*
X163000000Y-108500000D02*
X170900000Y-100600000D01*
%TO.N,Net-(U1-RLD)*%
X167596130Y-112403870D02*
X166700000Y-111507740D01*
X166700000Y-111507740D02*
X166700000Y-107100000D01*
%TO.N,Net-(U1-HPSENSE)*%
X161400000Y-101100000D02*
X162600000Y-99900000D01*
X162600000Y-99900000D02*
X166500000Y-99900000D01*
%TO.N,RA*%
X162500000Y-104200000D02*
X157200000Y-104200000D01*
X163200000Y-104900000D02*
X162500000Y-104200000D01*
X163600000Y-104900000D02*
X163200000Y-104900000D01*
%TO.N,LA*%
X163227000Y-101400000D02*
X162967000Y-101660000D01*
X162967000Y-101660000D02*
X157200000Y-101660000D01*
%TO.N,SIGNAL OUTPUT*%
X159041104Y-111121104D02*
X157200000Y-109280000D01*
X161978896Y-111121104D02*
X159041104Y-111121104D01*
%TO.N,IAOUT*%
X163700000Y-109200000D02*
X163000000Y-108500000D01*
X163700000Y-111698000D02*
X163700000Y-109200000D01*
%TD*%
%TA.AperFunction,Conductor*%
%TO.N,GND*%
G36*
X180242539Y-97320185D02*
G01*
X180288294Y-97372989D01*
X180299500Y-97424500D01*
X180299500Y-101009897D01*
X180279815Y-101076936D01*
X180227011Y-101122691D01*
X180157853Y-101132635D01*
X180094297Y-101103610D01*
X180076234Y-101084208D01*
X180007547Y-100992455D01*
X180007544Y-100992452D01*
X179892335Y-100906206D01*
X179892328Y-100906202D01*
X179757482Y-100855908D01*
X179757483Y-100855908D01*
X179697883Y-100849501D01*
X179697881Y-100849500D01*
X179697873Y-100849500D01*
X179697864Y-100849500D01*
X177902129Y-100849500D01*
X177902123Y-100849501D01*
X177842516Y-100855908D01*
X177707671Y-100906202D01*
X177707664Y-100906206D01*
X177592455Y-100992452D01*
X177592452Y-100992455D01*
X177506206Y-101107664D01*
X177506202Y-101107671D01*
X177455908Y-101242517D01*
X177449501Y-101302116D01*
X177449500Y-101302135D01*
X177449500Y-103097870D01*
X177449501Y-103097876D01*
X177455908Y-103157483D01*
X177506202Y-103292328D01*
X177506206Y-103292335D01*
X177592452Y-103407544D01*
X177592455Y-103407547D01*
X177707664Y-103493793D01*
X177707671Y-103493797D01*
X177752618Y-103510561D01*
X177842517Y-103544091D01*
X177902127Y-103550500D01*
X177912685Y-103550499D01*
X177979723Y-103570179D01*
X178000372Y-103586818D01*
X178670591Y-104257037D01*
X178607007Y-104274075D01*
X178492993Y-104339901D01*
X178399901Y-104432993D01*
X178334075Y-104547007D01*
X178317037Y-104610591D01*
X177684728Y-103978282D01*
X177684727Y-103978282D01*
X177645380Y-104032439D01*
X177548904Y-104221782D01*
X177483242Y-104423869D01*
X177483242Y-104423872D01*
X177450000Y-104633753D01*
X177450000Y-104846246D01*
X177483242Y-105056127D01*
X177483242Y-105056130D01*
X177548904Y-105258217D01*
X177645375Y-105447550D01*
X177684728Y-105501716D01*
X178317037Y-104869408D01*
X178334075Y-104932993D01*
X178399901Y-105047007D01*
X178492993Y-105140099D01*
X178607007Y-105205925D01*
X178670590Y-105222962D01*
X178038282Y-105855269D01*
X178038282Y-105855270D01*
X178092452Y-105894626D01*
X178092451Y-105894626D01*
X178101495Y-105899234D01*
X178152292Y-105947208D01*
X178169087Y-106015029D01*
X178146550Y-106081164D01*
X178101499Y-106120202D01*
X178092182Y-106124949D01*
X177920213Y-106249890D01*
X177769890Y-106400213D01*
X177644951Y-106572179D01*
X177548444Y-106761585D01*
X177548443Y-106761587D01*
X177548443Y-106761588D01*
X177518232Y-106854567D01*
X177482753Y-106963760D01*
X177467634Y-107059220D01*
X177449500Y-107173713D01*
X177449500Y-107386287D01*
X177482754Y-107596243D01*
X177545905Y-107790602D01*
X177548444Y-107798414D01*
X177644951Y-107987820D01*
X177769890Y-108159786D01*
X177920213Y-108310109D01*
X178092182Y-108435050D01*
X178100946Y-108439516D01*
X178151742Y-108487491D01*
X178168536Y-108555312D01*
X178145998Y-108621447D01*
X178100946Y-108660484D01*
X178092182Y-108664949D01*
X177920213Y-108789890D01*
X177769890Y-108940213D01*
X177644951Y-109112179D01*
X177548444Y-109301585D01*
X177548443Y-109301587D01*
X177548443Y-109301588D01*
X177518232Y-109394567D01*
X177482753Y-109503760D01*
X177452387Y-109695488D01*
X177449500Y-109713713D01*
X177449500Y-109926287D01*
X177482754Y-110136243D01*
X177534075Y-110294193D01*
X177548444Y-110338414D01*
X177644951Y-110527820D01*
X177769890Y-110699786D01*
X177920213Y-110850109D01*
X178092182Y-110975050D01*
X178100946Y-110979516D01*
X178151742Y-111027491D01*
X178168536Y-111095312D01*
X178145998Y-111161447D01*
X178100946Y-111200484D01*
X178092182Y-111204949D01*
X177920213Y-111329890D01*
X177769890Y-111480213D01*
X177644951Y-111652179D01*
X177548444Y-111841585D01*
X177548443Y-111841587D01*
X177548443Y-111841588D01*
X177519232Y-111931489D01*
X177482753Y-112043760D01*
X177456694Y-112208292D01*
X177449500Y-112253713D01*
X177449500Y-112466287D01*
X177452102Y-112482714D01*
X177476596Y-112637367D01*
X177482754Y-112676243D01*
X177534075Y-112834193D01*
X177548444Y-112878414D01*
X177644951Y-113067820D01*
X177769890Y-113239786D01*
X177920213Y-113390109D01*
X178092179Y-113515048D01*
X178092181Y-113515049D01*
X178092184Y-113515051D01*
X178281588Y-113611557D01*
X178483757Y-113677246D01*
X178693713Y-113710500D01*
X178693714Y-113710500D01*
X178906286Y-113710500D01*
X178906287Y-113710500D01*
X179116243Y-113677246D01*
X179318412Y-113611557D01*
X179507816Y-113515051D01*
X179529789Y-113499086D01*
X179679786Y-113390109D01*
X179679788Y-113390106D01*
X179679792Y-113390104D01*
X179830104Y-113239792D01*
X179830106Y-113239788D01*
X179830109Y-113239786D01*
X179955048Y-113067820D01*
X179955047Y-113067820D01*
X179955051Y-113067816D01*
X180051557Y-112878412D01*
X180057569Y-112859907D01*
X180097006Y-112802232D01*
X180161365Y-112775034D01*
X180230211Y-112786949D01*
X180281687Y-112834193D01*
X180299500Y-112898226D01*
X180299500Y-113875500D01*
X180279815Y-113942539D01*
X180227011Y-113988294D01*
X180175500Y-113999500D01*
X156024500Y-113999500D01*
X155957461Y-113979815D01*
X155911706Y-113927011D01*
X155900500Y-113875500D01*
X155900500Y-112358226D01*
X155920185Y-112291187D01*
X155972989Y-112245432D01*
X156042147Y-112235488D01*
X156105703Y-112264513D01*
X156142430Y-112319906D01*
X156144094Y-112325028D01*
X156148444Y-112338414D01*
X156244951Y-112527820D01*
X156369890Y-112699786D01*
X156520213Y-112850109D01*
X156692179Y-112975048D01*
X156692181Y-112975049D01*
X156692184Y-112975051D01*
X156881588Y-113071557D01*
X157083757Y-113137246D01*
X157293713Y-113170500D01*
X157293714Y-113170500D01*
X157506286Y-113170500D01*
X157506287Y-113170500D01*
X157716243Y-113137246D01*
X157918412Y-113071557D01*
X158107816Y-112975051D01*
X158191623Y-112914162D01*
X158279786Y-112850109D01*
X158279788Y-112850106D01*
X158279792Y-112850104D01*
X158430104Y-112699792D01*
X158430106Y-112699788D01*
X158430109Y-112699786D01*
X158555048Y-112527820D01*
X158555047Y-112527820D01*
X158555051Y-112527816D01*
X158651557Y-112338412D01*
X158717246Y-112136243D01*
X158750500Y-111926287D01*
X158750500Y-111826520D01*
X158770185Y-111759481D01*
X158822989Y-111713726D01*
X158892147Y-111703782D01*
X158906582Y-111706742D01*
X158962046Y-111721604D01*
X158962047Y-111721604D01*
X161399130Y-111721604D01*
X161466169Y-111741289D01*
X161468021Y-111742502D01*
X161599710Y-111830494D01*
X161599723Y-111830501D01*
X161745394Y-111890839D01*
X161745399Y-111890841D01*
X161869297Y-111915486D01*
X161900049Y-111921603D01*
X161900052Y-111921604D01*
X161900054Y-111921604D01*
X162057740Y-111921604D01*
X162057741Y-111921603D01*
X162212393Y-111890841D01*
X162358075Y-111830498D01*
X162489185Y-111742893D01*
X162600685Y-111631393D01*
X162676358Y-111518141D01*
X162729970Y-111473335D01*
X162799295Y-111464628D01*
X162862322Y-111494782D01*
X162899042Y-111554225D01*
X162901079Y-111611215D01*
X162899500Y-111619155D01*
X162899500Y-111776846D01*
X162930261Y-111931489D01*
X162930264Y-111931501D01*
X162990602Y-112077172D01*
X162990609Y-112077185D01*
X163078210Y-112208288D01*
X163078213Y-112208292D01*
X163189707Y-112319786D01*
X163189711Y-112319789D01*
X163320814Y-112407390D01*
X163320827Y-112407397D01*
X163463000Y-112466286D01*
X163466503Y-112467737D01*
X163621153Y-112498499D01*
X163621156Y-112498500D01*
X163621158Y-112498500D01*
X163778844Y-112498500D01*
X163778845Y-112498499D01*
X163933497Y-112467737D01*
X164079179Y-112407394D01*
X164210289Y-112319789D01*
X164321789Y-112208289D01*
X164409394Y-112077179D01*
X164469737Y-111931497D01*
X164500500Y-111776842D01*
X164500500Y-111619158D01*
X164500500Y-111619155D01*
X164500499Y-111619153D01*
X164490890Y-111570846D01*
X164469737Y-111464503D01*
X164454900Y-111428683D01*
X164409397Y-111318827D01*
X164409390Y-111318814D01*
X164321398Y-111187125D01*
X164300520Y-111120447D01*
X164300500Y-111118234D01*
X164300500Y-109120943D01*
X164296903Y-109107521D01*
X164296902Y-109107516D01*
X164284057Y-109059577D01*
X164259577Y-108968216D01*
X164243407Y-108940208D01*
X164180524Y-108831290D01*
X164180521Y-108831286D01*
X164180520Y-108831284D01*
X164068716Y-108719480D01*
X164068715Y-108719479D01*
X164064385Y-108715149D01*
X164064374Y-108715139D01*
X163936916Y-108587681D01*
X163903431Y-108526358D01*
X163908415Y-108456666D01*
X163936916Y-108412319D01*
X164870063Y-107479172D01*
X165829700Y-106519534D01*
X165891021Y-106486051D01*
X165960713Y-106491035D01*
X166016646Y-106532907D01*
X166041063Y-106598371D01*
X166026211Y-106666644D01*
X166020482Y-106676107D01*
X165990608Y-106720816D01*
X165990602Y-106720827D01*
X165930264Y-106866498D01*
X165930262Y-106866507D01*
X165899500Y-107021153D01*
X165899500Y-107178846D01*
X165930261Y-107333489D01*
X165930264Y-107333501D01*
X165990602Y-107479172D01*
X165990609Y-107479185D01*
X166078602Y-107610874D01*
X166099480Y-107677551D01*
X166099500Y-107679765D01*
X166099500Y-111421070D01*
X166099499Y-111421088D01*
X166099499Y-111586794D01*
X166099498Y-111586794D01*
X166103940Y-111603370D01*
X166131639Y-111706745D01*
X166140424Y-111739527D01*
X166142355Y-111742870D01*
X166142362Y-111742897D01*
X166142368Y-111742894D01*
X166219475Y-111876449D01*
X166219481Y-111876457D01*
X166338349Y-111995325D01*
X166338355Y-111995330D01*
X166761555Y-112418530D01*
X166795040Y-112479853D01*
X166795491Y-112482019D01*
X166826391Y-112637361D01*
X166826394Y-112637371D01*
X166886732Y-112783042D01*
X166886739Y-112783055D01*
X166974340Y-112914158D01*
X166974343Y-112914162D01*
X167085837Y-113025656D01*
X167085841Y-113025659D01*
X167216944Y-113113260D01*
X167216957Y-113113267D01*
X167355132Y-113170500D01*
X167362633Y-113173607D01*
X167517283Y-113204369D01*
X167517286Y-113204370D01*
X167517288Y-113204370D01*
X167674974Y-113204370D01*
X167674975Y-113204369D01*
X167829627Y-113173607D01*
X167975309Y-113113264D01*
X168106419Y-113025659D01*
X168217919Y-112914159D01*
X168305524Y-112783049D01*
X168365867Y-112637367D01*
X168396630Y-112482712D01*
X168396630Y-112325028D01*
X168396630Y-112325025D01*
X168396629Y-112325023D01*
X168395587Y-112319786D01*
X168365867Y-112170373D01*
X168351730Y-112136243D01*
X168305527Y-112024697D01*
X168305520Y-112024684D01*
X168217919Y-111893581D01*
X168217916Y-111893577D01*
X168106422Y-111782083D01*
X168106418Y-111782080D01*
X167975315Y-111694479D01*
X167975302Y-111694472D01*
X167829631Y-111634134D01*
X167829621Y-111634131D01*
X167674279Y-111603231D01*
X167612368Y-111570846D01*
X167610790Y-111569295D01*
X167336819Y-111295324D01*
X167303334Y-111234001D01*
X167300500Y-111207643D01*
X167300500Y-107679765D01*
X167320185Y-107612726D01*
X167321398Y-107610874D01*
X167409390Y-107479185D01*
X167409390Y-107479184D01*
X167409394Y-107479179D01*
X167469737Y-107333497D01*
X167500500Y-107178842D01*
X167500500Y-107021158D01*
X167500500Y-107021155D01*
X167500499Y-107021153D01*
X167469738Y-106866507D01*
X167469735Y-106866498D01*
X167409397Y-106720827D01*
X167409390Y-106720814D01*
X167321789Y-106589711D01*
X167321786Y-106589707D01*
X167210292Y-106478213D01*
X167210288Y-106478210D01*
X167079185Y-106390609D01*
X167079172Y-106390602D01*
X166933501Y-106330264D01*
X166933489Y-106330261D01*
X166778845Y-106299500D01*
X166778842Y-106299500D01*
X166621158Y-106299500D01*
X166621155Y-106299500D01*
X166466510Y-106330261D01*
X166466498Y-106330264D01*
X166320827Y-106390602D01*
X166320816Y-106390608D01*
X166276107Y-106420482D01*
X166209429Y-106441359D01*
X166142049Y-106422874D01*
X166095360Y-106370895D01*
X166084184Y-106301925D01*
X166112070Y-106237861D01*
X166119525Y-106229709D01*
X166187227Y-106162007D01*
X171513354Y-106162007D01*
X171513354Y-106319700D01*
X171544115Y-106474343D01*
X171544118Y-106474355D01*
X171604456Y-106620026D01*
X171604463Y-106620039D01*
X171692064Y-106751142D01*
X171692067Y-106751146D01*
X171803561Y-106862640D01*
X171803565Y-106862643D01*
X171939740Y-106953633D01*
X171938965Y-106954791D01*
X171983787Y-106998806D01*
X171999500Y-107059220D01*
X171999500Y-108047234D01*
X171979815Y-108114273D01*
X171978602Y-108116125D01*
X171890609Y-108247814D01*
X171890602Y-108247827D01*
X171830264Y-108393498D01*
X171830261Y-108393510D01*
X171799500Y-108548153D01*
X171799500Y-108705846D01*
X171830261Y-108860489D01*
X171830264Y-108860501D01*
X171890602Y-109006172D01*
X171890609Y-109006185D01*
X171978210Y-109137288D01*
X171978213Y-109137292D01*
X172089707Y-109248786D01*
X172089711Y-109248789D01*
X172220814Y-109336390D01*
X172220827Y-109336397D01*
X172315198Y-109375486D01*
X172366503Y-109396737D01*
X172521153Y-109427499D01*
X172521156Y-109427500D01*
X172521158Y-109427500D01*
X172678844Y-109427500D01*
X172678845Y-109427499D01*
X172833497Y-109396737D01*
X172979179Y-109336394D01*
X173110289Y-109248789D01*
X173221789Y-109137289D01*
X173309394Y-109006179D01*
X173369737Y-108860497D01*
X173400500Y-108705842D01*
X173400500Y-108548158D01*
X173400500Y-108548155D01*
X173400499Y-108548153D01*
X173390921Y-108500000D01*
X173369737Y-108393503D01*
X173369735Y-108393498D01*
X173309397Y-108247827D01*
X173309390Y-108247814D01*
X173221398Y-108116125D01*
X173200520Y-108049447D01*
X173200500Y-108047234D01*
X173200500Y-106616060D01*
X173200501Y-106616047D01*
X173200501Y-106447944D01*
X173194020Y-106423757D01*
X173159577Y-106295216D01*
X173142597Y-106265805D01*
X173130966Y-106245658D01*
X173114354Y-106183660D01*
X173114354Y-106162009D01*
X173114353Y-106162007D01*
X173083592Y-106007364D01*
X173083591Y-106007357D01*
X173051342Y-105929500D01*
X173023251Y-105861681D01*
X173023244Y-105861668D01*
X172935643Y-105730565D01*
X172935640Y-105730561D01*
X172824146Y-105619067D01*
X172824142Y-105619064D01*
X172693039Y-105531463D01*
X172693026Y-105531456D01*
X172547355Y-105471118D01*
X172547343Y-105471115D01*
X172392699Y-105440354D01*
X172392696Y-105440354D01*
X172235012Y-105440354D01*
X172235009Y-105440354D01*
X172080364Y-105471115D01*
X172080352Y-105471118D01*
X171934681Y-105531456D01*
X171934668Y-105531463D01*
X171803565Y-105619064D01*
X171803561Y-105619067D01*
X171692067Y-105730561D01*
X171692064Y-105730565D01*
X171604463Y-105861668D01*
X171604456Y-105861681D01*
X171544118Y-106007352D01*
X171544115Y-106007364D01*
X171513354Y-106162007D01*
X166187227Y-106162007D01*
X171112416Y-101236819D01*
X171173739Y-101203334D01*
X171200097Y-101200500D01*
X171793234Y-101200500D01*
X171860273Y-101220185D01*
X171862125Y-101221398D01*
X171993814Y-101309390D01*
X171993827Y-101309397D01*
X172139498Y-101369735D01*
X172139503Y-101369737D01*
X172294153Y-101400499D01*
X172294156Y-101400500D01*
X172294158Y-101400500D01*
X172451844Y-101400500D01*
X172451845Y-101400499D01*
X172606497Y-101369737D01*
X172752179Y-101309394D01*
X172883289Y-101221789D01*
X172994789Y-101110289D01*
X173082394Y-100979179D01*
X173142737Y-100833497D01*
X173173500Y-100678842D01*
X173173500Y-100521158D01*
X173173500Y-100521155D01*
X173173499Y-100521153D01*
X173151447Y-100410292D01*
X173142737Y-100366503D01*
X173142612Y-100366202D01*
X173082397Y-100220827D01*
X173082390Y-100220814D01*
X172994789Y-100089711D01*
X172994786Y-100089707D01*
X172883292Y-99978213D01*
X172883288Y-99978210D01*
X172752185Y-99890609D01*
X172752172Y-99890602D01*
X172606501Y-99830264D01*
X172606489Y-99830261D01*
X172451845Y-99799500D01*
X172451842Y-99799500D01*
X172294158Y-99799500D01*
X172294155Y-99799500D01*
X172139510Y-99830261D01*
X172139498Y-99830264D01*
X171993827Y-99890602D01*
X171993814Y-99890609D01*
X171862125Y-99978602D01*
X171795447Y-99999480D01*
X171793234Y-99999500D01*
X170979057Y-99999500D01*
X170820943Y-99999500D01*
X170668215Y-100040423D01*
X170668214Y-100040423D01*
X170668212Y-100040424D01*
X170668209Y-100040425D01*
X170618096Y-100069359D01*
X170618095Y-100069360D01*
X170582853Y-100089707D01*
X170531285Y-100119479D01*
X170531282Y-100119481D01*
X162985339Y-107665425D01*
X162924016Y-107698910D01*
X162921850Y-107699361D01*
X162766508Y-107730261D01*
X162766498Y-107730264D01*
X162620827Y-107790602D01*
X162620814Y-107790609D01*
X162489711Y-107878210D01*
X162489707Y-107878213D01*
X162378213Y-107989707D01*
X162378210Y-107989711D01*
X162290609Y-108120814D01*
X162290602Y-108120827D01*
X162230264Y-108266498D01*
X162230261Y-108266510D01*
X162199500Y-108421153D01*
X162199500Y-108578846D01*
X162230261Y-108733489D01*
X162230264Y-108733501D01*
X162290602Y-108879172D01*
X162290609Y-108879185D01*
X162378210Y-109010288D01*
X162378213Y-109010292D01*
X162489707Y-109121786D01*
X162489711Y-109121789D01*
X162620814Y-109209390D01*
X162620827Y-109209397D01*
X162766498Y-109269735D01*
X162766503Y-109269737D01*
X162827012Y-109281773D01*
X162921849Y-109300638D01*
X162983760Y-109333023D01*
X162985339Y-109334574D01*
X163063181Y-109412416D01*
X163096666Y-109473739D01*
X163099500Y-109500097D01*
X163099500Y-111118234D01*
X163079815Y-111185273D01*
X163078602Y-111187125D01*
X163002537Y-111300963D01*
X162948924Y-111345768D01*
X162879599Y-111354475D01*
X162816572Y-111324320D01*
X162779853Y-111264877D01*
X162777818Y-111207878D01*
X162779289Y-111200486D01*
X162779396Y-111199946D01*
X162779396Y-111042262D01*
X162779396Y-111042259D01*
X162779395Y-111042257D01*
X162776458Y-111027491D01*
X162748633Y-110887607D01*
X162708158Y-110789890D01*
X162688293Y-110741931D01*
X162688286Y-110741918D01*
X162600685Y-110610815D01*
X162600682Y-110610811D01*
X162489188Y-110499317D01*
X162489184Y-110499314D01*
X162358081Y-110411713D01*
X162358068Y-110411706D01*
X162212397Y-110351368D01*
X162212385Y-110351365D01*
X162057741Y-110320604D01*
X162057738Y-110320604D01*
X161900054Y-110320604D01*
X161900051Y-110320604D01*
X161745406Y-110351365D01*
X161745394Y-110351368D01*
X161599723Y-110411706D01*
X161599710Y-110411713D01*
X161468021Y-110499706D01*
X161401343Y-110520584D01*
X161399130Y-110520604D01*
X159341201Y-110520604D01*
X159274162Y-110500919D01*
X159253520Y-110484285D01*
X158684710Y-109915475D01*
X158651225Y-109854152D01*
X158654460Y-109789476D01*
X158675568Y-109724513D01*
X158717246Y-109596243D01*
X158750500Y-109386287D01*
X158750500Y-109173713D01*
X158717246Y-108963757D01*
X158651557Y-108761588D01*
X158555051Y-108572184D01*
X158555049Y-108572181D01*
X158555048Y-108572179D01*
X158430109Y-108400213D01*
X158279786Y-108249890D01*
X158107820Y-108124951D01*
X158107115Y-108124591D01*
X158099054Y-108120485D01*
X158048259Y-108072512D01*
X158031463Y-108004692D01*
X158053999Y-107938556D01*
X158099054Y-107899515D01*
X158107816Y-107895051D01*
X158130996Y-107878210D01*
X158279786Y-107770109D01*
X158279788Y-107770106D01*
X158279792Y-107770104D01*
X158430104Y-107619792D01*
X158430106Y-107619788D01*
X158430109Y-107619786D01*
X158555048Y-107447820D01*
X158555047Y-107447820D01*
X158555051Y-107447816D01*
X158651557Y-107258412D01*
X158717246Y-107056243D01*
X158750500Y-106846287D01*
X158750500Y-106633713D01*
X158717246Y-106423757D01*
X158651557Y-106221588D01*
X158555051Y-106032184D01*
X158555049Y-106032181D01*
X158555048Y-106032179D01*
X158430109Y-105860213D01*
X158279786Y-105709890D01*
X158107820Y-105584951D01*
X158107115Y-105584591D01*
X158099054Y-105580485D01*
X158048259Y-105532512D01*
X158031463Y-105464692D01*
X158053999Y-105398556D01*
X158099054Y-105359515D01*
X158107816Y-105355051D01*
X158129789Y-105339086D01*
X158279786Y-105230109D01*
X158279788Y-105230106D01*
X158279792Y-105230104D01*
X158430104Y-105079792D01*
X158430106Y-105079788D01*
X158430109Y-105079786D01*
X158503448Y-104978842D01*
X158555051Y-104907816D01*
X158555349Y-104907230D01*
X158575235Y-104868205D01*
X158623209Y-104817409D01*
X158685719Y-104800500D01*
X162199903Y-104800500D01*
X162266942Y-104820185D01*
X162287584Y-104836819D01*
X162715139Y-105264374D01*
X162715149Y-105264385D01*
X162719479Y-105268715D01*
X162719480Y-105268716D01*
X162831284Y-105380520D01*
X162831286Y-105380521D01*
X162831290Y-105380524D01*
X162934920Y-105440354D01*
X162968216Y-105459577D01*
X163017105Y-105472676D01*
X163072691Y-105504770D01*
X163089707Y-105521786D01*
X163089711Y-105521789D01*
X163220814Y-105609390D01*
X163220827Y-105609397D01*
X163366498Y-105669735D01*
X163366503Y-105669737D01*
X163521153Y-105700499D01*
X163521156Y-105700500D01*
X163521158Y-105700500D01*
X163678844Y-105700500D01*
X163678845Y-105700499D01*
X163833497Y-105669737D01*
X163979179Y-105609394D01*
X164110289Y-105521789D01*
X164221789Y-105410289D01*
X164309394Y-105279179D01*
X164369737Y-105133497D01*
X164400500Y-104978842D01*
X164400500Y-104821158D01*
X164400500Y-104821155D01*
X164400499Y-104821153D01*
X164396391Y-104800500D01*
X164369737Y-104666503D01*
X164360629Y-104644513D01*
X164309397Y-104520827D01*
X164309390Y-104520814D01*
X164221789Y-104389711D01*
X164221786Y-104389707D01*
X164110292Y-104278213D01*
X164110288Y-104278210D01*
X163979185Y-104190609D01*
X163979172Y-104190602D01*
X163833501Y-104130264D01*
X163833489Y-104130261D01*
X163678845Y-104099500D01*
X163678842Y-104099500D01*
X163521158Y-104099500D01*
X163521155Y-104099500D01*
X163360528Y-104131451D01*
X163360049Y-104129046D01*
X163300943Y-104129544D01*
X163247193Y-104097958D01*
X162987590Y-103838355D01*
X162987588Y-103838352D01*
X162868717Y-103719481D01*
X162868716Y-103719480D01*
X162781904Y-103669360D01*
X162781904Y-103669359D01*
X162781900Y-103669358D01*
X162731785Y-103640423D01*
X162579057Y-103599499D01*
X162420943Y-103599499D01*
X162413347Y-103599499D01*
X162413331Y-103599500D01*
X158685719Y-103599500D01*
X158618680Y-103579815D01*
X158575235Y-103531795D01*
X158555052Y-103492185D01*
X158555051Y-103492184D01*
X158430109Y-103320213D01*
X158316569Y-103206673D01*
X158283084Y-103145350D01*
X158288068Y-103075658D01*
X158329940Y-103019725D01*
X158360915Y-103002810D01*
X158492331Y-102953796D01*
X158607546Y-102867546D01*
X158693796Y-102752331D01*
X158744091Y-102617483D01*
X158750500Y-102557873D01*
X158750500Y-102384500D01*
X158770185Y-102317461D01*
X158822989Y-102271706D01*
X158874500Y-102260500D01*
X162880331Y-102260500D01*
X162880347Y-102260501D01*
X162887943Y-102260501D01*
X163046054Y-102260501D01*
X163046057Y-102260501D01*
X163198785Y-102219577D01*
X163200438Y-102218622D01*
X163203050Y-102217115D01*
X163265053Y-102200500D01*
X163305844Y-102200500D01*
X163305845Y-102200499D01*
X163460497Y-102169737D01*
X163606179Y-102109394D01*
X163737289Y-102021789D01*
X163848789Y-101910289D01*
X163936394Y-101779179D01*
X163996737Y-101633497D01*
X164027500Y-101478842D01*
X164027500Y-101321158D01*
X164027500Y-101321155D01*
X164027499Y-101321153D01*
X164007734Y-101221789D01*
X163996737Y-101166503D01*
X163972368Y-101107671D01*
X163936397Y-101020827D01*
X163936390Y-101020814D01*
X163848789Y-100889711D01*
X163848786Y-100889707D01*
X163737292Y-100778213D01*
X163737288Y-100778210D01*
X163661548Y-100727602D01*
X163616743Y-100673990D01*
X163608036Y-100604665D01*
X163638190Y-100541637D01*
X163697634Y-100504918D01*
X163730439Y-100500500D01*
X165920234Y-100500500D01*
X165987273Y-100520185D01*
X165989125Y-100521398D01*
X166120814Y-100609390D01*
X166120827Y-100609397D01*
X166266498Y-100669735D01*
X166266503Y-100669737D01*
X166371418Y-100690606D01*
X166421153Y-100700499D01*
X166421156Y-100700500D01*
X166421158Y-100700500D01*
X166578844Y-100700500D01*
X166578845Y-100700499D01*
X166733497Y-100669737D01*
X166879179Y-100609394D01*
X167010289Y-100521789D01*
X167121789Y-100410289D01*
X167209394Y-100279179D01*
X167269737Y-100133497D01*
X167300500Y-99978842D01*
X167300500Y-99821158D01*
X167300500Y-99821155D01*
X167300499Y-99821153D01*
X167269738Y-99666510D01*
X167269737Y-99666503D01*
X167213728Y-99531284D01*
X167209397Y-99520827D01*
X167209390Y-99520814D01*
X167121789Y-99389711D01*
X167121786Y-99389707D01*
X167010292Y-99278213D01*
X167010288Y-99278210D01*
X166879185Y-99190609D01*
X166879172Y-99190602D01*
X166733501Y-99130264D01*
X166733489Y-99130261D01*
X166578845Y-99099500D01*
X166578842Y-99099500D01*
X166421158Y-99099500D01*
X166421155Y-99099500D01*
X166266510Y-99130261D01*
X166266498Y-99130264D01*
X166120827Y-99190602D01*
X166120814Y-99190609D01*
X165989125Y-99278602D01*
X165922447Y-99299480D01*
X165920234Y-99299500D01*
X162679057Y-99299500D01*
X162520942Y-99299500D01*
X162368215Y-99340423D01*
X162368214Y-99340423D01*
X162368212Y-99340424D01*
X162368209Y-99340425D01*
X162318096Y-99369359D01*
X162318095Y-99369360D01*
X162282853Y-99389707D01*
X162231285Y-99419479D01*
X162231282Y-99419481D01*
X161385339Y-100265425D01*
X161324016Y-100298910D01*
X161321850Y-100299361D01*
X161166508Y-100330261D01*
X161166498Y-100330264D01*
X161020827Y-100390602D01*
X161020814Y-100390609D01*
X160889711Y-100478210D01*
X160889707Y-100478213D01*
X160778213Y-100589707D01*
X160778210Y-100589711D01*
X160690609Y-100720814D01*
X160690602Y-100720827D01*
X160630264Y-100866498D01*
X160630261Y-100866510D01*
X160611726Y-100959691D01*
X160579341Y-101021602D01*
X160518625Y-101056177D01*
X160490109Y-101059500D01*
X158874499Y-101059500D01*
X158807460Y-101039815D01*
X158761705Y-100987011D01*
X158750499Y-100935500D01*
X158750499Y-100762129D01*
X158750498Y-100762123D01*
X158746787Y-100727602D01*
X158744091Y-100702517D01*
X158743338Y-100700499D01*
X158693797Y-100567671D01*
X158693793Y-100567664D01*
X158607547Y-100452455D01*
X158607544Y-100452452D01*
X158492335Y-100366206D01*
X158492328Y-100366202D01*
X158357482Y-100315908D01*
X158357483Y-100315908D01*
X158297883Y-100309501D01*
X158297881Y-100309500D01*
X158297873Y-100309500D01*
X158297864Y-100309500D01*
X156502129Y-100309500D01*
X156502123Y-100309501D01*
X156442516Y-100315908D01*
X156307671Y-100366202D01*
X156307664Y-100366206D01*
X156192455Y-100452452D01*
X156192452Y-100452455D01*
X156123766Y-100544208D01*
X156067832Y-100586079D01*
X155998141Y-100591063D01*
X155936818Y-100557577D01*
X155903334Y-100496254D01*
X155900500Y-100469897D01*
X155900500Y-97424500D01*
X155920185Y-97357461D01*
X155972989Y-97311706D01*
X156024500Y-97300500D01*
X180175500Y-97300500D01*
X180242539Y-97320185D01*
G37*
%TD.AperFunction*%
%TA.AperFunction,Conductor*%
G36*
X179915270Y-105501717D02*
G01*
X179915270Y-105501716D01*
X179954622Y-105447554D01*
X180051093Y-105258221D01*
X180057568Y-105238294D01*
X180097005Y-105180618D01*
X180161363Y-105153419D01*
X180230210Y-105165333D01*
X180281686Y-105212576D01*
X180299500Y-105276611D01*
X180299500Y-106741773D01*
X180279815Y-106808812D01*
X180227011Y-106854567D01*
X180157853Y-106864511D01*
X180094297Y-106835486D01*
X180057570Y-106780094D01*
X180051557Y-106761588D01*
X179955051Y-106572184D01*
X179955049Y-106572181D01*
X179955048Y-106572179D01*
X179830109Y-106400213D01*
X179679786Y-106249890D01*
X179507817Y-106124949D01*
X179498504Y-106120204D01*
X179447707Y-106072230D01*
X179430912Y-106004409D01*
X179453449Y-105938274D01*
X179498507Y-105899232D01*
X179507555Y-105894622D01*
X179561716Y-105855270D01*
X179561717Y-105855270D01*
X178929408Y-105222962D01*
X178992993Y-105205925D01*
X179107007Y-105140099D01*
X179200099Y-105047007D01*
X179265925Y-104932993D01*
X179282962Y-104869408D01*
X179915270Y-105501717D01*
G37*
%TD.AperFunction*%
%TA.AperFunction,Conductor*%
G36*
X180263182Y-103302421D02*
G01*
X180296666Y-103363745D01*
X180299500Y-103390102D01*
X180299500Y-104203388D01*
X180279815Y-104270427D01*
X180227011Y-104316182D01*
X180157853Y-104326126D01*
X180094297Y-104297101D01*
X180057569Y-104241706D01*
X180051095Y-104221782D01*
X179954624Y-104032449D01*
X179915270Y-103978282D01*
X179915269Y-103978282D01*
X179282962Y-104610590D01*
X179265925Y-104547007D01*
X179200099Y-104432993D01*
X179107007Y-104339901D01*
X178992993Y-104274075D01*
X178929409Y-104257037D01*
X179599627Y-103586818D01*
X179660950Y-103553333D01*
X179687307Y-103550499D01*
X179697872Y-103550499D01*
X179757483Y-103544091D01*
X179892331Y-103493796D01*
X180007546Y-103407546D01*
X180076234Y-103315789D01*
X180132167Y-103273920D01*
X180201859Y-103268936D01*
X180263182Y-103302421D01*
G37*
%TD.AperFunction*%
%TD*%
M02*
